<svg xmlns="http://www.w3.org/2000/svg" viewBox="-10.0002 -2410.0016 115.852 499.1500000000001" style="background:#050505">
<line x1="71.0323" y1="-2374.0016" x2="71.0323" y2="-1946.8516" stroke="#FFFFFF" stroke-width="1"/>
<line x1="8.6063" y1="-1946.8516" x2="8.6063" y2="-2374.0016" stroke="#FFFFFF" stroke-width="1"/>
<line x1="24.8193" y1="-1946.8516" x2="24.8193" y2="-2374.0016" stroke="#FFFFFF" stroke-width="1"/>
<line x1="87.2453" y1="-2374.0016" x2="87.2453" y2="-1946.8516" stroke="#FFFFFF" stroke-width="1"/>
<line x1="2.9998" y1="-2374.0016" x2="-0.0002" y2="-2371.0016" stroke="#FFFFFF" stroke-width="1"/>
<line x1="-0.0002" y1="-2371.0016" x2="-0.0002" y2="-1949.8516" stroke="#FFFFFF" stroke-width="1"/>
<line x1="-0.0002" y1="-1949.8516" x2="2.9998" y2="-1946.8516" stroke="#FFFFFF" stroke-width="1"/>
<line x1="2.9998" y1="-1946.8516" x2="26.8258" y2="-1946.8516" stroke="#FFFFFF" stroke-width="1"/>
<line x1="26.8258" y1="-1946.8516" x2="26.8258" y2="-1945.8516" stroke="#FFFFFF" stroke-width="1"/>
<line x1="26.8258" y1="-1945.8516" x2="22.9258" y2="-1945.8516" stroke="#FFFFFF" stroke-width="1"/>
<line x1="22.9258" y1="-1945.8516" x2="22.9258" y2="-1923.8516" stroke="#FFFFFF" stroke-width="1"/>
<line x1="22.9258" y1="-1923.8516" x2="25.9258" y2="-1920.8516" stroke="#FFFFFF" stroke-width="1"/>
<line x1="25.9258" y1="-1920.8516" x2="69.9258" y2="-1920.8516" stroke="#FFFFFF" stroke-width="1"/>
<line x1="69.9258" y1="-1920.8516" x2="72.9258" y2="-1923.8516" stroke="#FFFFFF" stroke-width="1"/>
<line x1="72.9258" y1="-1923.8516" x2="72.9258" y2="-1945.8516" stroke="#FFFFFF" stroke-width="1"/>
<line x1="72.9258" y1="-1945.8516" x2="69.0258" y2="-1945.8516" stroke="#FFFFFF" stroke-width="1"/>
<line x1="69.0258" y1="-1945.8516" x2="69.0258" y2="-1946.8516" stroke="#FFFFFF" stroke-width="1"/>
<line x1="69.0258" y1="-1946.8516" x2="92.8518" y2="-1946.8516" stroke="#FFFFFF" stroke-width="1"/>
<line x1="92.8518" y1="-1946.8516" x2="95.8518" y2="-1949.8516" stroke="#FFFFFF" stroke-width="1"/>
<line x1="95.8518" y1="-1949.8516" x2="95.8518" y2="-2371.0016" stroke="#FFFFFF" stroke-width="1"/>
<line x1="95.8518" y1="-2371.0016" x2="92.8518" y2="-2374.0016" stroke="#FFFFFF" stroke-width="1"/>
<line x1="92.8518" y1="-2374.0016" x2="69.0258" y2="-2374.0016" stroke="#FFFFFF" stroke-width="1"/>
<line x1="69.0258" y1="-2374.0016" x2="69.0258" y2="-2375.0016" stroke="#FFFFFF" stroke-width="1"/>
<line x1="69.0258" y1="-2375.0016" x2="72.9258" y2="-2375.0016" stroke="#FFFFFF" stroke-width="1"/>
<line x1="72.9258" y1="-2375.0016" x2="72.9258" y2="-2397.0016" stroke="#FFFFFF" stroke-width="1"/>
<line x1="72.9258" y1="-2397.0016" x2="69.9258" y2="-2400.0016" stroke="#FFFFFF" stroke-width="1"/>
<line x1="69.9258" y1="-2400.0016" x2="25.9258" y2="-2400.0016" stroke="#FFFFFF" stroke-width="1"/>
<line x1="25.9258" y1="-2400.0016" x2="22.9258" y2="-2397.0016" stroke="#FFFFFF" stroke-width="1"/>
<line x1="22.9258" y1="-2397.0016" x2="22.9258" y2="-2375.0016" stroke="#FFFFFF" stroke-width="1"/>
<line x1="22.9258" y1="-2375.0016" x2="26.8258" y2="-2375.0016" stroke="#FFFFFF" stroke-width="1"/>
<line x1="26.8258" y1="-2375.0016" x2="26.8258" y2="-2374.0016" stroke="#FFFFFF" stroke-width="1"/>
<line x1="26.8258" y1="-2374.0016" x2="2.9998" y2="-2374.0016" stroke="#FFFFFF" stroke-width="1"/>
<path d="M 39.41978859945545 -1932.070814660595 L 39.42015835451757 -1932.0639707505652 L 39.42051638218767 -1932.0571262170172 L 39.42086268141459 -1932.0502810800465 L 39.421197251181596 -1932.0434353597502 L 39.4215200905064 -1932.0365890762275 L 39.42183119844114 -1932.029742249579 L 39.42213057407241 -1932.0228948999065 L 39.42241821652126 -1932.0160470473143 L 39.42269412494315 -1932.0091987119074 L 39.42295829852804 -1932.0023499137924 L 39.423210736500295 -1931.9955006730772 L 39.42345143811878 -1931.9886510098715 L 39.423680402676794 -1931.9818009442854 L 39.42389762950209 -1931.9749504964307 L 39.42410311795691 -1931.9680996864204 L 39.424296867437924 -1931.9612485343682 L 39.42447887737629 -1931.954397060389 L 39.42464914723764 -1931.947545284599 L 39.42480767652204 -1931.9406932271147 L 39.424954464764085 -1931.9338409080535 L 39.425089511532775 -1931.926988347534 L 39.425212816431625 -1931.9201355656753 L 39.42532437909861 -1931.9132825825966 L 39.4254241992062 -1931.9064294184188 L 39.4255122764613 -1931.8995760932623 L 39.42558861060533 -1931.8927226272485 L 39.42565320141417 -1931.8858690404993 L 39.42570604869819 -1931.8790153531363 L 39.42574715230222 -1931.8721615852824 L 39.425776512105585 -1931.8653077570598 L 39.42579412802208 -1931.8584538885914 L 39.425799999999995 -1931.8516" fill="none" stroke="#FFFFFF" stroke-width="1"/>
<line x1="31.4258" y1="-1931.8516" x2="31.4258" y2="-1935.8516" stroke="#FFFFFF" stroke-width="1"/>
<path d="M 39.4258 -1935.8516 L 39.42579412802209 -1935.8584538885914 L 39.42577651210559 -1935.8653077570598 L 39.42574715230223 -1935.8721615852824 L 39.425706048698196 -1935.8790153531363 L 39.42565320141418 -1935.8858690404993 L 39.42558861060534 -1935.8927226272485 L 39.425512276461305 -1935.8995760932623 L 39.425424199206205 -1935.9064294184188 L 39.42532437909862 -1935.9132825825966 L 39.42521281643163 -1935.9201355656753 L 39.42508951153278 -1935.926988347534 L 39.424954464764085 -1935.9338409080535 L 39.42480767652205 -1935.9406932271147 L 39.424649147237645 -1935.947545284599 L 39.424478877376295 -1935.954397060389 L 39.42429686743793 -1935.9612485343682 L 39.42410311795692 -1935.9680996864204 L 39.4238976295021 -1935.9749504964307 L 39.4236804026768 -1935.9818009442854 L 39.42345143811879 -1935.9886510098715 L 39.4232107365003 -1935.9955006730772 L 39.422958298528044 -1936.0023499137924 L 39.422694124943156 -1936.0091987119074 L 39.422418216521265 -1936.0160470473143 L 39.42213057407242 -1936.0228948999065 L 39.42183119844115 -1936.029742249579 L 39.421520090506405 -1936.0365890762275 L 39.4211972511816 -1936.0434353597502 L 39.4208626814146 -1936.0502810800465 L 39.42051638218768 -1936.0571262170172 L 39.420158354517575 -1936.0639707505652 L 39.41978859945546 -1936.070814660595" fill="none" stroke="#FFFFFF" stroke-width="1"/>
<line x1="39.4258" y1="-1935.8516" x2="39.4258" y2="-1931.8516" stroke="#FFFFFF" stroke-width="1"/>
<path d="M 64.41978859945546 -1932.070814660595 L 64.42015835451758 -1932.0639707505652 L 64.42051638218769 -1932.0571262170172 L 64.4208626814146 -1932.0502810800465 L 64.42119725118161 -1932.0434353597502 L 64.4215200905064 -1932.0365890762275 L 64.42183119844114 -1932.029742249579 L 64.42213057407243 -1932.0228948999065 L 64.42241821652127 -1932.0160470473143 L 64.42269412494316 -1932.0091987119074 L 64.42295829852804 -1932.0023499137924 L 64.42321073650031 -1931.9955006730772 L 64.42345143811879 -1931.9886510098715 L 64.42368040267681 -1931.9818009442854 L 64.42389762950211 -1931.9749504964307 L 64.42410311795692 -1931.9680996864204 L 64.42429686743793 -1931.9612485343682 L 64.4244788773763 -1931.954397060389 L 64.42464914723764 -1931.947545284599 L 64.42480767652205 -1931.9406932271147 L 64.42495446476408 -1931.9338409080535 L 64.42508951153278 -1931.926988347534 L 64.42521281643162 -1931.9201355656753 L 64.42532437909863 -1931.9132825825966 L 64.4254241992062 -1931.9064294184188 L 64.4255122764613 -1931.8995760932623 L 64.42558861060535 -1931.8927226272485 L 64.42565320141418 -1931.8858690404993 L 64.4257060486982 -1931.8790153531363 L 64.42574715230222 -1931.8721615852824 L 64.42577651210559 -1931.8653077570598 L 64.42579412802209 -1931.8584538885914 L 64.42580000000001 -1931.8516" fill="none" stroke="#FFFFFF" stroke-width="1"/>
<line x1="56.4258" y1="-1931.8516" x2="56.4258" y2="-1935.8516" stroke="#FFFFFF" stroke-width="1"/>
<path d="M 64.42580000000001 -1935.8516 L 64.42579412802209 -1935.8584538885914 L 64.42577651210559 -1935.8653077570598 L 64.42574715230222 -1935.8721615852824 L 64.4257060486982 -1935.8790153531363 L 64.42565320141418 -1935.8858690404993 L 64.42558861060535 -1935.8927226272485 L 64.4255122764613 -1935.8995760932623 L 64.4254241992062 -1935.9064294184188 L 64.42532437909863 -1935.9132825825966 L 64.42521281643162 -1935.9201355656753 L 64.42508951153278 -1935.926988347534 L 64.42495446476408 -1935.9338409080535 L 64.42480767652205 -1935.9406932271147 L 64.42464914723764 -1935.947545284599 L 64.4244788773763 -1935.954397060389 L 64.42429686743793 -1935.9612485343682 L 64.42410311795692 -1935.9680996864204 L 64.42389762950211 -1935.9749504964307 L 64.42368040267681 -1935.9818009442854 L 64.42345143811879 -1935.9886510098715 L 64.42321073650031 -1935.9955006730772 L 64.42295829852804 -1936.0023499137924 L 64.42269412494316 -1936.0091987119074 L 64.42241821652127 -1936.0160470473143 L 64.42213057407243 -1936.0228948999065 L 64.42183119844114 -1936.029742249579 L 64.4215200905064 -1936.0365890762275 L 64.42119725118161 -1936.0434353597502 L 64.4208626814146 -1936.0502810800465 L 64.42051638218769 -1936.0571262170172 L 64.42015835451758 -1936.0639707505652 L 64.41978859945546 -1936.070814660595" fill="none" stroke="#FFFFFF" stroke-width="1"/>
<line x1="64.4258" y1="-1935.8516" x2="64.4258" y2="-1931.8516" stroke="#FFFFFF" stroke-width="1"/>
<line x1="52.1758" y1="-1956.1766" x2="43.6758" y2="-1956.1766" stroke="#FFFFFF" stroke-width="1"/>
<line x1="43.6758" y1="-1956.1766" x2="43.6758" y2="-1964.6766" stroke="#FFFFFF" stroke-width="1"/>
<line x1="43.6758" y1="-1964.6766" x2="52.1758" y2="-1964.6766" stroke="#FFFFFF" stroke-width="1"/>
<line x1="52.1758" y1="-1964.6766" x2="52.1758" y2="-1956.1766" stroke="#FFFFFF" stroke-width="1"/>
<line x1="52.1758" y1="-1981.1766" x2="43.6758" y2="-1981.1766" stroke="#FFFFFF" stroke-width="1"/>
<line x1="43.6758" y1="-1981.1766" x2="43.6758" y2="-1989.6766" stroke="#FFFFFF" stroke-width="1"/>
<line x1="43.6758" y1="-1989.6766" x2="52.1758" y2="-1989.6766" stroke="#FFFFFF" stroke-width="1"/>
<line x1="52.1758" y1="-1989.6766" x2="52.1758" y2="-1981.1766" stroke="#FFFFFF" stroke-width="1"/>
<line x1="52.1758" y1="-2006.1766" x2="43.6758" y2="-2006.1766" stroke="#FFFFFF" stroke-width="1"/>
<line x1="43.6758" y1="-2006.1766" x2="43.6758" y2="-2014.6766" stroke="#FFFFFF" stroke-width="1"/>
<line x1="43.6758" y1="-2014.6766" x2="52.1758" y2="-2014.6766" stroke="#FFFFFF" stroke-width="1"/>
<line x1="52.1758" y1="-2014.6766" x2="52.1758" y2="-2006.1766" stroke="#FFFFFF" stroke-width="1"/>
<line x1="52.1758" y1="-2031.1766" x2="43.6758" y2="-2031.1766" stroke="#FFFFFF" stroke-width="1"/>
<line x1="43.6758" y1="-2031.1766" x2="43.6758" y2="-2039.6766" stroke="#FFFFFF" stroke-width="1"/>
<line x1="43.6758" y1="-2039.6766" x2="52.1758" y2="-2039.6766" stroke="#FFFFFF" stroke-width="1"/>
<line x1="52.1758" y1="-2039.6766" x2="52.1758" y2="-2031.1766" stroke="#FFFFFF" stroke-width="1"/>
<line x1="52.1758" y1="-2056.1766" x2="43.6758" y2="-2056.1766" stroke="#FFFFFF" stroke-width="1"/>
<line x1="43.6758" y1="-2056.1766" x2="43.6758" y2="-2064.6766" stroke="#FFFFFF" stroke-width="1"/>
<line x1="43.6758" y1="-2064.6766" x2="52.1758" y2="-2064.6766" stroke="#FFFFFF" stroke-width="1"/>
<line x1="52.1758" y1="-2064.6766" x2="52.1758" y2="-2056.1766" stroke="#FFFFFF" stroke-width="1"/>
<line x1="52.1758" y1="-2081.1766" x2="43.6758" y2="-2081.1766" stroke="#FFFFFF" stroke-width="1"/>
<line x1="43.6758" y1="-2081.1766" x2="43.6758" y2="-2089.6766" stroke="#FFFFFF" stroke-width="1"/>
<line x1="43.6758" y1="-2089.6766" x2="52.1758" y2="-2089.6766" stroke="#FFFFFF" stroke-width="1"/>
<line x1="52.1758" y1="-2089.6766" x2="52.1758" y2="-2081.1766" stroke="#FFFFFF" stroke-width="1"/>
<line x1="52.1758" y1="-2106.1766" x2="43.6758" y2="-2106.1766" stroke="#FFFFFF" stroke-width="1"/>
<line x1="43.6758" y1="-2106.1766" x2="43.6758" y2="-2114.6766" stroke="#FFFFFF" stroke-width="1"/>
<line x1="43.6758" y1="-2114.6766" x2="52.1758" y2="-2114.6766" stroke="#FFFFFF" stroke-width="1"/>
<line x1="52.1758" y1="-2114.6766" x2="52.1758" y2="-2106.1766" stroke="#FFFFFF" stroke-width="1"/>
<line x1="52.1758" y1="-2206.1766" x2="43.6758" y2="-2206.1766" stroke="#FFFFFF" stroke-width="1"/>
<line x1="43.6758" y1="-2206.1766" x2="43.6758" y2="-2214.6766" stroke="#FFFFFF" stroke-width="1"/>
<line x1="43.6758" y1="-2214.6766" x2="52.1758" y2="-2214.6766" stroke="#FFFFFF" stroke-width="1"/>
<line x1="52.1758" y1="-2214.6766" x2="52.1758" y2="-2206.1766" stroke="#FFFFFF" stroke-width="1"/>
<line x1="52.1758" y1="-2231.1766" x2="43.6758" y2="-2231.1766" stroke="#FFFFFF" stroke-width="1"/>
<line x1="43.6758" y1="-2231.1766" x2="43.6758" y2="-2239.6766" stroke="#FFFFFF" stroke-width="1"/>
<line x1="43.6758" y1="-2239.6766" x2="52.1758" y2="-2239.6766" stroke="#FFFFFF" stroke-width="1"/>
<line x1="52.1758" y1="-2239.6766" x2="52.1758" y2="-2231.1766" stroke="#FFFFFF" stroke-width="1"/>
<line x1="52.1758" y1="-2256.1766" x2="43.6758" y2="-2256.1766" stroke="#FFFFFF" stroke-width="1"/>
<line x1="43.6758" y1="-2256.1766" x2="43.6758" y2="-2264.6766" stroke="#FFFFFF" stroke-width="1"/>
<line x1="43.6758" y1="-2264.6766" x2="52.1758" y2="-2264.6766" stroke="#FFFFFF" stroke-width="1"/>
<line x1="52.1758" y1="-2264.6766" x2="52.1758" y2="-2256.1766" stroke="#FFFFFF" stroke-width="1"/>
<line x1="52.1758" y1="-2281.1766" x2="43.6758" y2="-2281.1766" stroke="#FFFFFF" stroke-width="1"/>
<line x1="43.6758" y1="-2281.1766" x2="43.6758" y2="-2289.6766" stroke="#FFFFFF" stroke-width="1"/>
<line x1="43.6758" y1="-2289.6766" x2="52.1758" y2="-2289.6766" stroke="#FFFFFF" stroke-width="1"/>
<line x1="52.1758" y1="-2289.6766" x2="52.1758" y2="-2281.1766" stroke="#FFFFFF" stroke-width="1"/>
<line x1="52.1758" y1="-2131.1766" x2="43.6758" y2="-2131.1766" stroke="#FFFFFF" stroke-width="1"/>
<line x1="43.6758" y1="-2131.1766" x2="43.6758" y2="-2139.6766" stroke="#FFFFFF" stroke-width="1"/>
<line x1="43.6758" y1="-2139.6766" x2="52.1758" y2="-2139.6766" stroke="#FFFFFF" stroke-width="1"/>
<line x1="52.1758" y1="-2139.6766" x2="52.1758" y2="-2131.1766" stroke="#FFFFFF" stroke-width="1"/>
<line x1="52.1758" y1="-2356.1766" x2="43.6758" y2="-2356.1766" stroke="#FFFFFF" stroke-width="1"/>
<line x1="43.6758" y1="-2356.1766" x2="43.6758" y2="-2364.6766" stroke="#FFFFFF" stroke-width="1"/>
<line x1="43.6758" y1="-2364.6766" x2="52.1758" y2="-2364.6766" stroke="#FFFFFF" stroke-width="1"/>
<line x1="52.1758" y1="-2364.6766" x2="52.1758" y2="-2356.1766" stroke="#FFFFFF" stroke-width="1"/>
<line x1="52.1758" y1="-2331.1766" x2="43.6758" y2="-2331.1766" stroke="#FFFFFF" stroke-width="1"/>
<line x1="43.6758" y1="-2331.1766" x2="43.6758" y2="-2339.6766" stroke="#FFFFFF" stroke-width="1"/>
<line x1="43.6758" y1="-2339.6766" x2="52.1758" y2="-2339.6766" stroke="#FFFFFF" stroke-width="1"/>
<line x1="52.1758" y1="-2339.6766" x2="52.1758" y2="-2331.1766" stroke="#FFFFFF" stroke-width="1"/>
<line x1="52.1758" y1="-2306.1766" x2="43.6758" y2="-2306.1766" stroke="#FFFFFF" stroke-width="1"/>
<line x1="43.6758" y1="-2306.1766" x2="43.6758" y2="-2314.6766" stroke="#FFFFFF" stroke-width="1"/>
<line x1="43.6758" y1="-2314.6766" x2="52.1758" y2="-2314.6766" stroke="#FFFFFF" stroke-width="1"/>
<line x1="52.1758" y1="-2314.6766" x2="52.1758" y2="-2306.1766" stroke="#FFFFFF" stroke-width="1"/>
<line x1="52.1758" y1="-2181.1766" x2="43.6758" y2="-2181.1766" stroke="#FFFFFF" stroke-width="1"/>
<line x1="43.6758" y1="-2181.1766" x2="43.6758" y2="-2189.6766" stroke="#FFFFFF" stroke-width="1"/>
<line x1="43.6758" y1="-2189.6766" x2="52.1758" y2="-2189.6766" stroke="#FFFFFF" stroke-width="1"/>
<line x1="52.1758" y1="-2189.6766" x2="52.1758" y2="-2181.1766" stroke="#FFFFFF" stroke-width="1"/>
<line x1="52.1758" y1="-2156.1766" x2="43.6758" y2="-2156.1766" stroke="#FFFFFF" stroke-width="1"/>
<line x1="43.6758" y1="-2156.1766" x2="43.6758" y2="-2164.6766" stroke="#FFFFFF" stroke-width="1"/>
<line x1="43.6758" y1="-2164.6766" x2="52.1758" y2="-2164.6766" stroke="#FFFFFF" stroke-width="1"/>
<line x1="52.1758" y1="-2164.6766" x2="52.1758" y2="-2156.1766" stroke="#FFFFFF" stroke-width="1"/>
<line x1="56.4258" y1="-2385.0016" x2="56.4258" y2="-2389.0016" stroke="#FFFFFF" stroke-width="1"/>
<path d="M 64.42580000000001 -2389.0016 L 64.42579412802209 -2389.0084538885912 L 64.42577651210559 -2389.01530775706 L 64.42574715230222 -2389.0221615852824 L 64.4257060486982 -2389.0290153531364 L 64.42565320141418 -2389.035869040499 L 64.42558861060535 -2389.0427226272486 L 64.4255122764613 -2389.049576093262 L 64.4254241992062 -2389.0564294184187 L 64.42532437909863 -2389.063282582597 L 64.42521281643162 -2389.070135565675 L 64.42508951153278 -2389.076988347534 L 64.42495446476408 -2389.083840908054 L 64.42480767652205 -2389.0906932271146 L 64.42464914723764 -2389.097545284599 L 64.4244788773763 -2389.104397060389 L 64.42429686743793 -2389.1112485343683 L 64.42410311795692 -2389.1180996864205 L 64.42389762950211 -2389.1249504964308 L 64.42368040267681 -2389.1318009442853 L 64.42345143811879 -2389.1386510098714 L 64.42321073650031 -2389.1455006730775 L 64.42295829852804 -2389.1523499137925 L 64.42269412494316 -2389.1591987119077 L 64.42241821652127 -2389.1660470473144 L 64.42213057407243 -2389.1728948999066 L 64.42183119844114 -2389.179742249579 L 64.4215200905064 -2389.1865890762274 L 64.42119725118161 -2389.1934353597503 L 64.4208626814146 -2389.2002810800464 L 64.42051638218769 -2389.207126217017 L 64.42015835451758 -2389.2139707505653 L 64.41978859945546 -2389.2208146605954" fill="none" stroke="#FFFFFF" stroke-width="1"/>
<line x1="64.4258" y1="-2389.0016" x2="64.4258" y2="-2385.0016" stroke="#FFFFFF" stroke-width="1"/>
<path d="M 64.41978859945546 -2385.2208146605954 L 64.42015835451758 -2385.2139707505653 L 64.42051638218769 -2385.207126217017 L 64.4208626814146 -2385.2002810800464 L 64.42119725118161 -2385.1934353597503 L 64.4215200905064 -2385.1865890762274 L 64.42183119844114 -2385.179742249579 L 64.42213057407243 -2385.1728948999066 L 64.42241821652127 -2385.1660470473144 L 64.42269412494316 -2385.1591987119077 L 64.42295829852804 -2385.1523499137925 L 64.42321073650031 -2385.1455006730775 L 64.42345143811879 -2385.1386510098714 L 64.42368040267681 -2385.1318009442853 L 64.42389762950211 -2385.1249504964308 L 64.42410311795692 -2385.1180996864205 L 64.42429686743793 -2385.1112485343683 L 64.4244788773763 -2385.104397060389 L 64.42464914723764 -2385.097545284599 L 64.42480767652205 -2385.0906932271146 L 64.42495446476408 -2385.083840908054 L 64.42508951153278 -2385.076988347534 L 64.42521281643162 -2385.070135565675 L 64.42532437909863 -2385.063282582597 L 64.4254241992062 -2385.0564294184187 L 64.4255122764613 -2385.049576093262 L 64.42558861060535 -2385.0427226272486 L 64.42565320141418 -2385.035869040499 L 64.4257060486982 -2385.0290153531364 L 64.42574715230222 -2385.0221615852824 L 64.42577651210559 -2385.01530775706 L 64.42579412802209 -2385.0084538885912 L 64.42580000000001 -2385.0016" fill="none" stroke="#FFFFFF" stroke-width="1"/>
<line x1="31.4258" y1="-2385.0016" x2="31.4258" y2="-2389.0016" stroke="#FFFFFF" stroke-width="1"/>
<path d="M 39.4258 -2389.0016 L 39.42579412802209 -2389.0084538885912 L 39.42577651210559 -2389.01530775706 L 39.42574715230223 -2389.0221615852824 L 39.425706048698196 -2389.0290153531364 L 39.42565320141418 -2389.035869040499 L 39.42558861060534 -2389.0427226272486 L 39.425512276461305 -2389.049576093262 L 39.425424199206205 -2389.0564294184187 L 39.42532437909862 -2389.063282582597 L 39.42521281643163 -2389.070135565675 L 39.42508951153278 -2389.076988347534 L 39.424954464764085 -2389.083840908054 L 39.42480767652205 -2389.0906932271146 L 39.424649147237645 -2389.097545284599 L 39.424478877376295 -2389.104397060389 L 39.42429686743793 -2389.1112485343683 L 39.42410311795692 -2389.1180996864205 L 39.4238976295021 -2389.1249504964308 L 39.4236804026768 -2389.1318009442853 L 39.42345143811879 -2389.1386510098714 L 39.4232107365003 -2389.1455006730775 L 39.422958298528044 -2389.1523499137925 L 39.422694124943156 -2389.1591987119077 L 39.422418216521265 -2389.1660470473144 L 39.42213057407242 -2389.1728948999066 L 39.42183119844115 -2389.179742249579 L 39.421520090506405 -2389.1865890762274 L 39.4211972511816 -2389.1934353597503 L 39.4208626814146 -2389.2002810800464 L 39.42051638218768 -2389.207126217017 L 39.420158354517575 -2389.2139707505653 L 39.41978859945546 -2389.2208146605954" fill="none" stroke="#FFFFFF" stroke-width="1"/>
<line x1="39.4258" y1="-2389.0016" x2="39.4258" y2="-2385.0016" stroke="#FFFFFF" stroke-width="1"/>
<path d="M 39.41978859945545 -2385.2208146605954 L 39.42015835451757 -2385.2139707505653 L 39.42051638218767 -2385.207126217017 L 39.42086268141459 -2385.2002810800464 L 39.421197251181596 -2385.1934353597503 L 39.4215200905064 -2385.1865890762274 L 39.42183119844114 -2385.179742249579 L 39.42213057407241 -2385.1728948999066 L 39.42241821652126 -2385.1660470473144 L 39.42269412494315 -2385.1591987119077 L 39.42295829852804 -2385.1523499137925 L 39.423210736500295 -2385.1455006730775 L 39.42345143811878 -2385.1386510098714 L 39.423680402676794 -2385.1318009442853 L 39.42389762950209 -2385.1249504964308 L 39.42410311795691 -2385.1180996864205 L 39.424296867437924 -2385.1112485343683 L 39.42447887737629 -2385.104397060389 L 39.42464914723764 -2385.097545284599 L 39.42480767652204 -2385.0906932271146 L 39.424954464764085 -2385.083840908054 L 39.425089511532775 -2385.076988347534 L 39.425212816431625 -2385.070135565675 L 39.42532437909861 -2385.063282582597 L 39.4254241992062 -2385.0564294184187 L 39.4255122764613 -2385.049576093262 L 39.42558861060533 -2385.0427226272486 L 39.42565320141417 -2385.035869040499 L 39.42570604869819 -2385.0290153531364 L 39.42574715230222 -2385.0221615852824 L 39.425776512105585 -2385.01530775706 L 39.42579412802208 -2385.0084538885912 L 39.425799999999995 -2385.0016" fill="none" stroke="#FFFFFF" stroke-width="1"/>
</svg>