<svg xmlns="http://www.w3.org/2000/svg" viewBox="2380.4988082535874 -3518.6633922035126 6405.088003672456 2982.2807276065896" style="background:#050505">
<path d="M 2671.639172056881 -3227.523028400216 L 3871.639172056882 -3227.523028400216 L 3871.639172056882 -827.5230284002164 L 2671.639172056881 -827.5230284002164 L 2671.639172056881 -3227.523028400216" fill="none" stroke="#FFFFFF" stroke-width="1"/>
<path d="M 5132.165386084833 -3227.523028400216 L 6332.165386084833 -3227.523028400216 L 6332.165386084833 -827.5230284002164 L 5132.165386084833 -827.5230284002164 L 5132.165386084833 -3227.523028400216" fill="none" stroke="#FFFFFF" stroke-width="1"/>
<path d="M 7294.446448122752 -3227.523028400216 L 8494.44644812275 -3227.523028400216 L 8494.44644812275 -827.5230284002164 L 7294.446448122752 -827.5230284002164 L 7294.446448122752 -3227.523028400216" fill="none" stroke="#FFFFFF" stroke-width="1"/>
<path d="M 2763.639172056882 -3227.523028400216 L 2763.639172056882 -1488.523028406894 L 2671.639172056881 -1488.523028406894 L 2671.639172056881 -3227.523028400216 L 2763.639172056882 -3227.523028400216" fill="none" stroke="#FFFFFF" stroke-width="1"/>
<path d="M 2857.639139446097 -3227.523028400216 L 2857.639139446097 -1488.523028406894 L 2765.639139446097 -1488.523028406894 L 2765.639139446097 -3227.523028400216 L 2857.639139446097 -3227.523028400216" fill="none" stroke="#FFFFFF" stroke-width="1"/>
<path d="M 2951.639106835314 -3227.523028400216 L 2951.639106835314 -1488.523028406894 L 2859.639106835313 -1488.523028406894 L 2859.639106835313 -3227.523028400216 L 2951.639106835314 -3227.523028400216" fill="none" stroke="#FFFFFF" stroke-width="1"/>
<path d="M 3045.63907422453 -3227.523028400216 L 3045.63907422453 -1488.523028406894 L 2953.639074224529 -1488.523028406894 L 2953.639074224529 -3227.523028400216 L 3045.63907422453 -3227.523028400216" fill="none" stroke="#FFFFFF" stroke-width="1"/>
<path d="M 3139.639041613746 -3227.523028400216 L 3139.639041613746 -1488.523028406894 L 3047.639041613745 -1488.523028406894 L 3047.639041613745 -3227.523028400216 L 3139.639041613746 -3227.523028400216" fill="none" stroke="#FFFFFF" stroke-width="1"/>
<path d="M 3233.639009002962 -3227.523028400216 L 3233.639009002962 -1488.523028406894 L 3141.639009002962 -1488.523028406894 L 3141.639009002962 -3227.523028400216 L 3233.639009002962 -3227.523028400216" fill="none" stroke="#FFFFFF" stroke-width="1"/>
<path d="M 7973.44644812275 -1805.523028400238 L 7321.446448122737 -1805.523028400238 L 7321.446448122737 -1818.523028400238 L 7294.446448122752 -1818.523028400238 L 7294.446448122752 -3214.523028400218 L 7321.446448122737 -3214.523028400218 L 7321.446448122737 -3227.523028400219 L 7973.44644812275 -3227.523028400215 L 7973.44644812275 -3214.523028400215 L 8000.446448122749 -3214.523028400215 L 8000.446448122749 -1818.523028400238 L 7973.44644812275 -1818.523028400238 L 7973.44644812275 -1805.523028400238" fill="none" stroke="#FFFFFF" stroke-width="1"/>
<path d="M 6306.169677229105 -3200.523028400218 L 6306.169677229105 -2548.523028400202 L 6293.169677229105 -2548.523028400202 L 6293.169677229105 -2521.523028400217 L 5145.165386084833 -2521.523028400217 L 5145.165386084833 -2548.523028400202 L 5132.165386084833 -2548.523028400202 L 5132.165386084833 -3200.523028400218 L 5145.165386084833 -3200.523028400218 L 5145.165386084833 -3227.523028400216 L 6293.169677229105 -3227.523028400216 L 6293.169677229105 -3200.523028400218 L 6306.169677229105 -3200.523028400218" fill="none" stroke="#FFFFFF" stroke-width="1"/>
<path d="M 5811.210912760014 -1191.440552681582 L 5159.210912759998 -1191.440552681582 L 5159.210912759998 -1204.440552681582 L 5132.210912760014 -1204.440552681582 L 5132.210912760014 -2475.440552681583 L 5159.210912759998 -2475.440552681583 L 5159.210912759998 -2488.440552681582 L 5811.210912760014 -2488.440552681578 L 5811.210912760014 -2475.440552681578 L 5838.210912760015 -2475.440552681578 L 5838.210912760015 -1204.440552681582 L 5811.210912760014 -1204.440552681582 L 5811.210912760014 -1191.440552681582" fill="none" stroke="#FFFFFF" stroke-width="1"/>
<path d="M 3478.591527135086 -2702.523028400217 L 3478.59152713507 -3198.523028400217 L 3491.59152713507 -3198.523028400217 L 3491.59152713507 -3227.523028400216 L 3537.59152713507 -3227.523028400216 L 3537.59152713507 -3198.523028400217 L 3550.59152713507 -3198.523028400217 L 3550.591527135085 -2702.523028400217 L 3537.591527135084 -2702.523028400217 L 3537.591527135084 -2673.523028400202 L 3491.591527135084 -2673.523028400202 L 3491.591527135084 -2702.523028400217 L 3478.591527135086 -2702.523028400217" fill="none" stroke="#FFFFFF" stroke-width="1"/>
<path d="M 3398.886612083328 -2702.523028400217 L 3398.886612083315 -3198.523028400217 L 3411.886612083314 -3198.523028400217 L 3411.886612083314 -3227.523028400216 L 3457.886612083314 -3227.523028400216 L 3457.886612083314 -3198.523028400217 L 3470.886612083314 -3198.523028400217 L 3470.886612083329 -2702.523028400217 L 3457.886612083328 -2702.523028400217 L 3457.886612083328 -2673.523028400202 L 3411.886612083328 -2673.523028400202 L 3411.886612083328 -2702.523028400217 L 3398.886612083328 -2702.523028400217" fill="none" stroke="#FFFFFF" stroke-width="1"/>
<path d="M 3320.085909005053 -2702.523028400217 L 3320.085909005038 -3198.523028400217 L 3333.085909005038 -3198.523028400217 L 3333.085909005038 -3227.523028400216 L 3379.085909005038 -3227.523028400216 L 3379.085909005038 -3198.523028400217 L 3392.085909005038 -3198.523028400217 L 3392.085909005054 -2702.523028400217 L 3379.085909005052 -2702.523028400217 L 3379.085909005052 -2673.523028400202 L 3333.085909005053 -2673.523028400202 L 3333.085909005053 -2702.523028400217 L 3320.085909005053 -2702.523028400217" fill="none" stroke="#FFFFFF" stroke-width="1"/>
<path d="M 3243.328783349223 -2702.523028400217 L 3243.328783349209 -3198.523028400217 L 3256.328783349208 -3198.523028400217 L 3256.328783349208 -3227.523028400216 L 3302.328783349209 -3227.523028400216 L 3302.328783349209 -3198.523028400217 L 3315.328783349209 -3198.523028400217 L 3315.328783349223 -2702.523028400217 L 3302.328783349223 -2702.523028400217 L 3302.328783349223 -2673.523028400202 L 3256.328783349224 -2673.523028400202 L 3256.328783349224 -2702.523028400217 L 3243.328783349223 -2702.523028400217" fill="none" stroke="#FFFFFF" stroke-width="1"/>
<path d="M 3478.591527135086 -2144.003516943703 L 3478.59152713507 -2640.003516943703 L 3491.59152713507 -2640.003516943703 L 3491.59152713507 -2669.003516943702 L 3537.59152713507 -2669.003516943702 L 3537.59152713507 -2640.003516943703 L 3550.59152713507 -2640.003516943703 L 3550.591527135085 -2144.003516943703 L 3537.591527135084 -2144.003516943703 L 3537.591527135084 -2115.003516943688 L 3491.591527135084 -2115.003516943688 L 3491.591527135084 -2144.003516943703 L 3478.591527135086 -2144.003516943703" fill="none" stroke="#FFFFFF" stroke-width="1"/>
<path d="M 3398.886612083328 -2144.003516943703 L 3398.886612083315 -2640.003516943703 L 3411.886612083314 -2640.003516943703 L 3411.886612083314 -2669.003516943702 L 3457.886612083314 -2669.003516943702 L 3457.886612083314 -2640.003516943703 L 3470.886612083314 -2640.003516943703 L 3470.886612083329 -2144.003516943703 L 3457.886612083328 -2144.003516943703 L 3457.886612083328 -2115.003516943688 L 3411.886612083328 -2115.003516943688 L 3411.886612083328 -2144.003516943703 L 3398.886612083328 -2144.003516943703" fill="none" stroke="#FFFFFF" stroke-width="1"/>
<path d="M 3320.085909005053 -2144.003516943703 L 3320.085909005038 -2640.003516943703 L 3333.085909005038 -2640.003516943703 L 3333.085909005038 -2669.003516943702 L 3379.085909005038 -2669.003516943702 L 3379.085909005038 -2640.003516943703 L 3392.085909005038 -2640.003516943703 L 3392.085909005054 -2144.003516943703 L 3379.085909005052 -2144.003516943703 L 3379.085909005052 -2115.003516943688 L 3333.085909005053 -2115.003516943688 L 3333.085909005053 -2144.003516943703 L 3320.085909005053 -2144.003516943703" fill="none" stroke="#FFFFFF" stroke-width="1"/>
<path d="M 3243.328783349223 -2144.003516943703 L 3243.328783349209 -2640.003516943703 L 3256.328783349208 -2640.003516943703 L 3256.328783349208 -2669.003516943702 L 3302.328783349209 -2669.003516943702 L 3302.328783349209 -2640.003516943703 L 3315.328783349209 -2640.003516943703 L 3315.328783349223 -2144.003516943703 L 3302.328783349223 -2144.003516943703 L 3302.328783349223 -2115.003516943688 L 3256.328783349224 -2115.003516943688 L 3256.328783349224 -2144.003516943703 L 3243.328783349223 -2144.003516943703" fill="none" stroke="#FFFFFF" stroke-width="1"/>
<path d="M 3799.639172056896 -2702.523028400217 L 3799.639172056882 -3198.523028400217 L 3812.639172056881 -3198.523028400217 L 3812.639172056881 -3227.523028400216 L 3858.639172056881 -3227.523028400216 L 3858.639172056881 -3198.523028400217 L 3871.639172056882 -3198.523028400217 L 3871.639172056896 -2702.523028400217 L 3858.639172056895 -2702.523028400217 L 3858.639172056895 -2673.523028400202 L 3812.639172056896 -2673.523028400202 L 3812.639172056896 -2702.523028400217 L 3799.639172056896 -2702.523028400217" fill="none" stroke="#FFFFFF" stroke-width="1"/>
<path d="M 3719.934257005139 -2702.523028400217 L 3719.934257005126 -3198.523028400217 L 3732.934257005125 -3198.523028400217 L 3732.934257005125 -3227.523028400216 L 3778.934257005126 -3227.523028400216 L 3778.934257005126 -3198.523028400217 L 3791.934257005126 -3198.523028400217 L 3791.93425700514 -2702.523028400217 L 3778.93425700514 -2702.523028400217 L 3778.93425700514 -2673.523028400202 L 3732.93425700514 -2673.523028400202 L 3732.93425700514 -2702.523028400217 L 3719.934257005139 -2702.523028400217" fill="none" stroke="#FFFFFF" stroke-width="1"/>
<path d="M 3641.133553926864 -2702.523028400217 L 3641.133553926849 -3198.523028400217 L 3654.13355392685 -3198.523028400217 L 3654.13355392685 -3227.523028400216 L 3700.13355392685 -3227.523028400216 L 3700.13355392685 -3198.523028400217 L 3713.133553926849 -3198.523028400217 L 3713.133553926864 -2702.523028400217 L 3700.133553926864 -2702.523028400217 L 3700.133553926864 -2673.523028400202 L 3654.133553926864 -2673.523028400202 L 3654.133553926864 -2702.523028400217 L 3641.133553926864 -2702.523028400217" fill="none" stroke="#FFFFFF" stroke-width="1"/>
<path d="M 3564.376428271034 -2702.523028400217 L 3564.37642827102 -3198.523028400217 L 3577.37642827102 -3198.523028400217 L 3577.37642827102 -3227.523028400216 L 3623.376428271021 -3227.523028400216 L 3623.376428271021 -3198.523028400217 L 3636.376428271021 -3198.523028400217 L 3636.376428271034 -2702.523028400217 L 3623.376428271035 -2702.523028400217 L 3623.376428271035 -2673.523028400202 L 3577.376428271036 -2673.523028400202 L 3577.376428271036 -2702.523028400217 L 3564.376428271034 -2702.523028400217" fill="none" stroke="#FFFFFF" stroke-width="1"/>
<path d="M 3799.639172056896 -2144.003516943703 L 3799.639172056882 -2640.003516943703 L 3812.639172056881 -2640.003516943703 L 3812.639172056881 -2669.003516943702 L 3858.639172056881 -2669.003516943702 L 3858.639172056881 -2640.003516943703 L 3871.639172056882 -2640.003516943703 L 3871.639172056896 -2144.003516943703 L 3858.639172056895 -2144.003516943703 L 3858.639172056895 -2115.003516943688 L 3812.639172056896 -2115.003516943688 L 3812.639172056896 -2144.003516943703 L 3799.639172056896 -2144.003516943703" fill="none" stroke="#FFFFFF" stroke-width="1"/>
<path d="M 3719.934257005139 -2144.003516943703 L 3719.934257005126 -2640.003516943703 L 3732.934257005125 -2640.003516943703 L 3732.934257005125 -2669.003516943702 L 3778.934257005126 -2669.003516943702 L 3778.934257005126 -2640.003516943703 L 3791.934257005126 -2640.003516943703 L 3791.93425700514 -2144.003516943703 L 3778.93425700514 -2144.003516943703 L 3778.93425700514 -2115.003516943688 L 3732.93425700514 -2115.003516943688 L 3732.93425700514 -2144.003516943703 L 3719.934257005139 -2144.003516943703" fill="none" stroke="#FFFFFF" stroke-width="1"/>
<path d="M 3641.133553926864 -2144.003516943703 L 3641.133553926849 -2640.003516943703 L 3654.13355392685 -2640.003516943703 L 3654.13355392685 -2669.003516943702 L 3700.13355392685 -2669.003516943702 L 3700.13355392685 -2640.003516943703 L 3713.133553926849 -2640.003516943703 L 3713.133553926864 -2144.003516943703 L 3700.133553926864 -2144.003516943703 L 3700.133553926864 -2115.003516943688 L 3654.133553926864 -2115.003516943688 L 3654.133553926864 -2144.003516943703 L 3641.133553926864 -2144.003516943703" fill="none" stroke="#FFFFFF" stroke-width="1"/>
<path d="M 3564.376428271034 -2144.003516943703 L 3564.37642827102 -2640.003516943703 L 3577.37642827102 -2640.003516943703 L 3577.37642827102 -2669.003516943702 L 3623.376428271021 -2669.003516943702 L 3623.376428271021 -2640.003516943703 L 3636.376428271021 -2640.003516943703 L 3636.376428271034 -2144.003516943703 L 3623.376428271035 -2144.003516943703 L 3623.376428271035 -2115.003516943688 L 3577.376428271036 -2115.003516943688 L 3577.376428271036 -2144.003516943703 L 3564.376428271034 -2144.003516943703" fill="none" stroke="#FFFFFF" stroke-width="1"/>
<path d="M 3478.591527135086 -1579.410664116977 L 3478.59152713507 -2075.410664116978 L 3491.59152713507 -2075.410664116978 L 3491.59152713507 -2104.410664116977 L 3537.59152713507 -2104.410664116977 L 3537.59152713507 -2075.410664116978 L 3550.59152713507 -2075.410664116978 L 3550.591527135085 -1579.410664116977 L 3537.591527135084 -1579.410664116977 L 3537.591527135084 -1550.410664116963 L 3491.591527135084 -1550.410664116963 L 3491.591527135084 -1579.410664116977 L 3478.591527135086 -1579.410664116977" fill="none" stroke="#FFFFFF" stroke-width="1"/>
<path d="M 3398.886612083328 -1579.410664116977 L 3398.886612083315 -2075.410664116978 L 3411.886612083314 -2075.410664116978 L 3411.886612083314 -2104.410664116977 L 3457.886612083314 -2104.410664116977 L 3457.886612083314 -2075.410664116978 L 3470.886612083314 -2075.410664116978 L 3470.886612083329 -1579.410664116977 L 3457.886612083328 -1579.410664116977 L 3457.886612083328 -1550.410664116963 L 3411.886612083328 -1550.410664116963 L 3411.886612083328 -1579.410664116977 L 3398.886612083328 -1579.410664116977" fill="none" stroke="#FFFFFF" stroke-width="1"/>
<path d="M 3320.085909005053 -1579.410664116977 L 3320.085909005038 -2075.410664116978 L 3333.085909005038 -2075.410664116978 L 3333.085909005038 -2104.410664116977 L 3379.085909005038 -2104.410664116977 L 3379.085909005038 -2075.410664116978 L 3392.085909005038 -2075.410664116978 L 3392.085909005054 -1579.410664116977 L 3379.085909005052 -1579.410664116977 L 3379.085909005052 -1550.410664116963 L 3333.085909005053 -1550.410664116963 L 3333.085909005053 -1579.410664116977 L 3320.085909005053 -1579.410664116977" fill="none" stroke="#FFFFFF" stroke-width="1"/>
<path d="M 3243.328783349223 -1579.410664116977 L 3243.328783349209 -2075.410664116978 L 3256.328783349208 -2075.410664116978 L 3256.328783349208 -2104.410664116977 L 3302.328783349209 -2104.410664116977 L 3302.328783349209 -2075.410664116978 L 3315.328783349209 -2075.410664116978 L 3315.328783349223 -1579.410664116977 L 3302.328783349223 -1579.410664116977 L 3302.328783349223 -1550.410664116963 L 3256.328783349224 -1550.410664116963 L 3256.328783349224 -1579.410664116977 L 3243.328783349223 -1579.410664116977" fill="none" stroke="#FFFFFF" stroke-width="1"/>
<path d="M 3799.639172056896 -1579.410664116977 L 3799.639172056882 -2075.410664116978 L 3812.639172056881 -2075.410664116978 L 3812.639172056881 -2104.410664116977 L 3858.639172056881 -2104.410664116977 L 3858.639172056881 -2075.410664116978 L 3871.639172056882 -2075.410664116978 L 3871.639172056896 -1579.410664116977 L 3858.639172056895 -1579.410664116977 L 3858.639172056895 -1550.410664116963 L 3812.639172056896 -1550.410664116963 L 3812.639172056896 -1579.410664116977 L 3799.639172056896 -1579.410664116977" fill="none" stroke="#FFFFFF" stroke-width="1"/>
<path d="M 3719.934257005139 -1579.410664116977 L 3719.934257005126 -2075.410664116978 L 3732.934257005125 -2075.410664116978 L 3732.934257005125 -2104.410664116977 L 3778.934257005126 -2104.410664116977 L 3778.934257005126 -2075.410664116978 L 3791.934257005126 -2075.410664116978 L 3791.93425700514 -1579.410664116977 L 3778.93425700514 -1579.410664116977 L 3778.93425700514 -1550.410664116963 L 3732.93425700514 -1550.410664116963 L 3732.93425700514 -1579.410664116977 L 3719.934257005139 -1579.410664116977" fill="none" stroke="#FFFFFF" stroke-width="1"/>
<path d="M 3641.133553926864 -1579.410664116977 L 3641.133553926849 -2075.410664116978 L 3654.13355392685 -2075.410664116978 L 3654.13355392685 -2104.410664116977 L 3700.13355392685 -2104.410664116977 L 3700.13355392685 -2075.410664116978 L 3713.133553926849 -2075.410664116978 L 3713.133553926864 -1579.410664116977 L 3700.133553926864 -1579.410664116977 L 3700.133553926864 -1550.410664116963 L 3654.133553926864 -1550.410664116963 L 3654.133553926864 -1579.410664116977 L 3641.133553926864 -1579.410664116977" fill="none" stroke="#FFFFFF" stroke-width="1"/>
<path d="M 3564.376428271034 -1579.410664116977 L 3564.37642827102 -2075.410664116978 L 3577.37642827102 -2075.410664116978 L 3577.37642827102 -2104.410664116977 L 3623.376428271021 -2104.410664116977 L 3623.376428271021 -2075.410664116978 L 3636.376428271021 -2075.410664116978 L 3636.376428271034 -1579.410664116977 L 3623.376428271035 -1579.410664116977 L 3623.376428271035 -1550.410664116963 L 3577.376428271036 -1550.410664116963 L 3577.376428271036 -1579.410664116977 L 3564.376428271034 -1579.410664116977" fill="none" stroke="#FFFFFF" stroke-width="1"/>
<path d="M 3363.627337227068 -1384.774411795414 L 2723.127337227068 -1384.774411795411 L 2723.127337227068 -1397.774411795411 L 2694.127337227068 -1397.774411795411 L 2694.127337227068 -1443.77441179541 L 2723.127337227068 -1443.77441179541 L 2723.127337227068 -1456.774411795411 L 3363.627337227068 -1456.774411795414 L 3363.627337227068 -1443.774411795414 L 3392.627337227083 -1443.774411795414 L 3392.627337227083 -1397.774411795414 L 3363.627337227068 -1397.774411795414 L 3363.627337227068 -1384.774411795414" fill="none" stroke="#FFFFFF" stroke-width="1"/>
<path d="M 3363.627337227068 -1293.775169449699 L 2723.127337227068 -1293.775169449695 L 2723.127337227068 -1306.775169449695 L 2694.127337227068 -1306.775169449695 L 2694.127337227068 -1352.775169449695 L 2723.127337227068 -1352.775169449695 L 2723.127337227068 -1365.775169449695 L 3363.627337227068 -1365.775169449699 L 3363.627337227068 -1352.775169449699 L 3392.627337227083 -1352.775169449699 L 3392.627337227083 -1306.775169449699 L 3363.627337227068 -1306.775169449699 L 3363.627337227068 -1293.775169449699" fill="none" stroke="#FFFFFF" stroke-width="1"/>
</svg>