0
SECTION
2
HEADER
9
$ACADVER
1
AC1014
9
$HANDSEED
5
FFFF
9
$INSBASE
10
0.0
20
0.0
30
0.0
9
$EXTMIN
10
-0.0002
20
1920.8516
30
0.0
9
$EXTMAX
10
95.8518
20
2400.0016
30
0.0
9
$LIMMIN
10
0.0
20
0.0
9
$LIMMAX
10
96
20
2401
9
$CLAYER
8
0
9
$LTSCALE
40
1.0
9
$TEXTSTYLE
7
STANDARD
0
ENDSEC
0
SECTION
2
TABLES
0
TABLE
2
VPORT
5
100
100
AcDbSymbolTable
70
0
0
ENDTAB
0
TABLE
2
LTYPE
5
101
100
AcDbSymbolTable
70
3
0
LTYPE
5
102
100
AcDbSymbolTableRecord
100
AcDbLinetypeTableRecord
2
BYBLOCK
70
0
0
LTYPE
5
103
100
AcDbSymbolTableRecord
100
AcDbLinetypeTableRecord
2
BYLAYER
70
0
0
LTYPE
5
104
100
AcDbSymbolTableRecord
100
AcDbLinetypeTableRecord
2
CONTINUOUS
70
0
3
Solid line
72
65
73
0
40
0.0
0
ENDTAB
0
TABLE
2
STYLE
5
105
100
AcDbSymbolTable
70
1
0
STYLE
5
106
100
AcDbSymbolTableRecord
100
AcDbTextStyleTableRecord
2
STANDARD
70
0
40
0.0
41
1.0
50
0.0
71
0
42
1.0
3

0
ENDTAB
0
TABLE
2
VIEW
5
107
100
AcDbSymbolTable
70
0
0
ENDTAB
0
TABLE
2
UCS
5
108
100
AcDbSymbolTable
70
0
0
ENDTAB
0
TABLE
2
APPID
5
109
100
AcDbSymbolTable
70
1
0
APPID
5
10A
100
AcDbSymbolTableRecord
100
AcDbRegAppTableRecord
2
ACAD
70
0
0
ENDTAB
0
TABLE
2
DIMSTYLE
5
10B
100
AcDbSymbolTable
70
0
0
ENDTAB
0
TABLE
2
BLOCK_RECORD
5
10C
100
AcDbSymbolTable
70
2
0
BLOCK_RECORD
5
10D
100
AcDbSymbolTableRecord
100
AcDbBlockTableRecord
2
*MODEL_SPACE
0
BLOCK_RECORD
5
10E
100
AcDbSymbolTableRecord
100
AcDbBlockTableRecord
2
*PAPER_SPACE
0
ENDTAB
0
TABLE
2
LAYER
5
10F
100
AcDbSymbolTable
70
3
0
LAYER
5
110
100
AcDbSymbolTableRecord
100
AcDbLayerTableRecord
2
0
70
0
62
7
6
CONTINUOUS
0
LAYER
5
111
100
AcDbSymbolTableRecord
100
AcDbLayerTableRecord
2
SPI_UNF-UP
70
0
62
7
6
CONTINUOUS
0
LAYER
5
112
100
AcDbSymbolTableRecord
100
AcDbLayerTableRecord
2
SPI_UNF-BL
70
0
62
7
6
CONTINUOUS
0
ENDTAB
0
ENDSEC
0
SECTION
2
BLOCKS
0
BLOCK
5
113
100
AcDbEntity
100
AcDbBlockBegin
8
0
2
*MODEL_SPACE
70
0
10
0
20
0
30
0
3
*MODEL_SPACE
1

0
ENDBLK
5
114
100
AcDbEntity
100
AcDbBlockEnd
8
0
0
BLOCK
5
115
100
AcDbEntity
100
AcDbBlockBegin
8
0
2
*PAPER_SPACE
70
0
10
0
20
0
30
0
3
*PAPER_SPACE
1

0
ENDBLK
5
116
100
AcDbEntity
100
AcDbBlockEnd
8
0
0
ENDSEC
0
SECTION
2
ENTITIES
0
LINE
5
117
100
AcDbEntity
8
SPI_UNF-BL
62
4
100
AcDbLine
10
71.0323
20
2374.0016
30
0
11
71.0323
21
1946.8516
31
0
0
LINE
5
118
100
AcDbEntity
8
SPI_UNF-BL
62
4
100
AcDbLine
10
8.6063
20
1946.8516
30
0
11
8.6063
21
2374.0016
31
0
0
LINE
5
119
100
AcDbEntity
8
SPI_UNF-BL
62
4
100
AcDbLine
10
24.8193
20
1946.8516
30
0
11
24.8193
21
2374.0016
31
0
0
LINE
5
11A
100
AcDbEntity
8
SPI_UNF-BL
62
4
100
AcDbLine
10
87.2453
20
2374.0016
30
0
11
87.2453
21
1946.8516
31
0
0
LINE
5
11B
100
AcDbEntity
8
SPI_UNF-UP
62
7
100
AcDbLine
10
2.9998
20
2374.0016
30
0
11
-0.0002
21
2371.0016
31
0
0
LINE
5
11C
100
AcDbEntity
8
SPI_UNF-UP
62
7
100
AcDbLine
10
-0.0002
20
2371.0016
30
0
11
-0.0002
21
1949.8516
31
0
0
LINE
5
11D
100
AcDbEntity
8
SPI_UNF-UP
62
7
100
AcDbLine
10
-0.0002
20
1949.8516
30
0
11
2.9998
21
1946.8516
31
0
0
LINE
5
11E
100
AcDbEntity
8
SPI_UNF-UP
62
7
100
AcDbLine
10
2.9998
20
1946.8516
30
0
11
26.8258
21
1946.8516
31
0
0
LINE
5
11F
100
AcDbEntity
8
SPI_UNF-UP
62
7
100
AcDbLine
10
26.8258
20
1946.8516
30
0
11
26.8258
21
1945.8516
31
0
0
LINE
5
120
100
AcDbEntity
8
SPI_UNF-UP
62
7
100
AcDbLine
10
26.8258
20
1945.8516
30
0
11
22.9258
21
1945.8516
31
0
0
LINE
5
121
100
AcDbEntity
8
SPI_UNF-UP
62
7
100
AcDbLine
10
22.9258
20
1945.8516
30
0
11
22.9258
21
1923.8516
31
0
0
LINE
5
122
100
AcDbEntity
8
SPI_UNF-UP
62
7
100
AcDbLine
10
22.9258
20
1923.8516
30
0
11
25.9258
21
1920.8516
31
0
0
LINE
5
123
100
AcDbEntity
8
SPI_UNF-UP
62
7
100
AcDbLine
10
25.9258
20
1920.8516
30
0
11
69.9258
21
1920.8516
31
0
0
LINE
5
124
100
AcDbEntity
8
SPI_UNF-UP
62
7
100
AcDbLine
10
69.9258
20
1920.8516
30
0
11
72.9258
21
1923.8516
31
0
0
LINE
5
125
100
AcDbEntity
8
SPI_UNF-UP
62
7
100
AcDbLine
10
72.9258
20
1923.8516
30
0
11
72.9258
21
1945.8516
31
0
0
LINE
5
126
100
AcDbEntity
8
SPI_UNF-UP
62
7
100
AcDbLine
10
72.9258
20
1945.8516
30
0
11
69.0258
21
1945.8516
31
0
0
LINE
5
127
100
AcDbEntity
8
SPI_UNF-UP
62
7
100
AcDbLine
10
69.0258
20
1945.8516
30
0
11
69.0258
21
1946.8516
31
0
0
LINE
5
128
100
AcDbEntity
8
SPI_UNF-UP
62
7
100
AcDbLine
10
69.0258
20
1946.8516
30
0
11
92.8518
21
1946.8516
31
0
0
LINE
5
129
100
AcDbEntity
8
SPI_UNF-UP
62
7
100
AcDbLine
10
92.8518
20
1946.8516
30
0
11
95.8518
21
1949.8516
31
0
0
LINE
5
12A
100
AcDbEntity
8
SPI_UNF-UP
62
7
100
AcDbLine
10
95.8518
20
1949.8516
30
0
11
95.8518
21
2371.0016
31
0
0
LINE
5
12B
100
AcDbEntity
8
SPI_UNF-UP
62
7
100
AcDbLine
10
95.8518
20
2371.0016
30
0
11
92.8518
21
2374.0016
31
0
0
LINE
5
12C
100
AcDbEntity
8
SPI_UNF-UP
62
7
100
AcDbLine
10
92.8518
20
2374.0016
30
0
11
69.0258
21
2374.0016
31
0
0
LINE
5
12D
100
AcDbEntity
8
SPI_UNF-UP
62
7
100
AcDbLine
10
69.0258
20
2374.0016
30
0
11
69.0258
21
2375.0016
31
0
0
LINE
5
12E
100
AcDbEntity
8
SPI_UNF-UP
62
7
100
AcDbLine
10
69.0258
20
2375.0016
30
0
11
72.9258
21
2375.0016
31
0
0
LINE
5
12F
100
AcDbEntity
8
SPI_UNF-UP
62
7
100
AcDbLine
10
72.9258
20
2375.0016
30
0
11
72.9258
21
2397.0016
31
0
0
LINE
5
130
100
AcDbEntity
8
SPI_UNF-UP
62
7
100
AcDbLine
10
72.9258
20
2397.0016
30
0
11
69.9258
21
2400.0016
31
0
0
LINE
5
131
100
AcDbEntity
8
SPI_UNF-UP
62
7
100
AcDbLine
10
69.9258
20
2400.0016
30
0
11
25.9258
21
2400.0016
31
0
0
LINE
5
132
100
AcDbEntity
8
SPI_UNF-UP
62
7
100
AcDbLine
10
25.9258
20
2400.0016
30
0
11
22.9258
21
2397.0016
31
0
0
LINE
5
133
100
AcDbEntity
8
SPI_UNF-UP
62
7
100
AcDbLine
10
22.9258
20
2397.0016
30
0
11
22.9258
21
2375.0016
31
0
0
LINE
5
134
100
AcDbEntity
8
SPI_UNF-UP
62
7
100
AcDbLine
10
22.9258
20
2375.0016
30
0
11
26.8258
21
2375.0016
31
0
0
LINE
5
135
100
AcDbEntity
8
SPI_UNF-UP
62
7
100
AcDbLine
10
26.8258
20
2375.0016
30
0
11
26.8258
21
2374.0016
31
0
0
LINE
5
136
100
AcDbEntity
8
SPI_UNF-UP
62
7
100
AcDbLine
10
26.8258
20
2374.0016
30
0
11
2.9998
21
2374.0016
31
0
0
ARC
5
137
100
AcDbEntity
8
SPI_UNF-UP
62
7
100
AcDbCircle
100
AcDbArc
10
35.4258
20
1931.8516
30
0
40
3.999999999999993
50
180
51
0
0
LINE
5
138
100
AcDbEntity
8
SPI_UNF-UP
62
7
100
AcDbLine
10
31.4258
20
1931.8516
30
0
11
31.4258
21
1935.8516
31
0
0
ARC
5
139
100
AcDbEntity
8
SPI_UNF-UP
62
7
100
AcDbCircle
100
AcDbArc
10
35.4258
20
1935.8516
30
0
40
4
50
0
51
179.9999999999992
0
LINE
5
13A
100
AcDbEntity
8
SPI_UNF-UP
62
7
100
AcDbLine
10
39.4258
20
1935.8516
30
0
11
39.4258
21
1931.8516
31
0
0
ARC
5
13B
100
AcDbEntity
8
SPI_UNF-UP
62
7
100
AcDbCircle
100
AcDbArc
10
60.4258
20
1931.8516
30
0
40
4
50
180
51
0
0
LINE
5
13C
100
AcDbEntity
8
SPI_UNF-UP
62
7
100
AcDbLine
10
56.4258
20
1931.8516
30
0
11
56.4258
21
1935.8516
31
0
0
ARC
5
13D
100
AcDbEntity
8
SPI_UNF-UP
62
7
100
AcDbCircle
100
AcDbArc
10
60.4258
20
1935.8516
30
0
40
4
50
0
51
179.9999999999992
0
LINE
5
13E
100
AcDbEntity
8
SPI_UNF-UP
62
7
100
AcDbLine
10
64.4258
20
1935.8516
30
0
11
64.4258
21
1931.8516
31
0
0
LINE
5
13F
100
AcDbEntity
8
SPI_UNF-UP
62
7
100
AcDbLine
10
52.1758
20
1956.1766
30
0
11
43.6758
21
1956.1766
31
0
0
LINE
5
140
100
AcDbEntity
8
SPI_UNF-UP
62
7
100
AcDbLine
10
43.6758
20
1956.1766
30
0
11
43.6758
21
1964.6766
31
0
0
LINE
5
141
100
AcDbEntity
8
SPI_UNF-UP
62
7
100
AcDbLine
10
43.6758
20
1964.6766
30
0
11
52.1758
21
1964.6766
31
0
0
LINE
5
142
100
AcDbEntity
8
SPI_UNF-UP
62
7
100
AcDbLine
10
52.1758
20
1964.6766
30
0
11
52.1758
21
1956.1766
31
0
0
LINE
5
143
100
AcDbEntity
8
SPI_UNF-UP
62
7
100
AcDbLine
10
52.1758
20
1981.1766
30
0
11
43.6758
21
1981.1766
31
0
0
LINE
5
144
100
AcDbEntity
8
SPI_UNF-UP
62
7
100
AcDbLine
10
43.6758
20
1981.1766
30
0
11
43.6758
21
1989.6766
31
0
0
LINE
5
145
100
AcDbEntity
8
SPI_UNF-UP
62
7
100
AcDbLine
10
43.6758
20
1989.6766
30
0
11
52.1758
21
1989.6766
31
0
0
LINE
5
146
100
AcDbEntity
8
SPI_UNF-UP
62
7
100
AcDbLine
10
52.1758
20
1989.6766
30
0
11
52.1758
21
1981.1766
31
0
0
LINE
5
147
100
AcDbEntity
8
SPI_UNF-UP
62
7
100
AcDbLine
10
52.1758
20
2006.1766
30
0
11
43.6758
21
2006.1766
31
0
0
LINE
5
148
100
AcDbEntity
8
SPI_UNF-UP
62
7
100
AcDbLine
10
43.6758
20
2006.1766
30
0
11
43.6758
21
2014.6766
31
0
0
LINE
5
149
100
AcDbEntity
8
SPI_UNF-UP
62
7
100
AcDbLine
10
43.6758
20
2014.6766
30
0
11
52.1758
21
2014.6766
31
0
0
LINE
5
14A
100
AcDbEntity
8
SPI_UNF-UP
62
7
100
AcDbLine
10
52.1758
20
2014.6766
30
0
11
52.1758
21
2006.1766
31
0
0
LINE
5
14B
100
AcDbEntity
8
SPI_UNF-UP
62
7
100
AcDbLine
10
52.1758
20
2031.1766
30
0
11
43.6758
21
2031.1766
31
0
0
LINE
5
14C
100
AcDbEntity
8
SPI_UNF-UP
62
7
100
AcDbLine
10
43.6758
20
2031.1766
30
0
11
43.6758
21
2039.6766
31
0
0
LINE
5
14D
100
AcDbEntity
8
SPI_UNF-UP
62
7
100
AcDbLine
10
43.6758
20
2039.6766
30
0
11
52.1758
21
2039.6766
31
0
0
LINE
5
14E
100
AcDbEntity
8
SPI_UNF-UP
62
7
100
AcDbLine
10
52.1758
20
2039.6766
30
0
11
52.1758
21
2031.1766
31
0
0
LINE
5
14F
100
AcDbEntity
8
SPI_UNF-UP
62
7
100
AcDbLine
10
52.1758
20
2056.1766
30
0
11
43.6758
21
2056.1766
31
0
0
LINE
5
150
100
AcDbEntity
8
SPI_UNF-UP
62
7
100
AcDbLine
10
43.6758
20
2056.1766
30
0
11
43.6758
21
2064.6766
31
0
0
LINE
5
151
100
AcDbEntity
8
SPI_UNF-UP
62
7
100
AcDbLine
10
43.6758
20
2064.6766
30
0
11
52.1758
21
2064.6766
31
0
0
LINE
5
152
100
AcDbEntity
8
SPI_UNF-UP
62
7
100
AcDbLine
10
52.1758
20
2064.6766
30
0
11
52.1758
21
2056.1766
31
0
0
LINE
5
153
100
AcDbEntity
8
SPI_UNF-UP
62
7
100
AcDbLine
10
52.1758
20
2081.1766
30
0
11
43.6758
21
2081.1766
31
0
0
LINE
5
154
100
AcDbEntity
8
SPI_UNF-UP
62
7
100
AcDbLine
10
43.6758
20
2081.1766
30
0
11
43.6758
21
2089.6766
31
0
0
LINE
5
155
100
AcDbEntity
8
SPI_UNF-UP
62
7
100
AcDbLine
10
43.6758
20
2089.6766
30
0
11
52.1758
21
2089.6766
31
0
0
LINE
5
156
100
AcDbEntity
8
SPI_UNF-UP
62
7
100
AcDbLine
10
52.1758
20
2089.6766
30
0
11
52.1758
21
2081.1766
31
0
0
LINE
5
157
100
AcDbEntity
8
SPI_UNF-UP
62
7
100
AcDbLine
10
52.1758
20
2106.1766
30
0
11
43.6758
21
2106.1766
31
0
0
LINE
5
158
100
AcDbEntity
8
SPI_UNF-UP
62
7
100
AcDbLine
10
43.6758
20
2106.1766
30
0
11
43.6758
21
2114.6766
31
0
0
LINE
5
159
100
AcDbEntity
8
SPI_UNF-UP
62
7
100
AcDbLine
10
43.6758
20
2114.6766
30
0
11
52.1758
21
2114.6766
31
0
0
LINE
5
15A
100
AcDbEntity
8
SPI_UNF-UP
62
7
100
AcDbLine
10
52.1758
20
2114.6766
30
0
11
52.1758
21
2106.1766
31
0
0
LINE
5
15B
100
AcDbEntity
8
SPI_UNF-UP
62
7
100
AcDbLine
10
52.1758
20
2206.1766
30
0
11
43.6758
21
2206.1766
31
0
0
LINE
5
15C
100
AcDbEntity
8
SPI_UNF-UP
62
7
100
AcDbLine
10
43.6758
20
2206.1766
30
0
11
43.6758
21
2214.6766
31
0
0
LINE
5
15D
100
AcDbEntity
8
SPI_UNF-UP
62
7
100
AcDbLine
10
43.6758
20
2214.6766
30
0
11
52.1758
21
2214.6766
31
0
0
LINE
5
15E
100
AcDbEntity
8
SPI_UNF-UP
62
7
100
AcDbLine
10
52.1758
20
2214.6766
30
0
11
52.1758
21
2206.1766
31
0
0
LINE
5
15F
100
AcDbEntity
8
SPI_UNF-UP
62
7
100
AcDbLine
10
52.1758
20
2231.1766
30
0
11
43.6758
21
2231.1766
31
0
0
LINE
5
160
100
AcDbEntity
8
SPI_UNF-UP
62
7
100
AcDbLine
10
43.6758
20
2231.1766
30
0
11
43.6758
21
2239.6766
31
0
0
LINE
5
161
100
AcDbEntity
8
SPI_UNF-UP
62
7
100
AcDbLine
10
43.6758
20
2239.6766
30
0
11
52.1758
21
2239.6766
31
0
0
LINE
5
162
100
AcDbEntity
8
SPI_UNF-UP
62
7
100
AcDbLine
10
52.1758
20
2239.6766
30
0
11
52.1758
21
2231.1766
31
0
0
LINE
5
163
100
AcDbEntity
8
SPI_UNF-UP
62
7
100
AcDbLine
10
52.1758
20
2256.1766
30
0
11
43.6758
21
2256.1766
31
0
0
LINE
5
164
100
AcDbEntity
8
SPI_UNF-UP
62
7
100
AcDbLine
10
43.6758
20
2256.1766
30
0
11
43.6758
21
2264.6766
31
0
0
LINE
5
165
100
AcDbEntity
8
SPI_UNF-UP
62
7
100
AcDbLine
10
43.6758
20
2264.6766
30
0
11
52.1758
21
2264.6766
31
0
0
LINE
5
166
100
AcDbEntity
8
SPI_UNF-UP
62
7
100
AcDbLine
10
52.1758
20
2264.6766
30
0
11
52.1758
21
2256.1766
31
0
0
LINE
5
167
100
AcDbEntity
8
SPI_UNF-UP
62
7
100
AcDbLine
10
52.1758
20
2281.1766
30
0
11
43.6758
21
2281.1766
31
0
0
LINE
5
168
100
AcDbEntity
8
SPI_UNF-UP
62
7
100
AcDbLine
10
43.6758
20
2281.1766
30
0
11
43.6758
21
2289.6766
31
0
0
LINE
5
169
100
AcDbEntity
8
SPI_UNF-UP
62
7
100
AcDbLine
10
43.6758
20
2289.6766
30
0
11
52.1758
21
2289.6766
31
0
0
LINE
5
16A
100
AcDbEntity
8
SPI_UNF-UP
62
7
100
AcDbLine
10
52.1758
20
2289.6766
30
0
11
52.1758
21
2281.1766
31
0
0
LINE
5
16B
100
AcDbEntity
8
SPI_UNF-UP
62
7
100
AcDbLine
10
52.1758
20
2131.1766
30
0
11
43.6758
21
2131.1766
31
0
0
LINE
5
16C
100
AcDbEntity
8
SPI_UNF-UP
62
7
100
AcDbLine
10
43.6758
20
2131.1766
30
0
11
43.6758
21
2139.6766
31
0
0
LINE
5
16D
100
AcDbEntity
8
SPI_UNF-UP
62
7
100
AcDbLine
10
43.6758
20
2139.6766
30
0
11
52.1758
21
2139.6766
31
0
0
LINE
5
16E
100
AcDbEntity
8
SPI_UNF-UP
62
7
100
AcDbLine
10
52.1758
20
2139.6766
30
0
11
52.1758
21
2131.1766
31
0
0
LINE
5
16F
100
AcDbEntity
8
SPI_UNF-UP
62
7
100
AcDbLine
10
52.1758
20
2356.1766
30
0
11
43.6758
21
2356.1766
31
0
0
LINE
5
170
100
AcDbEntity
8
SPI_UNF-UP
62
7
100
AcDbLine
10
43.6758
20
2356.1766
30
0
11
43.6758
21
2364.6766
31
0
0
LINE
5
171
100
AcDbEntity
8
SPI_UNF-UP
62
7
100
AcDbLine
10
43.6758
20
2364.6766
30
0
11
52.1758
21
2364.6766
31
0
0
LINE
5
172
100
AcDbEntity
8
SPI_UNF-UP
62
7
100
AcDbLine
10
52.1758
20
2364.6766
30
0
11
52.1758
21
2356.1766
31
0
0
LINE
5
173
100
AcDbEntity
8
SPI_UNF-UP
62
7
100
AcDbLine
10
52.1758
20
2331.1766
30
0
11
43.6758
21
2331.1766
31
0
0
LINE
5
174
100
AcDbEntity
8
SPI_UNF-UP
62
7
100
AcDbLine
10
43.6758
20
2331.1766
30
0
11
43.6758
21
2339.6766
31
0
0
LINE
5
175
100
AcDbEntity
8
SPI_UNF-UP
62
7
100
AcDbLine
10
43.6758
20
2339.6766
30
0
11
52.1758
21
2339.6766
31
0
0
LINE
5
176
100
AcDbEntity
8
SPI_UNF-UP
62
7
100
AcDbLine
10
52.1758
20
2339.6766
30
0
11
52.1758
21
2331.1766
31
0
0
LINE
5
177
100
AcDbEntity
8
SPI_UNF-UP
62
7
100
AcDbLine
10
52.1758
20
2306.1766
30
0
11
43.6758
21
2306.1766
31
0
0
LINE
5
178
100
AcDbEntity
8
SPI_UNF-UP
62
7
100
AcDbLine
10
43.6758
20
2306.1766
30
0
11
43.6758
21
2314.6766
31
0
0
LINE
5
179
100
AcDbEntity
8
SPI_UNF-UP
62
7
100
AcDbLine
10
43.6758
20
2314.6766
30
0
11
52.1758
21
2314.6766
31
0
0
LINE
5
17A
100
AcDbEntity
8
SPI_UNF-UP
62
7
100
AcDbLine
10
52.1758
20
2314.6766
30
0
11
52.1758
21
2306.1766
31
0
0
LINE
5
17B
100
AcDbEntity
8
SPI_UNF-UP
62
7
100
AcDbLine
10
52.1758
20
2181.1766
30
0
11
43.6758
21
2181.1766
31
0
0
LINE
5
17C
100
AcDbEntity
8
SPI_UNF-UP
62
7
100
AcDbLine
10
43.6758
20
2181.1766
30
0
11
43.6758
21
2189.6766
31
0
0
LINE
5
17D
100
AcDbEntity
8
SPI_UNF-UP
62
7
100
AcDbLine
10
43.6758
20
2189.6766
30
0
11
52.1758
21
2189.6766
31
0
0
LINE
5
17E
100
AcDbEntity
8
SPI_UNF-UP
62
7
100
AcDbLine
10
52.1758
20
2189.6766
30
0
11
52.1758
21
2181.1766
31
0
0
LINE
5
17F
100
AcDbEntity
8
SPI_UNF-UP
62
7
100
AcDbLine
10
52.1758
20
2156.1766
30
0
11
43.6758
21
2156.1766
31
0
0
LINE
5
180
100
AcDbEntity
8
SPI_UNF-UP
62
7
100
AcDbLine
10
43.6758
20
2156.1766
30
0
11
43.6758
21
2164.6766
31
0
0
LINE
5
181
100
AcDbEntity
8
SPI_UNF-UP
62
7
100
AcDbLine
10
43.6758
20
2164.6766
30
0
11
52.1758
21
2164.6766
31
0
0
LINE
5
182
100
AcDbEntity
8
SPI_UNF-UP
62
7
100
AcDbLine
10
52.1758
20
2164.6766
30
0
11
52.1758
21
2156.1766
31
0
0
LINE
5
183
100
AcDbEntity
8
SPI_UNF-UP
62
7
100
AcDbLine
10
56.4258
20
2385.0016
30
0
11
56.4258
21
2389.0016
31
0
0
ARC
5
184
100
AcDbEntity
8
SPI_UNF-UP
62
7
100
AcDbCircle
100
AcDbArc
10
60.4258
20
2389.0016
30
0
40
4
50
0
51
180
0
LINE
5
185
100
AcDbEntity
8
SPI_UNF-UP
62
7
100
AcDbLine
10
64.4258
20
2389.0016
30
0
11
64.4258
21
2385.0016
31
0
0
ARC
5
186
100
AcDbEntity
8
SPI_UNF-UP
62
7
100
AcDbCircle
100
AcDbArc
10
60.4258
20
2385.0016
30
0
40
4
50
180
51
0
0
LINE
5
187
100
AcDbEntity
8
SPI_UNF-UP
62
7
100
AcDbLine
10
31.4258
20
2385.0016
30
0
11
31.4258
21
2389.0016
31
0
0
ARC
5
188
100
AcDbEntity
8
SPI_UNF-UP
62
7
100
AcDbCircle
100
AcDbArc
10
35.4258
20
2389.0016
30
0
40
4
50
0
51
180
0
LINE
5
189
100
AcDbEntity
8
SPI_UNF-UP
62
7
100
AcDbLine
10
39.4258
20
2389.0016
30
0
11
39.4258
21
2385.0016
31
0
0
ARC
5
18A
100
AcDbEntity
8
SPI_UNF-UP
62
7
100
AcDbCircle
100
AcDbArc
10
35.4258
20
2385.0016
30
0
40
3.999999999999993
50
180
51
0
0
ENDSEC
0
SECTION
2
OBJECTS
0
DICTIONARY
5
18B
100
AcDbDictionary
281
1
3
ACAD_GROUP
350
18C
0
DICTIONARY
5
18C
330
18B
100
AcDbDictionary
281
1
0
ENDSEC
0
EOF