  0
SECTION
  2
HEADER
  9
$ACADVER
  1
AC1009
  9
$LIMMIN
 10
0.000000
 20
0.000000
  9
$LIMMAX
 10
2405.000000
 20
1205.000000
  0
ENDSEC
  0
SECTION
  2
TABLES
  0
TABLE
  2
LTYPE
 70
     4
  0
LTYPE
  2
CONTINUOUS
 70
     0
  3
Solid line
 72
     65
 73
     0
 40
0.000000
  0
LTYPE
  2
HIDDEN
 70
     0
  3
 _ _ _ _ _ _ _ _ _ _ _
 72
     65
 73
     2
 40
0.375000
 49
0.250000
 49
-0.125000
  0
LTYPE
  2
DASHED
 70
     0
  3
 ___ ___ ___ ___ ___ ___ ___ 
 72
     65
 73
     2
 40
0.750000
 49
0.500000
 49
-0.250000
  0
LTYPE
  2
CENTER
 70
     0
  3
___ _ ___ _ ___ _ ___
 72
     65
 73
     4
 40
2.000000
 49
1.250000
 49
-0.250000
 49
0.250000
 49
-0.250000
  0
LTYPE
  2
BORDER
 70
     0
  3
___ ___ . ___ ___ . ___ ___
 72
     65
 73
     6
 40
1.750000
 49
0.500000
 49
-0.250000
 49
0.500000
 49
-0.250000
 49
0.000000
 49
-0.250000
  0
LTYPE
  2
DOT
 70
     0
  3
.................
 72
     65
 73
     2
 40
0.250000
 49
0.000000
 49
-0.250000
  0
LTYPE
  2
DASHDOT
 70
     0
  3
__ . __ . __ . __
 72
     65
 73
     4
 40
1.000000
 49
0.500000
 49
-0.250000
 49
0.000000
 49
-0.250000
  0
LTYPE
  2
DIVIDE
 70
     0
  3
___ .. ___ .. ___ .. ___
 72
     65
 73
     6
 40
1.250000
 49
0.500000
 49
-0.250000
 49
0.000000
 49
-0.250000
 49
0.000000
 49
-0.250000
  0
ENDTAB
  0
TABLE
  2
LAYER
 70
     8
  0
LAYER
  2
BLACK
 70
     0
 62
     1
  6
CONTINUOUS
  0
LAYER
  2
WHITE
 70
     0
 62
     7
  6
CONTINUOUS
  0
LAYER
  2
RED
 70
     0
 62
     1
  6
CONTINUOUS
  0
LAYER
  2
YELLOW
 70
     0
 62
     2
  6
CONTINUOUS
  0
LAYER
  2
GREEN
 70
     0
 62
     3
  6
CONTINUOUS
  0
LAYER
  2
CYAN
 70
     0
 62
     4
  6
CONTINUOUS
  0
LAYER
  2
BLUE
 70
     0
 62
     5
  6
CONTINUOUS
  0
LAYER
  2
MAGENTA
 70
     0
 62
     6
  6
CONTINUOUS
  0
ENDTAB
  0
TABLE
  2
APPID
 70
     1
  0
APPID
  2
TC_BEND_DATA
 70
     0
  0
ENDTAB
  0
ENDSEC
  0
SECTION
  2
BLOCKS
  0
ENDSEC
  0
SECTION
  2
ENTITIES
  0
LINE
  8
WHITE
 10
0.000000
 20
0.000000
 30
0.000000
 11
2405.000000
 21
0.000000
 31
0.000000
  6
CONTINUOUS
  0
LINE
  8
WHITE
 10
2405.000000
 20
0.000000
 30
0.000000
 11
2405.000000
 21
1205.000000
 31
0.000000
  6
CONTINUOUS
  0
LINE
  8
WHITE
 10
2405.000000
 20
1205.000000
 30
0.000000
 11
0.000000
 21
1205.000000
 31
0.000000
  6
CONTINUOUS
  0
LINE
  8
WHITE
 10
0.000000
 20
1205.000000
 30
0.000000
 11
0.000000
 21
0.000000
 31
0.000000
  6
CONTINUOUS
  0
LINE
  8
WHITE
 10
1814.013000
 20
832.000000
 30
0.000000
 11
21.413000
 21
832.000000
 31
0.000000
  6
CONTINUOUS
  0
LINE
  8
WHITE
 10
21.413000
 20
832.000000
 30
0.000000
 11
21.413000
 21
815.900000
 31
0.000000
  6
CONTINUOUS
  0
LINE
  8
WHITE
 10
21.413000
 20
815.900000
 30
0.000000
 11
23.113000
 21
811.887000
 31
0.000000
  6
CONTINUOUS
  0
LINE
  8
WHITE
 10
23.113000
 20
811.887000
 30
0.000000
 11
19.100000
 21
815.387000
 31
0.000000
  6
CONTINUOUS
  0
LINE
  8
WHITE
 10
19.100000
 20
815.387000
 30
0.000000
 11
3.000000
 21
815.387000
 31
0.000000
  6
CONTINUOUS
  0
LINE
  8
WHITE
 10
3.000000
 20
815.387000
 30
0.000000
 11
3.000000
 21
21.187000
 31
0.000000
  6
CONTINUOUS
  0
LINE
  8
WHITE
 10
3.000000
 20
21.187000
 30
0.000000
 11
19.100000
 21
21.187000
 31
0.000000
  6
CONTINUOUS
  0
LINE
  8
WHITE
 10
19.100000
 20
21.187000
 30
0.000000
 11
23.113000
 21
24.687000
 31
0.000000
  6
CONTINUOUS
  0
LINE
  8
WHITE
 10
23.113000
 20
24.687000
 30
0.000000
 11
21.413000
 21
20.674000
 31
0.000000
  6
CONTINUOUS
  0
LINE
  8
WHITE
 10
21.413000
 20
20.674000
 30
0.000000
 11
21.413000
 21
4.574000
 31
0.000000
  6
CONTINUOUS
  0
LINE
  8
WHITE
 10
21.413000
 20
4.574000
 30
0.000000
 11
1814.013000
 21
4.574000
 31
0.000000
  6
CONTINUOUS
  0
LINE
  8
WHITE
 10
1814.013000
 20
4.574000
 30
0.000000
 11
1814.013000
 21
20.674000
 31
0.000000
  6
CONTINUOUS
  0
LINE
  8
WHITE
 10
1814.013000
 20
20.674000
 30
0.000000
 11
1812.313000
 21
24.687000
 31
0.000000
  6
CONTINUOUS
  0
LINE
  8
WHITE
 10
1812.313000
 20
24.687000
 30
0.000000
 11
1816.326000
 21
21.187000
 31
0.000000
  6
CONTINUOUS
  0
LINE
  8
WHITE
 10
1816.326000
 20
21.187000
 30
0.000000
 11
1832.426000
 21
21.187000
 31
0.000000
  6
CONTINUOUS
  0
LINE
  8
WHITE
 10
1832.426000
 20
21.187000
 30
0.000000
 11
1832.426000
 21
815.387000
 31
0.000000
  6
CONTINUOUS
  0
LINE
  8
WHITE
 10
1832.426000
 20
815.387000
 30
0.000000
 11
1816.326000
 21
815.387000
 31
0.000000
  6
CONTINUOUS
  0
LINE
  8
WHITE
 10
1816.326000
 20
815.387000
 30
0.000000
 11
1812.313000
 21
811.887000
 31
0.000000
  6
CONTINUOUS
  0
LINE
  8
WHITE
 10
1812.313000
 20
811.887000
 30
0.000000
 11
1814.013000
 21
815.900000
 31
0.000000
  6
CONTINUOUS
  0
LINE
  8
WHITE
 10
1814.013000
 20
815.900000
 30
0.000000
 11
1814.013000
 21
832.000000
 31
0.000000
  6
CONTINUOUS
  0
LINE
  8
WHITE
 10
892.713000
 20
78.037000
 30
0.000000
 11
842.213000
 21
78.037000
 31
0.000000
  6
CONTINUOUS
  0
LINE
  8
WHITE
 10
842.213000
 20
78.037000
 30
0.000000
 11
842.213000
 21
103.537000
 31
0.000000
  6
CONTINUOUS
  0
LINE
  8
WHITE
 10
842.213000
 20
103.537000
 30
0.000000
 11
892.713000
 21
103.537000
 31
0.000000
  6
CONTINUOUS
  0
LINE
  8
WHITE
 10
892.713000
 20
103.537000
 30
0.000000
 11
892.713000
 21
78.037000
 31
0.000000
  6
CONTINUOUS
  0
LINE
  8
WHITE
 10
993.213000
 20
78.037000
 30
0.000000
 11
942.713000
 21
78.037000
 31
0.000000
  6
CONTINUOUS
  0
LINE
  8
WHITE
 10
942.713000
 20
78.037000
 30
0.000000
 11
942.713000
 21
103.537000
 31
0.000000
  6
CONTINUOUS
  0
LINE
  8
WHITE
 10
942.713000
 20
103.537000
 30
0.000000
 11
993.213000
 21
103.537000
 31
0.000000
  6
CONTINUOUS
  0
LINE
  8
WHITE
 10
993.213000
 20
103.537000
 30
0.000000
 11
993.213000
 21
78.037000
 31
0.000000
  6
CONTINUOUS
  0
LINE
  8
RED
 10
130.648907
 20
797.887000
 30
0.000000
 11
130.648907
 21
790.387000
 31
0.000000
  6
CONTINUOUS
  0
LINE
  8
RED
 10
130.648907
 20
790.387000
 30
0.000000
 11
131.148907
 21
790.387000
 31
0.000000
  6
CONTINUOUS
  0
LINE
  8
RED
 10
131.148907
 20
790.387000
 30
0.000000
 11
131.148907
 21
797.887000
 31
0.000000
  6
CONTINUOUS
  0
LINE
  8
RED
 10
131.148907
 20
797.887000
 30
0.000000
 11
130.648907
 21
797.887000
 31
0.000000
  6
CONTINUOUS
  0
LINE
  8
RED
 10
165.348907
 20
790.387000
 30
0.000000
 11
165.348907
 21
797.887000
 31
0.000000
  6
CONTINUOUS
  0
LINE
  8
RED
 10
165.348907
 20
797.887000
 30
0.000000
 11
164.848907
 21
797.887000
 31
0.000000
  6
CONTINUOUS
  0
LINE
  8
RED
 10
164.848907
 20
797.887000
 30
0.000000
 11
164.848907
 21
790.387000
 31
0.000000
  6
CONTINUOUS
  0
LINE
  8
RED
 10
164.848907
 20
790.387000
 30
0.000000
 11
165.348907
 21
790.387000
 31
0.000000
  6
CONTINUOUS
  0
LINE
  8
RED
 10
900.363000
 20
797.887000
 30
0.000000
 11
900.363000
 21
790.387000
 31
0.000000
  6
CONTINUOUS
  0
LINE
  8
RED
 10
900.363000
 20
790.387000
 30
0.000000
 11
900.863000
 21
790.387000
 31
0.000000
  6
CONTINUOUS
  0
LINE
  8
RED
 10
900.863000
 20
790.387000
 30
0.000000
 11
900.863000
 21
797.887000
 31
0.000000
  6
CONTINUOUS
  0
LINE
  8
RED
 10
900.863000
 20
797.887000
 30
0.000000
 11
900.363000
 21
797.887000
 31
0.000000
  6
CONTINUOUS
  0
LINE
  8
RED
 10
935.063000
 20
790.387000
 30
0.000000
 11
935.063000
 21
797.887000
 31
0.000000
  6
CONTINUOUS
  0
LINE
  8
RED
 10
935.063000
 20
797.887000
 30
0.000000
 11
934.563000
 21
797.887000
 31
0.000000
  6
CONTINUOUS
  0
LINE
  8
RED
 10
934.563000
 20
797.887000
 30
0.000000
 11
934.563000
 21
790.387000
 31
0.000000
  6
CONTINUOUS
  0
LINE
  8
RED
 10
934.563000
 20
790.387000
 30
0.000000
 11
935.063000
 21
790.387000
 31
0.000000
  6
CONTINUOUS
  0
LINE
  8
RED
 10
1670.077093
 20
790.387000
 30
0.000000
 11
1670.577093
 21
790.387000
 31
0.000000
  6
CONTINUOUS
  0
LINE
  8
RED
 10
1670.577093
 20
790.387000
 30
0.000000
 11
1670.577093
 21
797.887000
 31
0.000000
  6
CONTINUOUS
  0
LINE
  8
RED
 10
1670.577093
 20
797.887000
 30
0.000000
 11
1670.077093
 21
797.887000
 31
0.000000
  6
CONTINUOUS
  0
LINE
  8
RED
 10
1670.077093
 20
797.887000
 30
0.000000
 11
1670.077093
 21
790.387000
 31
0.000000
  6
CONTINUOUS
  0
LINE
  8
RED
 10
1704.777093
 20
797.887000
 30
0.000000
 11
1704.277093
 21
797.887000
 31
0.000000
  6
CONTINUOUS
  0
LINE
  8
RED
 10
1704.277093
 20
797.887000
 30
0.000000
 11
1704.277093
 21
790.387000
 31
0.000000
  6
CONTINUOUS
  0
LINE
  8
RED
 10
1704.277093
 20
790.387000
 30
0.000000
 11
1704.777093
 21
790.387000
 31
0.000000
  6
CONTINUOUS
  0
LINE
  8
RED
 10
1704.777093
 20
790.387000
 30
0.000000
 11
1704.777093
 21
797.887000
 31
0.000000
  6
CONTINUOUS
  0
LINE
  8
WHITE
 10
1729.950000
 20
1018.000000
 30
0.000000
 11
72.050000
 21
1018.000000
 31
0.000000
  6
CONTINUOUS
  0
LINE
  8
WHITE
 10
72.050000
 20
1018.000000
 30
0.000000
 11
48.950000
 21
994.900000
 31
0.000000
  6
CONTINUOUS
  0
LINE
  8
WHITE
 10
48.950000
 20
994.900000
 30
0.000000
 11
47.809451
 21
993.255090
 31
0.000000
  6
CONTINUOUS
  0
LINE
  8
WHITE
 10
47.809451
 20
993.255090
 30
0.000000
 11
47.050000
 21
990.887000
 31
0.000000
  6
CONTINUOUS
  0
LINE
  8
WHITE
 10
47.050000
 20
990.887000
 30
0.000000
 11
47.050000
 21
984.787000
 31
0.000000
  6
CONTINUOUS
  0
LINE
  8
WHITE
 10
47.050000
 20
984.787000
 30
0.000000
 11
47.000000
 21
984.787000
 31
0.000000
  6
CONTINUOUS
  0
LINE
  8
WHITE
 10
47.000000
 20
984.787000
 30
0.000000
 11
47.000000
 21
967.674000
 31
0.000000
  6
CONTINUOUS
  0
LINE
  8
WHITE
 10
47.000000
 20
967.674000
 30
0.000000
 11
46.000000
 21
967.674000
 31
0.000000
  6
CONTINUOUS
  0
LINE
  8
WHITE
 10
46.000000
 20
967.674000
 30
0.000000
 11
46.000000
 21
969.574000
 31
0.000000
  6
CONTINUOUS
  0
LINE
  8
WHITE
 10
46.000000
 20
969.574000
 30
0.000000
 11
3.000000
 21
969.574000
 31
0.000000
  6
CONTINUOUS
  0
LINE
  8
WHITE
 10
3.000000
 20
969.574000
 30
0.000000
 11
3.000000
 21
918.361000
 31
0.000000
  6
CONTINUOUS
  0
LINE
  8
WHITE
 10
3.000000
 20
918.361000
 30
0.000000
 11
12.000000
 21
918.361000
 31
0.000000
  6
CONTINUOUS
  0
LINE
  8
WHITE
 10
12.000000
 20
918.361000
 30
0.000000
 11
38.000000
 21
885.361000
 31
0.000000
  6
CONTINUOUS
  0
LINE
  8
WHITE
 10
38.000000
 20
885.361000
 30
0.000000
 11
46.000000
 21
885.361000
 31
0.000000
  6
CONTINUOUS
  0
LINE
  8
WHITE
 10
46.000000
 20
885.361000
 30
0.000000
 11
46.000000
 21
887.261000
 31
0.000000
  6
CONTINUOUS
  0
LINE
  8
WHITE
 10
46.000000
 20
887.261000
 30
0.000000
 11
47.000000
 21
887.261000
 31
0.000000
  6
CONTINUOUS
  0
LINE
  8
WHITE
 10
47.000000
 20
887.261000
 30
0.000000
 11
47.000000
 21
864.048000
 31
0.000000
  6
CONTINUOUS
  0
LINE
  8
WHITE
 10
47.000000
 20
864.048000
 30
0.000000
 11
47.520781
 21
862.110352
 31
0.000000
  6
CONTINUOUS
  0
LINE
  8
WHITE
 10
47.520781
 20
862.110352
 30
0.000000
 11
48.900000
 21
860.035000
 31
0.000000
  6
CONTINUOUS
  0
LINE
  8
WHITE
 10
48.900000
 20
860.035000
 30
0.000000
 11
72.000000
 21
836.935000
 31
0.000000
  6
CONTINUOUS
  0
LINE
  8
WHITE
 10
72.000000
 20
836.935000
 30
0.000000
 11
1730.000000
 21
836.935000
 31
0.000000
  6
CONTINUOUS
  0
LINE
  8
WHITE
 10
1730.000000
 20
836.935000
 30
0.000000
 11
1753.100000
 21
860.035000
 31
0.000000
  6
CONTINUOUS
  0
LINE
  8
WHITE
 10
1753.100000
 20
860.035000
 30
0.000000
 11
1754.479219
 21
862.110352
 31
0.000000
  6
CONTINUOUS
  0
LINE
  8
WHITE
 10
1754.479219
 20
862.110352
 30
0.000000
 11
1755.000000
 21
864.048000
 31
0.000000
  6
CONTINUOUS
  0
LINE
  8
WHITE
 10
1755.000000
 20
864.048000
 30
0.000000
 11
1755.000000
 21
887.261000
 31
0.000000
  6
CONTINUOUS
  0
LINE
  8
WHITE
 10
1755.000000
 20
887.261000
 30
0.000000
 11
1756.000000
 21
887.261000
 31
0.000000
  6
CONTINUOUS
  0
LINE
  8
WHITE
 10
1756.000000
 20
887.261000
 30
0.000000
 11
1756.000000
 21
885.361000
 31
0.000000
  6
CONTINUOUS
  0
LINE
  8
WHITE
 10
1756.000000
 20
885.361000
 30
0.000000
 11
1764.000000
 21
885.361000
 31
0.000000
  6
CONTINUOUS
  0
LINE
  8
WHITE
 10
1764.000000
 20
885.361000
 30
0.000000
 11
1790.000000
 21
918.361000
 31
0.000000
  6
CONTINUOUS
  0
LINE
  8
WHITE
 10
1790.000000
 20
918.361000
 30
0.000000
 11
1799.000000
 21
918.361000
 31
0.000000
  6
CONTINUOUS
  0
LINE
  8
WHITE
 10
1799.000000
 20
918.361000
 30
0.000000
 11
1799.000000
 21
969.574000
 31
0.000000
  6
CONTINUOUS
  0
LINE
  8
WHITE
 10
1799.000000
 20
969.574000
 30
0.000000
 11
1756.000000
 21
969.574000
 31
0.000000
  6
CONTINUOUS
  0
LINE
  8
WHITE
 10
1756.000000
 20
969.574000
 30
0.000000
 11
1756.000000
 21
967.674000
 31
0.000000
  6
CONTINUOUS
  0
LINE
  8
WHITE
 10
1756.000000
 20
967.674000
 30
0.000000
 11
1755.000000
 21
967.674000
 31
0.000000
  6
CONTINUOUS
  0
LINE
  8
WHITE
 10
1755.000000
 20
967.674000
 30
0.000000
 11
1755.000000
 21
984.787000
 31
0.000000
  6
CONTINUOUS
  0
LINE
  8
WHITE
 10
1755.000000
 20
984.787000
 30
0.000000
 11
1754.950000
 21
984.787000
 31
0.000000
  6
CONTINUOUS
  0
LINE
  8
WHITE
 10
1754.950000
 20
984.787000
 30
0.000000
 11
1754.950000
 21
990.887000
 31
0.000000
  6
CONTINUOUS
  0
LINE
  8
WHITE
 10
1754.950000
 20
990.887000
 30
0.000000
 11
1754.190549
 21
993.255090
 31
0.000000
  6
CONTINUOUS
  0
LINE
  8
WHITE
 10
1754.190549
 20
993.255090
 30
0.000000
 11
1753.050000
 21
994.900000
 31
0.000000
  6
CONTINUOUS
  0
LINE
  8
WHITE
 10
1753.050000
 20
994.900000
 30
0.000000
 11
1729.950000
 21
1018.000000
 31
0.000000
  6
CONTINUOUS
  0
LINE
  8
WHITE
 10
94.500000
 20
843.435000
 30
0.000000
 11
82.500000
 21
843.435000
 31
0.000000
  6
CONTINUOUS
  0
LINE
  8
WHITE
 10
82.500000
 20
843.435000
 30
0.000000
 11
82.500000
 21
851.435000
 31
0.000000
  6
CONTINUOUS
  0
LINE
  8
WHITE
 10
82.500000
 20
851.435000
 30
0.000000
 11
94.500000
 21
851.435000
 31
0.000000
  6
CONTINUOUS
  0
LINE
  8
WHITE
 10
94.500000
 20
851.435000
 30
0.000000
 11
94.500000
 21
843.435000
 31
0.000000
  6
CONTINUOUS
  0
LINE
  8
WHITE
 10
94.500000
 20
1011.500000
 30
0.000000
 11
94.500000
 21
1003.500000
 31
0.000000
  6
CONTINUOUS
  0
LINE
  8
WHITE
 10
94.500000
 20
1003.500000
 30
0.000000
 11
82.500000
 21
1003.500000
 31
0.000000
  6
CONTINUOUS
  0
LINE
  8
WHITE
 10
82.500000
 20
1003.500000
 30
0.000000
 11
82.500000
 21
1011.500000
 31
0.000000
  6
CONTINUOUS
  0
LINE
  8
WHITE
 10
82.500000
 20
1011.500000
 30
0.000000
 11
94.500000
 21
1011.500000
 31
0.000000
  6
CONTINUOUS
  0
LINE
  8
WHITE
 10
119.500000
 20
843.435000
 30
0.000000
 11
107.500000
 21
843.435000
 31
0.000000
  6
CONTINUOUS
  0
LINE
  8
WHITE
 10
107.500000
 20
843.435000
 30
0.000000
 11
107.500000
 21
851.435000
 31
0.000000
  6
CONTINUOUS
  0
LINE
  8
WHITE
 10
107.500000
 20
851.435000
 30
0.000000
 11
119.500000
 21
851.435000
 31
0.000000
  6
CONTINUOUS
  0
LINE
  8
WHITE
 10
119.500000
 20
851.435000
 30
0.000000
 11
119.500000
 21
843.435000
 31
0.000000
  6
CONTINUOUS
  0
LINE
  8
WHITE
 10
119.500000
 20
1011.500000
 30
0.000000
 11
119.500000
 21
1003.500000
 31
0.000000
  6
CONTINUOUS
  0
LINE
  8
WHITE
 10
119.500000
 20
1003.500000
 30
0.000000
 11
107.500000
 21
1003.500000
 31
0.000000
  6
CONTINUOUS
  0
LINE
  8
WHITE
 10
107.500000
 20
1003.500000
 30
0.000000
 11
107.500000
 21
1011.500000
 31
0.000000
  6
CONTINUOUS
  0
LINE
  8
WHITE
 10
107.500000
 20
1011.500000
 30
0.000000
 11
119.500000
 21
1011.500000
 31
0.000000
  6
CONTINUOUS
  0
LINE
  8
WHITE
 10
169.500000
 20
843.435000
 30
0.000000
 11
157.500000
 21
843.435000
 31
0.000000
  6
CONTINUOUS
  0
LINE
  8
WHITE
 10
157.500000
 20
843.435000
 30
0.000000
 11
157.500000
 21
851.435000
 31
0.000000
  6
CONTINUOUS
  0
LINE
  8
WHITE
 10
157.500000
 20
851.435000
 30
0.000000
 11
169.500000
 21
851.435000
 31
0.000000
  6
CONTINUOUS
  0
LINE
  8
WHITE
 10
169.500000
 20
851.435000
 30
0.000000
 11
169.500000
 21
843.435000
 31
0.000000
  6
CONTINUOUS
  0
LINE
  8
WHITE
 10
169.500000
 20
1011.500000
 30
0.000000
 11
169.500000
 21
1003.500000
 31
0.000000
  6
CONTINUOUS
  0
LINE
  8
WHITE
 10
169.500000
 20
1003.500000
 30
0.000000
 11
157.500000
 21
1003.500000
 31
0.000000
  6
CONTINUOUS
  0
LINE
  8
WHITE
 10
157.500000
 20
1003.500000
 30
0.000000
 11
157.500000
 21
1011.500000
 31
0.000000
  6
CONTINUOUS
  0
LINE
  8
WHITE
 10
157.500000
 20
1011.500000
 30
0.000000
 11
169.500000
 21
1011.500000
 31
0.000000
  6
CONTINUOUS
  0
LINE
  8
WHITE
 10
194.500000
 20
843.435000
 30
0.000000
 11
182.500000
 21
843.435000
 31
0.000000
  6
CONTINUOUS
  0
LINE
  8
WHITE
 10
182.500000
 20
843.435000
 30
0.000000
 11
182.500000
 21
851.435000
 31
0.000000
  6
CONTINUOUS
  0
LINE
  8
WHITE
 10
182.500000
 20
851.435000
 30
0.000000
 11
194.500000
 21
851.435000
 31
0.000000
  6
CONTINUOUS
  0
LINE
  8
WHITE
 10
194.500000
 20
851.435000
 30
0.000000
 11
194.500000
 21
843.435000
 31
0.000000
  6
CONTINUOUS
  0
LINE
  8
WHITE
 10
194.500000
 20
1011.500000
 30
0.000000
 11
194.500000
 21
1003.500000
 31
0.000000
  6
CONTINUOUS
  0
LINE
  8
WHITE
 10
194.500000
 20
1003.500000
 30
0.000000
 11
182.500000
 21
1003.500000
 31
0.000000
  6
CONTINUOUS
  0
LINE
  8
WHITE
 10
182.500000
 20
1003.500000
 30
0.000000
 11
182.500000
 21
1011.500000
 31
0.000000
  6
CONTINUOUS
  0
LINE
  8
WHITE
 10
182.500000
 20
1011.500000
 30
0.000000
 11
194.500000
 21
1011.500000
 31
0.000000
  6
CONTINUOUS
  0
LINE
  8
WHITE
 10
219.500000
 20
843.435000
 30
0.000000
 11
207.500000
 21
843.435000
 31
0.000000
  6
CONTINUOUS
  0
LINE
  8
WHITE
 10
207.500000
 20
843.435000
 30
0.000000
 11
207.500000
 21
851.435000
 31
0.000000
  6
CONTINUOUS
  0
LINE
  8
WHITE
 10
207.500000
 20
851.435000
 30
0.000000
 11
219.500000
 21
851.435000
 31
0.000000
  6
CONTINUOUS
  0
LINE
  8
WHITE
 10
219.500000
 20
851.435000
 30
0.000000
 11
219.500000
 21
843.435000
 31
0.000000
  6
CONTINUOUS
  0
LINE
  8
WHITE
 10
219.500000
 20
1011.500000
 30
0.000000
 11
219.500000
 21
1003.500000
 31
0.000000
  6
CONTINUOUS
  0
LINE
  8
WHITE
 10
219.500000
 20
1003.500000
 30
0.000000
 11
207.500000
 21
1003.500000
 31
0.000000
  6
CONTINUOUS
  0
LINE
  8
WHITE
 10
207.500000
 20
1003.500000
 30
0.000000
 11
207.500000
 21
1011.500000
 31
0.000000
  6
CONTINUOUS
  0
LINE
  8
WHITE
 10
207.500000
 20
1011.500000
 30
0.000000
 11
219.500000
 21
1011.500000
 31
0.000000
  6
CONTINUOUS
  0
LINE
  8
WHITE
 10
244.500000
 20
843.435000
 30
0.000000
 11
232.500000
 21
843.435000
 31
0.000000
  6
CONTINUOUS
  0
LINE
  8
WHITE
 10
232.500000
 20
843.435000
 30
0.000000
 11
232.500000
 21
851.435000
 31
0.000000
  6
CONTINUOUS
  0
LINE
  8
WHITE
 10
232.500000
 20
851.435000
 30
0.000000
 11
244.500000
 21
851.435000
 31
0.000000
  6
CONTINUOUS
  0
LINE
  8
WHITE
 10
244.500000
 20
851.435000
 30
0.000000
 11
244.500000
 21
843.435000
 31
0.000000
  6
CONTINUOUS
  0
LINE
  8
WHITE
 10
244.500000
 20
1011.500000
 30
0.000000
 11
244.500000
 21
1003.500000
 31
0.000000
  6
CONTINUOUS
  0
LINE
  8
WHITE
 10
244.500000
 20
1003.500000
 30
0.000000
 11
232.500000
 21
1003.500000
 31
0.000000
  6
CONTINUOUS
  0
LINE
  8
WHITE
 10
232.500000
 20
1003.500000
 30
0.000000
 11
232.500000
 21
1011.500000
 31
0.000000
  6
CONTINUOUS
  0
LINE
  8
WHITE
 10
232.500000
 20
1011.500000
 30
0.000000
 11
244.500000
 21
1011.500000
 31
0.000000
  6
CONTINUOUS
  0
LINE
  8
WHITE
 10
269.500000
 20
843.435000
 30
0.000000
 11
257.500000
 21
843.435000
 31
0.000000
  6
CONTINUOUS
  0
LINE
  8
WHITE
 10
257.500000
 20
843.435000
 30
0.000000
 11
257.500000
 21
851.435000
 31
0.000000
  6
CONTINUOUS
  0
LINE
  8
WHITE
 10
257.500000
 20
851.435000
 30
0.000000
 11
269.500000
 21
851.435000
 31
0.000000
  6
CONTINUOUS
  0
LINE
  8
WHITE
 10
269.500000
 20
851.435000
 30
0.000000
 11
269.500000
 21
843.435000
 31
0.000000
  6
CONTINUOUS
  0
LINE
  8
WHITE
 10
269.500000
 20
1011.500000
 30
0.000000
 11
269.500000
 21
1003.500000
 31
0.000000
  6
CONTINUOUS
  0
LINE
  8
WHITE
 10
269.500000
 20
1003.500000
 30
0.000000
 11
257.500000
 21
1003.500000
 31
0.000000
  6
CONTINUOUS
  0
LINE
  8
WHITE
 10
257.500000
 20
1003.500000
 30
0.000000
 11
257.500000
 21
1011.500000
 31
0.000000
  6
CONTINUOUS
  0
LINE
  8
WHITE
 10
257.500000
 20
1011.500000
 30
0.000000
 11
269.500000
 21
1011.500000
 31
0.000000
  6
CONTINUOUS
  0
LINE
  8
WHITE
 10
294.500000
 20
843.435000
 30
0.000000
 11
282.500000
 21
843.435000
 31
0.000000
  6
CONTINUOUS
  0
LINE
  8
WHITE
 10
282.500000
 20
843.435000
 30
0.000000
 11
282.500000
 21
851.435000
 31
0.000000
  6
CONTINUOUS
  0
LINE
  8
WHITE
 10
282.500000
 20
851.435000
 30
0.000000
 11
294.500000
 21
851.435000
 31
0.000000
  6
CONTINUOUS
  0
LINE
  8
WHITE
 10
294.500000
 20
851.435000
 30
0.000000
 11
294.500000
 21
843.435000
 31
0.000000
  6
CONTINUOUS
  0
LINE
  8
WHITE
 10
294.500000
 20
1011.500000
 30
0.000000
 11
294.500000
 21
1003.500000
 31
0.000000
  6
CONTINUOUS
  0
LINE
  8
WHITE
 10
294.500000
 20
1003.500000
 30
0.000000
 11
282.500000
 21
1003.500000
 31
0.000000
  6
CONTINUOUS
  0
LINE
  8
WHITE
 10
282.500000
 20
1003.500000
 30
0.000000
 11
282.500000
 21
1011.500000
 31
0.000000
  6
CONTINUOUS
  0
LINE
  8
WHITE
 10
282.500000
 20
1011.500000
 30
0.000000
 11
294.500000
 21
1011.500000
 31
0.000000
  6
CONTINUOUS
  0
LINE
  8
WHITE
 10
319.500000
 20
843.435000
 30
0.000000
 11
307.500000
 21
843.435000
 31
0.000000
  6
CONTINUOUS
  0
LINE
  8
WHITE
 10
307.500000
 20
843.435000
 30
0.000000
 11
307.500000
 21
851.435000
 31
0.000000
  6
CONTINUOUS
  0
LINE
  8
WHITE
 10
307.500000
 20
851.435000
 30
0.000000
 11
319.500000
 21
851.435000
 31
0.000000
  6
CONTINUOUS
  0
LINE
  8
WHITE
 10
319.500000
 20
851.435000
 30
0.000000
 11
319.500000
 21
843.435000
 31
0.000000
  6
CONTINUOUS
  0
LINE
  8
WHITE
 10
319.500000
 20
1011.500000
 30
0.000000
 11
319.500000
 21
1003.500000
 31
0.000000
  6
CONTINUOUS
  0
LINE
  8
WHITE
 10
319.500000
 20
1003.500000
 30
0.000000
 11
307.500000
 21
1003.500000
 31
0.000000
  6
CONTINUOUS
  0
LINE
  8
WHITE
 10
307.500000
 20
1003.500000
 30
0.000000
 11
307.500000
 21
1011.500000
 31
0.000000
  6
CONTINUOUS
  0
LINE
  8
WHITE
 10
307.500000
 20
1011.500000
 30
0.000000
 11
319.500000
 21
1011.500000
 31
0.000000
  6
CONTINUOUS
  0
LINE
  8
WHITE
 10
344.500000
 20
843.435000
 30
0.000000
 11
332.500000
 21
843.435000
 31
0.000000
  6
CONTINUOUS
  0
LINE
  8
WHITE
 10
332.500000
 20
843.435000
 30
0.000000
 11
332.500000
 21
851.435000
 31
0.000000
  6
CONTINUOUS
  0
LINE
  8
WHITE
 10
332.500000
 20
851.435000
 30
0.000000
 11
344.500000
 21
851.435000
 31
0.000000
  6
CONTINUOUS
  0
LINE
  8
WHITE
 10
344.500000
 20
851.435000
 30
0.000000
 11
344.500000
 21
843.435000
 31
0.000000
  6
CONTINUOUS
  0
LINE
  8
WHITE
 10
344.500000
 20
1011.500000
 30
0.000000
 11
344.500000
 21
1003.500000
 31
0.000000
  6
CONTINUOUS
  0
LINE
  8
WHITE
 10
344.500000
 20
1003.500000
 30
0.000000
 11
332.500000
 21
1003.500000
 31
0.000000
  6
CONTINUOUS
  0
LINE
  8
WHITE
 10
332.500000
 20
1003.500000
 30
0.000000
 11
332.500000
 21
1011.500000
 31
0.000000
  6
CONTINUOUS
  0
LINE
  8
WHITE
 10
332.500000
 20
1011.500000
 30
0.000000
 11
344.500000
 21
1011.500000
 31
0.000000
  6
CONTINUOUS
  0
LINE
  8
WHITE
 10
369.500000
 20
843.435000
 30
0.000000
 11
357.500000
 21
843.435000
 31
0.000000
  6
CONTINUOUS
  0
LINE
  8
WHITE
 10
357.500000
 20
843.435000
 30
0.000000
 11
357.500000
 21
851.435000
 31
0.000000
  6
CONTINUOUS
  0
LINE
  8
WHITE
 10
357.500000
 20
851.435000
 30
0.000000
 11
369.500000
 21
851.435000
 31
0.000000
  6
CONTINUOUS
  0
LINE
  8
WHITE
 10
369.500000
 20
851.435000
 30
0.000000
 11
369.500000
 21
843.435000
 31
0.000000
  6
CONTINUOUS
  0
LINE
  8
WHITE
 10
369.500000
 20
1011.500000
 30
0.000000
 11
369.500000
 21
1003.500000
 31
0.000000
  6
CONTINUOUS
  0
LINE
  8
WHITE
 10
369.500000
 20
1003.500000
 30
0.000000
 11
357.500000
 21
1003.500000
 31
0.000000
  6
CONTINUOUS
  0
LINE
  8
WHITE
 10
357.500000
 20
1003.500000
 30
0.000000
 11
357.500000
 21
1011.500000
 31
0.000000
  6
CONTINUOUS
  0
LINE
  8
WHITE
 10
357.500000
 20
1011.500000
 30
0.000000
 11
369.500000
 21
1011.500000
 31
0.000000
  6
CONTINUOUS
  0
LINE
  8
WHITE
 10
394.500000
 20
843.435000
 30
0.000000
 11
382.500000
 21
843.435000
 31
0.000000
  6
CONTINUOUS
  0
LINE
  8
WHITE
 10
382.500000
 20
843.435000
 30
0.000000
 11
382.500000
 21
851.435000
 31
0.000000
  6
CONTINUOUS
  0
LINE
  8
WHITE
 10
382.500000
 20
851.435000
 30
0.000000
 11
394.500000
 21
851.435000
 31
0.000000
  6
CONTINUOUS
  0
LINE
  8
WHITE
 10
394.500000
 20
851.435000
 30
0.000000
 11
394.500000
 21
843.435000
 31
0.000000
  6
CONTINUOUS
  0
LINE
  8
WHITE
 10
394.500000
 20
1011.500000
 30
0.000000
 11
394.500000
 21
1003.500000
 31
0.000000
  6
CONTINUOUS
  0
LINE
  8
WHITE
 10
394.500000
 20
1003.500000
 30
0.000000
 11
382.500000
 21
1003.500000
 31
0.000000
  6
CONTINUOUS
  0
LINE
  8
WHITE
 10
382.500000
 20
1003.500000
 30
0.000000
 11
382.500000
 21
1011.500000
 31
0.000000
  6
CONTINUOUS
  0
LINE
  8
WHITE
 10
382.500000
 20
1011.500000
 30
0.000000
 11
394.500000
 21
1011.500000
 31
0.000000
  6
CONTINUOUS
  0
LINE
  8
WHITE
 10
419.500000
 20
843.435000
 30
0.000000
 11
407.500000
 21
843.435000
 31
0.000000
  6
CONTINUOUS
  0
LINE
  8
WHITE
 10
407.500000
 20
843.435000
 30
0.000000
 11
407.500000
 21
851.435000
 31
0.000000
  6
CONTINUOUS
  0
LINE
  8
WHITE
 10
407.500000
 20
851.435000
 30
0.000000
 11
419.500000
 21
851.435000
 31
0.000000
  6
CONTINUOUS
  0
LINE
  8
WHITE
 10
419.500000
 20
851.435000
 30
0.000000
 11
419.500000
 21
843.435000
 31
0.000000
  6
CONTINUOUS
  0
LINE
  8
WHITE
 10
419.500000
 20
1011.500000
 30
0.000000
 11
419.500000
 21
1003.500000
 31
0.000000
  6
CONTINUOUS
  0
LINE
  8
WHITE
 10
419.500000
 20
1003.500000
 30
0.000000
 11
407.500000
 21
1003.500000
 31
0.000000
  6
CONTINUOUS
  0
LINE
  8
WHITE
 10
407.500000
 20
1003.500000
 30
0.000000
 11
407.500000
 21
1011.500000
 31
0.000000
  6
CONTINUOUS
  0
LINE
  8
WHITE
 10
407.500000
 20
1011.500000
 30
0.000000
 11
419.500000
 21
1011.500000
 31
0.000000
  6
CONTINUOUS
  0
LINE
  8
WHITE
 10
444.500000
 20
843.435000
 30
0.000000
 11
432.500000
 21
843.435000
 31
0.000000
  6
CONTINUOUS
  0
LINE
  8
WHITE
 10
432.500000
 20
843.435000
 30
0.000000
 11
432.500000
 21
851.435000
 31
0.000000
  6
CONTINUOUS
  0
LINE
  8
WHITE
 10
432.500000
 20
851.435000
 30
0.000000
 11
444.500000
 21
851.435000
 31
0.000000
  6
CONTINUOUS
  0
LINE
  8
WHITE
 10
444.500000
 20
851.435000
 30
0.000000
 11
444.500000
 21
843.435000
 31
0.000000
  6
CONTINUOUS
  0
LINE
  8
WHITE
 10
444.500000
 20
1011.500000
 30
0.000000
 11
444.500000
 21
1003.500000
 31
0.000000
  6
CONTINUOUS
  0
LINE
  8
WHITE
 10
444.500000
 20
1003.500000
 30
0.000000
 11
432.500000
 21
1003.500000
 31
0.000000
  6
CONTINUOUS
  0
LINE
  8
WHITE
 10
432.500000
 20
1003.500000
 30
0.000000
 11
432.500000
 21
1011.500000
 31
0.000000
  6
CONTINUOUS
  0
LINE
  8
WHITE
 10
432.500000
 20
1011.500000
 30
0.000000
 11
444.500000
 21
1011.500000
 31
0.000000
  6
CONTINUOUS
  0
LINE
  8
WHITE
 10
469.500000
 20
843.435000
 30
0.000000
 11
457.500000
 21
843.435000
 31
0.000000
  6
CONTINUOUS
  0
LINE
  8
WHITE
 10
457.500000
 20
843.435000
 30
0.000000
 11
457.500000
 21
851.435000
 31
0.000000
  6
CONTINUOUS
  0
LINE
  8
WHITE
 10
457.500000
 20
851.435000
 30
0.000000
 11
469.500000
 21
851.435000
 31
0.000000
  6
CONTINUOUS
  0
LINE
  8
WHITE
 10
469.500000
 20
851.435000
 30
0.000000
 11
469.500000
 21
843.435000
 31
0.000000
  6
CONTINUOUS
  0
LINE
  8
WHITE
 10
469.500000
 20
1011.500000
 30
0.000000
 11
469.500000
 21
1003.500000
 31
0.000000
  6
CONTINUOUS
  0
LINE
  8
WHITE
 10
469.500000
 20
1003.500000
 30
0.000000
 11
457.500000
 21
1003.500000
 31
0.000000
  6
CONTINUOUS
  0
LINE
  8
WHITE
 10
457.500000
 20
1003.500000
 30
0.000000
 11
457.500000
 21
1011.500000
 31
0.000000
  6
CONTINUOUS
  0
LINE
  8
WHITE
 10
457.500000
 20
1011.500000
 30
0.000000
 11
469.500000
 21
1011.500000
 31
0.000000
  6
CONTINUOUS
  0
LINE
  8
WHITE
 10
494.500000
 20
843.435000
 30
0.000000
 11
482.500000
 21
843.435000
 31
0.000000
  6
CONTINUOUS
  0
LINE
  8
WHITE
 10
482.500000
 20
843.435000
 30
0.000000
 11
482.500000
 21
851.435000
 31
0.000000
  6
CONTINUOUS
  0
LINE
  8
WHITE
 10
482.500000
 20
851.435000
 30
0.000000
 11
494.500000
 21
851.435000
 31
0.000000
  6
CONTINUOUS
  0
LINE
  8
WHITE
 10
494.500000
 20
851.435000
 30
0.000000
 11
494.500000
 21
843.435000
 31
0.000000
  6
CONTINUOUS
  0
LINE
  8
WHITE
 10
494.500000
 20
1011.500000
 30
0.000000
 11
494.500000
 21
1003.500000
 31
0.000000
  6
CONTINUOUS
  0
LINE
  8
WHITE
 10
494.500000
 20
1003.500000
 30
0.000000
 11
482.500000
 21
1003.500000
 31
0.000000
  6
CONTINUOUS
  0
LINE
  8
WHITE
 10
482.500000
 20
1003.500000
 30
0.000000
 11
482.500000
 21
1011.500000
 31
0.000000
  6
CONTINUOUS
  0
LINE
  8
WHITE
 10
482.500000
 20
1011.500000
 30
0.000000
 11
494.500000
 21
1011.500000
 31
0.000000
  6
CONTINUOUS
  0
LINE
  8
WHITE
 10
519.500000
 20
843.435000
 30
0.000000
 11
507.500000
 21
843.435000
 31
0.000000
  6
CONTINUOUS
  0
LINE
  8
WHITE
 10
507.500000
 20
843.435000
 30
0.000000
 11
507.500000
 21
851.435000
 31
0.000000
  6
CONTINUOUS
  0
LINE
  8
WHITE
 10
507.500000
 20
851.435000
 30
0.000000
 11
519.500000
 21
851.435000
 31
0.000000
  6
CONTINUOUS
  0
LINE
  8
WHITE
 10
519.500000
 20
851.435000
 30
0.000000
 11
519.500000
 21
843.435000
 31
0.000000
  6
CONTINUOUS
  0
LINE
  8
WHITE
 10
519.500000
 20
1011.500000
 30
0.000000
 11
519.500000
 21
1003.500000
 31
0.000000
  6
CONTINUOUS
  0
LINE
  8
WHITE
 10
519.500000
 20
1003.500000
 30
0.000000
 11
507.500000
 21
1003.500000
 31
0.000000
  6
CONTINUOUS
  0
LINE
  8
WHITE
 10
507.500000
 20
1003.500000
 30
0.000000
 11
507.500000
 21
1011.500000
 31
0.000000
  6
CONTINUOUS
  0
LINE
  8
WHITE
 10
507.500000
 20
1011.500000
 30
0.000000
 11
519.500000
 21
1011.500000
 31
0.000000
  6
CONTINUOUS
  0
LINE
  8
WHITE
 10
544.500000
 20
843.435000
 30
0.000000
 11
532.500000
 21
843.435000
 31
0.000000
  6
CONTINUOUS
  0
LINE
  8
WHITE
 10
532.500000
 20
843.435000
 30
0.000000
 11
532.500000
 21
851.435000
 31
0.000000
  6
CONTINUOUS
  0
LINE
  8
WHITE
 10
532.500000
 20
851.435000
 30
0.000000
 11
544.500000
 21
851.435000
 31
0.000000
  6
CONTINUOUS
  0
LINE
  8
WHITE
 10
544.500000
 20
851.435000
 30
0.000000
 11
544.500000
 21
843.435000
 31
0.000000
  6
CONTINUOUS
  0
LINE
  8
WHITE
 10
544.500000
 20
1011.500000
 30
0.000000
 11
544.500000
 21
1003.500000
 31
0.000000
  6
CONTINUOUS
  0
LINE
  8
WHITE
 10
544.500000
 20
1003.500000
 30
0.000000
 11
532.500000
 21
1003.500000
 31
0.000000
  6
CONTINUOUS
  0
LINE
  8
WHITE
 10
532.500000
 20
1003.500000
 30
0.000000
 11
532.500000
 21
1011.500000
 31
0.000000
  6
CONTINUOUS
  0
LINE
  8
WHITE
 10
532.500000
 20
1011.500000
 30
0.000000
 11
544.500000
 21
1011.500000
 31
0.000000
  6
CONTINUOUS
  0
LINE
  8
WHITE
 10
569.500000
 20
843.435000
 30
0.000000
 11
557.500000
 21
843.435000
 31
0.000000
  6
CONTINUOUS
  0
LINE
  8
WHITE
 10
557.500000
 20
843.435000
 30
0.000000
 11
557.500000
 21
851.435000
 31
0.000000
  6
CONTINUOUS
  0
LINE
  8
WHITE
 10
557.500000
 20
851.435000
 30
0.000000
 11
569.500000
 21
851.435000
 31
0.000000
  6
CONTINUOUS
  0
LINE
  8
WHITE
 10
569.500000
 20
851.435000
 30
0.000000
 11
569.500000
 21
843.435000
 31
0.000000
  6
CONTINUOUS
  0
LINE
  8
WHITE
 10
569.500000
 20
1011.500000
 30
0.000000
 11
569.500000
 21
1003.500000
 31
0.000000
  6
CONTINUOUS
  0
LINE
  8
WHITE
 10
569.500000
 20
1003.500000
 30
0.000000
 11
557.500000
 21
1003.500000
 31
0.000000
  6
CONTINUOUS
  0
LINE
  8
WHITE
 10
557.500000
 20
1003.500000
 30
0.000000
 11
557.500000
 21
1011.500000
 31
0.000000
  6
CONTINUOUS
  0
LINE
  8
WHITE
 10
557.500000
 20
1011.500000
 30
0.000000
 11
569.500000
 21
1011.500000
 31
0.000000
  6
CONTINUOUS
  0
LINE
  8
WHITE
 10
594.500000
 20
843.435000
 30
0.000000
 11
582.500000
 21
843.435000
 31
0.000000
  6
CONTINUOUS
  0
LINE
  8
WHITE
 10
582.500000
 20
843.435000
 30
0.000000
 11
582.500000
 21
851.435000
 31
0.000000
  6
CONTINUOUS
  0
LINE
  8
WHITE
 10
582.500000
 20
851.435000
 30
0.000000
 11
594.500000
 21
851.435000
 31
0.000000
  6
CONTINUOUS
  0
LINE
  8
WHITE
 10
594.500000
 20
851.435000
 30
0.000000
 11
594.500000
 21
843.435000
 31
0.000000
  6
CONTINUOUS
  0
LINE
  8
WHITE
 10
594.500000
 20
1011.500000
 30
0.000000
 11
594.500000
 21
1003.500000
 31
0.000000
  6
CONTINUOUS
  0
LINE
  8
WHITE
 10
594.500000
 20
1003.500000
 30
0.000000
 11
582.500000
 21
1003.500000
 31
0.000000
  6
CONTINUOUS
  0
LINE
  8
WHITE
 10
582.500000
 20
1003.500000
 30
0.000000
 11
582.500000
 21
1011.500000
 31
0.000000
  6
CONTINUOUS
  0
LINE
  8
WHITE
 10
582.500000
 20
1011.500000
 30
0.000000
 11
594.500000
 21
1011.500000
 31
0.000000
  6
CONTINUOUS
  0
LINE
  8
WHITE
 10
619.500000
 20
843.435000
 30
0.000000
 11
607.500000
 21
843.435000
 31
0.000000
  6
CONTINUOUS
  0
LINE
  8
WHITE
 10
607.500000
 20
843.435000
 30
0.000000
 11
607.500000
 21
851.435000
 31
0.000000
  6
CONTINUOUS
  0
LINE
  8
WHITE
 10
607.500000
 20
851.435000
 30
0.000000
 11
619.500000
 21
851.435000
 31
0.000000
  6
CONTINUOUS
  0
LINE
  8
WHITE
 10
619.500000
 20
851.435000
 30
0.000000
 11
619.500000
 21
843.435000
 31
0.000000
  6
CONTINUOUS
  0
LINE
  8
WHITE
 10
619.500000
 20
1011.500000
 30
0.000000
 11
619.500000
 21
1003.500000
 31
0.000000
  6
CONTINUOUS
  0
LINE
  8
WHITE
 10
619.500000
 20
1003.500000
 30
0.000000
 11
607.500000
 21
1003.500000
 31
0.000000
  6
CONTINUOUS
  0
LINE
  8
WHITE
 10
607.500000
 20
1003.500000
 30
0.000000
 11
607.500000
 21
1011.500000
 31
0.000000
  6
CONTINUOUS
  0
LINE
  8
WHITE
 10
607.500000
 20
1011.500000
 30
0.000000
 11
619.500000
 21
1011.500000
 31
0.000000
  6
CONTINUOUS
  0
LINE
  8
WHITE
 10
669.500000
 20
843.435000
 30
0.000000
 11
657.500000
 21
843.435000
 31
0.000000
  6
CONTINUOUS
  0
LINE
  8
WHITE
 10
657.500000
 20
843.435000
 30
0.000000
 11
657.500000
 21
851.435000
 31
0.000000
  6
CONTINUOUS
  0
LINE
  8
WHITE
 10
657.500000
 20
851.435000
 30
0.000000
 11
669.500000
 21
851.435000
 31
0.000000
  6
CONTINUOUS
  0
LINE
  8
WHITE
 10
669.500000
 20
851.435000
 30
0.000000
 11
669.500000
 21
843.435000
 31
0.000000
  6
CONTINUOUS
  0
LINE
  8
WHITE
 10
669.500000
 20
1011.500000
 30
0.000000
 11
669.500000
 21
1003.500000
 31
0.000000
  6
CONTINUOUS
  0
LINE
  8
WHITE
 10
669.500000
 20
1003.500000
 30
0.000000
 11
657.500000
 21
1003.500000
 31
0.000000
  6
CONTINUOUS
  0
LINE
  8
WHITE
 10
657.500000
 20
1003.500000
 30
0.000000
 11
657.500000
 21
1011.500000
 31
0.000000
  6
CONTINUOUS
  0
LINE
  8
WHITE
 10
657.500000
 20
1011.500000
 30
0.000000
 11
669.500000
 21
1011.500000
 31
0.000000
  6
CONTINUOUS
  0
LINE
  8
WHITE
 10
694.500000
 20
843.435000
 30
0.000000
 11
682.500000
 21
843.435000
 31
0.000000
  6
CONTINUOUS
  0
LINE
  8
WHITE
 10
682.500000
 20
843.435000
 30
0.000000
 11
682.500000
 21
851.435000
 31
0.000000
  6
CONTINUOUS
  0
LINE
  8
WHITE
 10
682.500000
 20
851.435000
 30
0.000000
 11
694.500000
 21
851.435000
 31
0.000000
  6
CONTINUOUS
  0
LINE
  8
WHITE
 10
694.500000
 20
851.435000
 30
0.000000
 11
694.500000
 21
843.435000
 31
0.000000
  6
CONTINUOUS
  0
LINE
  8
WHITE
 10
694.500000
 20
1011.500000
 30
0.000000
 11
694.500000
 21
1003.500000
 31
0.000000
  6
CONTINUOUS
  0
LINE
  8
WHITE
 10
694.500000
 20
1003.500000
 30
0.000000
 11
682.500000
 21
1003.500000
 31
0.000000
  6
CONTINUOUS
  0
LINE
  8
WHITE
 10
682.500000
 20
1003.500000
 30
0.000000
 11
682.500000
 21
1011.500000
 31
0.000000
  6
CONTINUOUS
  0
LINE
  8
WHITE
 10
682.500000
 20
1011.500000
 30
0.000000
 11
694.500000
 21
1011.500000
 31
0.000000
  6
CONTINUOUS
  0
LINE
  8
WHITE
 10
719.500000
 20
843.435000
 30
0.000000
 11
707.500000
 21
843.435000
 31
0.000000
  6
CONTINUOUS
  0
LINE
  8
WHITE
 10
707.500000
 20
843.435000
 30
0.000000
 11
707.500000
 21
851.435000
 31
0.000000
  6
CONTINUOUS
  0
LINE
  8
WHITE
 10
707.500000
 20
851.435000
 30
0.000000
 11
719.500000
 21
851.435000
 31
0.000000
  6
CONTINUOUS
  0
LINE
  8
WHITE
 10
719.500000
 20
851.435000
 30
0.000000
 11
719.500000
 21
843.435000
 31
0.000000
  6
CONTINUOUS
  0
LINE
  8
WHITE
 10
719.500000
 20
1011.500000
 30
0.000000
 11
719.500000
 21
1003.500000
 31
0.000000
  6
CONTINUOUS
  0
LINE
  8
WHITE
 10
719.500000
 20
1003.500000
 30
0.000000
 11
707.500000
 21
1003.500000
 31
0.000000
  6
CONTINUOUS
  0
LINE
  8
WHITE
 10
707.500000
 20
1003.500000
 30
0.000000
 11
707.500000
 21
1011.500000
 31
0.000000
  6
CONTINUOUS
  0
LINE
  8
WHITE
 10
707.500000
 20
1011.500000
 30
0.000000
 11
719.500000
 21
1011.500000
 31
0.000000
  6
CONTINUOUS
  0
LINE
  8
WHITE
 10
744.500000
 20
843.435000
 30
0.000000
 11
732.500000
 21
843.435000
 31
0.000000
  6
CONTINUOUS
  0
LINE
  8
WHITE
 10
732.500000
 20
843.435000
 30
0.000000
 11
732.500000
 21
851.435000
 31
0.000000
  6
CONTINUOUS
  0
LINE
  8
WHITE
 10
732.500000
 20
851.435000
 30
0.000000
 11
744.500000
 21
851.435000
 31
0.000000
  6
CONTINUOUS
  0
LINE
  8
WHITE
 10
744.500000
 20
851.435000
 30
0.000000
 11
744.500000
 21
843.435000
 31
0.000000
  6
CONTINUOUS
  0
LINE
  8
WHITE
 10
744.500000
 20
1011.500000
 30
0.000000
 11
744.500000
 21
1003.500000
 31
0.000000
  6
CONTINUOUS
  0
LINE
  8
WHITE
 10
744.500000
 20
1003.500000
 30
0.000000
 11
732.500000
 21
1003.500000
 31
0.000000
  6
CONTINUOUS
  0
LINE
  8
WHITE
 10
732.500000
 20
1003.500000
 30
0.000000
 11
732.500000
 21
1011.500000
 31
0.000000
  6
CONTINUOUS
  0
LINE
  8
WHITE
 10
732.500000
 20
1011.500000
 30
0.000000
 11
744.500000
 21
1011.500000
 31
0.000000
  6
CONTINUOUS
  0
LINE
  8
WHITE
 10
769.500000
 20
843.435000
 30
0.000000
 11
757.500000
 21
843.435000
 31
0.000000
  6
CONTINUOUS
  0
LINE
  8
WHITE
 10
757.500000
 20
843.435000
 30
0.000000
 11
757.500000
 21
851.435000
 31
0.000000
  6
CONTINUOUS
  0
LINE
  8
WHITE
 10
757.500000
 20
851.435000
 30
0.000000
 11
769.500000
 21
851.435000
 31
0.000000
  6
CONTINUOUS
  0
LINE
  8
WHITE
 10
769.500000
 20
851.435000
 30
0.000000
 11
769.500000
 21
843.435000
 31
0.000000
  6
CONTINUOUS
  0
LINE
  8
WHITE
 10
769.500000
 20
1011.500000
 30
0.000000
 11
769.500000
 21
1003.500000
 31
0.000000
  6
CONTINUOUS
  0
LINE
  8
WHITE
 10
769.500000
 20
1003.500000
 30
0.000000
 11
757.500000
 21
1003.500000
 31
0.000000
  6
CONTINUOUS
  0
LINE
  8
WHITE
 10
757.500000
 20
1003.500000
 30
0.000000
 11
757.500000
 21
1011.500000
 31
0.000000
  6
CONTINUOUS
  0
LINE
  8
WHITE
 10
757.500000
 20
1011.500000
 30
0.000000
 11
769.500000
 21
1011.500000
 31
0.000000
  6
CONTINUOUS
  0
LINE
  8
WHITE
 10
794.500000
 20
843.435000
 30
0.000000
 11
782.500000
 21
843.435000
 31
0.000000
  6
CONTINUOUS
  0
LINE
  8
WHITE
 10
782.500000
 20
843.435000
 30
0.000000
 11
782.500000
 21
851.435000
 31
0.000000
  6
CONTINUOUS
  0
LINE
  8
WHITE
 10
782.500000
 20
851.435000
 30
0.000000
 11
794.500000
 21
851.435000
 31
0.000000
  6
CONTINUOUS
  0
LINE
  8
WHITE
 10
794.500000
 20
851.435000
 30
0.000000
 11
794.500000
 21
843.435000
 31
0.000000
  6
CONTINUOUS
  0
LINE
  8
WHITE
 10
794.500000
 20
1011.500000
 30
0.000000
 11
794.500000
 21
1003.500000
 31
0.000000
  6
CONTINUOUS
  0
LINE
  8
WHITE
 10
794.500000
 20
1003.500000
 30
0.000000
 11
782.500000
 21
1003.500000
 31
0.000000
  6
CONTINUOUS
  0
LINE
  8
WHITE
 10
782.500000
 20
1003.500000
 30
0.000000
 11
782.500000
 21
1011.500000
 31
0.000000
  6
CONTINUOUS
  0
LINE
  8
WHITE
 10
782.500000
 20
1011.500000
 30
0.000000
 11
794.500000
 21
1011.500000
 31
0.000000
  6
CONTINUOUS
  0
LINE
  8
WHITE
 10
819.500000
 20
843.435000
 30
0.000000
 11
807.500000
 21
843.435000
 31
0.000000
  6
CONTINUOUS
  0
LINE
  8
WHITE
 10
807.500000
 20
843.435000
 30
0.000000
 11
807.500000
 21
851.435000
 31
0.000000
  6
CONTINUOUS
  0
LINE
  8
WHITE
 10
807.500000
 20
851.435000
 30
0.000000
 11
819.500000
 21
851.435000
 31
0.000000
  6
CONTINUOUS
  0
LINE
  8
WHITE
 10
819.500000
 20
851.435000
 30
0.000000
 11
819.500000
 21
843.435000
 31
0.000000
  6
CONTINUOUS
  0
LINE
  8
WHITE
 10
819.500000
 20
1011.500000
 30
0.000000
 11
819.500000
 21
1003.500000
 31
0.000000
  6
CONTINUOUS
  0
LINE
  8
WHITE
 10
819.500000
 20
1003.500000
 30
0.000000
 11
807.500000
 21
1003.500000
 31
0.000000
  6
CONTINUOUS
  0
LINE
  8
WHITE
 10
807.500000
 20
1003.500000
 30
0.000000
 11
807.500000
 21
1011.500000
 31
0.000000
  6
CONTINUOUS
  0
LINE
  8
WHITE
 10
807.500000
 20
1011.500000
 30
0.000000
 11
819.500000
 21
1011.500000
 31
0.000000
  6
CONTINUOUS
  0
LINE
  8
WHITE
 10
844.500000
 20
843.435000
 30
0.000000
 11
832.500000
 21
843.435000
 31
0.000000
  6
CONTINUOUS
  0
LINE
  8
WHITE
 10
832.500000
 20
843.435000
 30
0.000000
 11
832.500000
 21
851.435000
 31
0.000000
  6
CONTINUOUS
  0
LINE
  8
WHITE
 10
832.500000
 20
851.435000
 30
0.000000
 11
844.500000
 21
851.435000
 31
0.000000
  6
CONTINUOUS
  0
LINE
  8
WHITE
 10
844.500000
 20
851.435000
 30
0.000000
 11
844.500000
 21
843.435000
 31
0.000000
  6
CONTINUOUS
  0
LINE
  8
WHITE
 10
844.500000
 20
1011.500000
 30
0.000000
 11
844.500000
 21
1003.500000
 31
0.000000
  6
CONTINUOUS
  0
LINE
  8
WHITE
 10
844.500000
 20
1003.500000
 30
0.000000
 11
832.500000
 21
1003.500000
 31
0.000000
  6
CONTINUOUS
  0
LINE
  8
WHITE
 10
832.500000
 20
1003.500000
 30
0.000000
 11
832.500000
 21
1011.500000
 31
0.000000
  6
CONTINUOUS
  0
LINE
  8
WHITE
 10
832.500000
 20
1011.500000
 30
0.000000
 11
844.500000
 21
1011.500000
 31
0.000000
  6
CONTINUOUS
  0
LINE
  8
WHITE
 10
869.500000
 20
843.435000
 30
0.000000
 11
857.500000
 21
843.435000
 31
0.000000
  6
CONTINUOUS
  0
LINE
  8
WHITE
 10
857.500000
 20
843.435000
 30
0.000000
 11
857.500000
 21
851.435000
 31
0.000000
  6
CONTINUOUS
  0
LINE
  8
WHITE
 10
857.500000
 20
851.435000
 30
0.000000
 11
869.500000
 21
851.435000
 31
0.000000
  6
CONTINUOUS
  0
LINE
  8
WHITE
 10
869.500000
 20
851.435000
 30
0.000000
 11
869.500000
 21
843.435000
 31
0.000000
  6
CONTINUOUS
  0
LINE
  8
WHITE
 10
869.500000
 20
1011.500000
 30
0.000000
 11
869.500000
 21
1003.500000
 31
0.000000
  6
CONTINUOUS
  0
LINE
  8
WHITE
 10
869.500000
 20
1003.500000
 30
0.000000
 11
857.500000
 21
1003.500000
 31
0.000000
  6
CONTINUOUS
  0
LINE
  8
WHITE
 10
857.500000
 20
1003.500000
 30
0.000000
 11
857.500000
 21
1011.500000
 31
0.000000
  6
CONTINUOUS
  0
LINE
  8
WHITE
 10
857.500000
 20
1011.500000
 30
0.000000
 11
869.500000
 21
1011.500000
 31
0.000000
  6
CONTINUOUS
  0
LINE
  8
WHITE
 10
894.500000
 20
843.435000
 30
0.000000
 11
882.500000
 21
843.435000
 31
0.000000
  6
CONTINUOUS
  0
LINE
  8
WHITE
 10
882.500000
 20
843.435000
 30
0.000000
 11
882.500000
 21
851.435000
 31
0.000000
  6
CONTINUOUS
  0
LINE
  8
WHITE
 10
882.500000
 20
851.435000
 30
0.000000
 11
894.500000
 21
851.435000
 31
0.000000
  6
CONTINUOUS
  0
LINE
  8
WHITE
 10
894.500000
 20
851.435000
 30
0.000000
 11
894.500000
 21
843.435000
 31
0.000000
  6
CONTINUOUS
  0
LINE
  8
WHITE
 10
894.500000
 20
1011.500000
 30
0.000000
 11
894.500000
 21
1003.500000
 31
0.000000
  6
CONTINUOUS
  0
LINE
  8
WHITE
 10
894.500000
 20
1003.500000
 30
0.000000
 11
882.500000
 21
1003.500000
 31
0.000000
  6
CONTINUOUS
  0
LINE
  8
WHITE
 10
882.500000
 20
1003.500000
 30
0.000000
 11
882.500000
 21
1011.500000
 31
0.000000
  6
CONTINUOUS
  0
LINE
  8
WHITE
 10
882.500000
 20
1011.500000
 30
0.000000
 11
894.500000
 21
1011.500000
 31
0.000000
  6
CONTINUOUS
  0
LINE
  8
WHITE
 10
919.500000
 20
843.435000
 30
0.000000
 11
907.500000
 21
843.435000
 31
0.000000
  6
CONTINUOUS
  0
LINE
  8
WHITE
 10
907.500000
 20
843.435000
 30
0.000000
 11
907.500000
 21
851.435000
 31
0.000000
  6
CONTINUOUS
  0
LINE
  8
WHITE
 10
907.500000
 20
851.435000
 30
0.000000
 11
919.500000
 21
851.435000
 31
0.000000
  6
CONTINUOUS
  0
LINE
  8
WHITE
 10
919.500000
 20
851.435000
 30
0.000000
 11
919.500000
 21
843.435000
 31
0.000000
  6
CONTINUOUS
  0
LINE
  8
WHITE
 10
919.500000
 20
1011.500000
 30
0.000000
 11
919.500000
 21
1003.500000
 31
0.000000
  6
CONTINUOUS
  0
LINE
  8
WHITE
 10
919.500000
 20
1003.500000
 30
0.000000
 11
907.500000
 21
1003.500000
 31
0.000000
  6
CONTINUOUS
  0
LINE
  8
WHITE
 10
907.500000
 20
1003.500000
 30
0.000000
 11
907.500000
 21
1011.500000
 31
0.000000
  6
CONTINUOUS
  0
LINE
  8
WHITE
 10
907.500000
 20
1011.500000
 30
0.000000
 11
919.500000
 21
1011.500000
 31
0.000000
  6
CONTINUOUS
  0
LINE
  8
WHITE
 10
944.500000
 20
851.435000
 30
0.000000
 11
944.500000
 21
843.435000
 31
0.000000
  6
CONTINUOUS
  0
LINE
  8
WHITE
 10
944.500000
 20
843.435000
 30
0.000000
 11
932.500000
 21
843.435000
 31
0.000000
  6
CONTINUOUS
  0
LINE
  8
WHITE
 10
932.500000
 20
843.435000
 30
0.000000
 11
932.500000
 21
851.435000
 31
0.000000
  6
CONTINUOUS
  0
LINE
  8
WHITE
 10
932.500000
 20
851.435000
 30
0.000000
 11
944.500000
 21
851.435000
 31
0.000000
  6
CONTINUOUS
  0
LINE
  8
WHITE
 10
944.500000
 20
1003.500000
 30
0.000000
 11
932.500000
 21
1003.500000
 31
0.000000
  6
CONTINUOUS
  0
LINE
  8
WHITE
 10
932.500000
 20
1003.500000
 30
0.000000
 11
932.500000
 21
1011.500000
 31
0.000000
  6
CONTINUOUS
  0
LINE
  8
WHITE
 10
932.500000
 20
1011.500000
 30
0.000000
 11
944.500000
 21
1011.500000
 31
0.000000
  6
CONTINUOUS
  0
LINE
  8
WHITE
 10
944.500000
 20
1011.500000
 30
0.000000
 11
944.500000
 21
1003.500000
 31
0.000000
  6
CONTINUOUS
  0
LINE
  8
WHITE
 10
969.500000
 20
851.435000
 30
0.000000
 11
969.500000
 21
843.435000
 31
0.000000
  6
CONTINUOUS
  0
LINE
  8
WHITE
 10
969.500000
 20
843.435000
 30
0.000000
 11
957.500000
 21
843.435000
 31
0.000000
  6
CONTINUOUS
  0
LINE
  8
WHITE
 10
957.500000
 20
843.435000
 30
0.000000
 11
957.500000
 21
851.435000
 31
0.000000
  6
CONTINUOUS
  0
LINE
  8
WHITE
 10
957.500000
 20
851.435000
 30
0.000000
 11
969.500000
 21
851.435000
 31
0.000000
  6
CONTINUOUS
  0
LINE
  8
WHITE
 10
969.500000
 20
1003.500000
 30
0.000000
 11
957.500000
 21
1003.500000
 31
0.000000
  6
CONTINUOUS
  0
LINE
  8
WHITE
 10
957.500000
 20
1003.500000
 30
0.000000
 11
957.500000
 21
1011.500000
 31
0.000000
  6
CONTINUOUS
  0
LINE
  8
WHITE
 10
957.500000
 20
1011.500000
 30
0.000000
 11
969.500000
 21
1011.500000
 31
0.000000
  6
CONTINUOUS
  0
LINE
  8
WHITE
 10
969.500000
 20
1011.500000
 30
0.000000
 11
969.500000
 21
1003.500000
 31
0.000000
  6
CONTINUOUS
  0
LINE
  8
WHITE
 10
994.500000
 20
851.435000
 30
0.000000
 11
994.500000
 21
843.435000
 31
0.000000
  6
CONTINUOUS
  0
LINE
  8
WHITE
 10
994.500000
 20
843.435000
 30
0.000000
 11
982.500000
 21
843.435000
 31
0.000000
  6
CONTINUOUS
  0
LINE
  8
WHITE
 10
982.500000
 20
843.435000
 30
0.000000
 11
982.500000
 21
851.435000
 31
0.000000
  6
CONTINUOUS
  0
LINE
  8
WHITE
 10
982.500000
 20
851.435000
 30
0.000000
 11
994.500000
 21
851.435000
 31
0.000000
  6
CONTINUOUS
  0
LINE
  8
WHITE
 10
994.500000
 20
1003.500000
 30
0.000000
 11
982.500000
 21
1003.500000
 31
0.000000
  6
CONTINUOUS
  0
LINE
  8
WHITE
 10
982.500000
 20
1003.500000
 30
0.000000
 11
982.500000
 21
1011.500000
 31
0.000000
  6
CONTINUOUS
  0
LINE
  8
WHITE
 10
982.500000
 20
1011.500000
 30
0.000000
 11
994.500000
 21
1011.500000
 31
0.000000
  6
CONTINUOUS
  0
LINE
  8
WHITE
 10
994.500000
 20
1011.500000
 30
0.000000
 11
994.500000
 21
1003.500000
 31
0.000000
  6
CONTINUOUS
  0
LINE
  8
WHITE
 10
1019.500000
 20
851.435000
 30
0.000000
 11
1019.500000
 21
843.435000
 31
0.000000
  6
CONTINUOUS
  0
LINE
  8
WHITE
 10
1019.500000
 20
843.435000
 30
0.000000
 11
1007.500000
 21
843.435000
 31
0.000000
  6
CONTINUOUS
  0
LINE
  8
WHITE
 10
1007.500000
 20
843.435000
 30
0.000000
 11
1007.500000
 21
851.435000
 31
0.000000
  6
CONTINUOUS
  0
LINE
  8
WHITE
 10
1007.500000
 20
851.435000
 30
0.000000
 11
1019.500000
 21
851.435000
 31
0.000000
  6
CONTINUOUS
  0
LINE
  8
WHITE
 10
1019.500000
 20
1003.500000
 30
0.000000
 11
1007.500000
 21
1003.500000
 31
0.000000
  6
CONTINUOUS
  0
LINE
  8
WHITE
 10
1007.500000
 20
1003.500000
 30
0.000000
 11
1007.500000
 21
1011.500000
 31
0.000000
  6
CONTINUOUS
  0
LINE
  8
WHITE
 10
1007.500000
 20
1011.500000
 30
0.000000
 11
1019.500000
 21
1011.500000
 31
0.000000
  6
CONTINUOUS
  0
LINE
  8
WHITE
 10
1019.500000
 20
1011.500000
 30
0.000000
 11
1019.500000
 21
1003.500000
 31
0.000000
  6
CONTINUOUS
  0
LINE
  8
WHITE
 10
1044.500000
 20
851.435000
 30
0.000000
 11
1044.500000
 21
843.435000
 31
0.000000
  6
CONTINUOUS
  0
LINE
  8
WHITE
 10
1044.500000
 20
843.435000
 30
0.000000
 11
1032.500000
 21
843.435000
 31
0.000000
  6
CONTINUOUS
  0
LINE
  8
WHITE
 10
1032.500000
 20
843.435000
 30
0.000000
 11
1032.500000
 21
851.435000
 31
0.000000
  6
CONTINUOUS
  0
LINE
  8
WHITE
 10
1032.500000
 20
851.435000
 30
0.000000
 11
1044.500000
 21
851.435000
 31
0.000000
  6
CONTINUOUS
  0
LINE
  8
WHITE
 10
1044.500000
 20
1003.500000
 30
0.000000
 11
1032.500000
 21
1003.500000
 31
0.000000
  6
CONTINUOUS
  0
LINE
  8
WHITE
 10
1032.500000
 20
1003.500000
 30
0.000000
 11
1032.500000
 21
1011.500000
 31
0.000000
  6
CONTINUOUS
  0
LINE
  8
WHITE
 10
1032.500000
 20
1011.500000
 30
0.000000
 11
1044.500000
 21
1011.500000
 31
0.000000
  6
CONTINUOUS
  0
LINE
  8
WHITE
 10
1044.500000
 20
1011.500000
 30
0.000000
 11
1044.500000
 21
1003.500000
 31
0.000000
  6
CONTINUOUS
  0
LINE
  8
WHITE
 10
1069.500000
 20
851.435000
 30
0.000000
 11
1069.500000
 21
843.435000
 31
0.000000
  6
CONTINUOUS
  0
LINE
  8
WHITE
 10
1069.500000
 20
843.435000
 30
0.000000
 11
1057.500000
 21
843.435000
 31
0.000000
  6
CONTINUOUS
  0
LINE
  8
WHITE
 10
1057.500000
 20
843.435000
 30
0.000000
 11
1057.500000
 21
851.435000
 31
0.000000
  6
CONTINUOUS
  0
LINE
  8
WHITE
 10
1057.500000
 20
851.435000
 30
0.000000
 11
1069.500000
 21
851.435000
 31
0.000000
  6
CONTINUOUS
  0
LINE
  8
WHITE
 10
1069.500000
 20
1003.500000
 30
0.000000
 11
1057.500000
 21
1003.500000
 31
0.000000
  6
CONTINUOUS
  0
LINE
  8
WHITE
 10
1057.500000
 20
1003.500000
 30
0.000000
 11
1057.500000
 21
1011.500000
 31
0.000000
  6
CONTINUOUS
  0
LINE
  8
WHITE
 10
1057.500000
 20
1011.500000
 30
0.000000
 11
1069.500000
 21
1011.500000
 31
0.000000
  6
CONTINUOUS
  0
LINE
  8
WHITE
 10
1069.500000
 20
1011.500000
 30
0.000000
 11
1069.500000
 21
1003.500000
 31
0.000000
  6
CONTINUOUS
  0
LINE
  8
WHITE
 10
1094.500000
 20
851.435000
 30
0.000000
 11
1094.500000
 21
843.435000
 31
0.000000
  6
CONTINUOUS
  0
LINE
  8
WHITE
 10
1094.500000
 20
843.435000
 30
0.000000
 11
1082.500000
 21
843.435000
 31
0.000000
  6
CONTINUOUS
  0
LINE
  8
WHITE
 10
1082.500000
 20
843.435000
 30
0.000000
 11
1082.500000
 21
851.435000
 31
0.000000
  6
CONTINUOUS
  0
LINE
  8
WHITE
 10
1082.500000
 20
851.435000
 30
0.000000
 11
1094.500000
 21
851.435000
 31
0.000000
  6
CONTINUOUS
  0
LINE
  8
WHITE
 10
1094.500000
 20
1003.500000
 30
0.000000
 11
1082.500000
 21
1003.500000
 31
0.000000
  6
CONTINUOUS
  0
LINE
  8
WHITE
 10
1082.500000
 20
1003.500000
 30
0.000000
 11
1082.500000
 21
1011.500000
 31
0.000000
  6
CONTINUOUS
  0
LINE
  8
WHITE
 10
1082.500000
 20
1011.500000
 30
0.000000
 11
1094.500000
 21
1011.500000
 31
0.000000
  6
CONTINUOUS
  0
LINE
  8
WHITE
 10
1094.500000
 20
1011.500000
 30
0.000000
 11
1094.500000
 21
1003.500000
 31
0.000000
  6
CONTINUOUS
  0
LINE
  8
WHITE
 10
1119.500000
 20
851.435000
 30
0.000000
 11
1119.500000
 21
843.435000
 31
0.000000
  6
CONTINUOUS
  0
LINE
  8
WHITE
 10
1119.500000
 20
843.435000
 30
0.000000
 11
1107.500000
 21
843.435000
 31
0.000000
  6
CONTINUOUS
  0
LINE
  8
WHITE
 10
1107.500000
 20
843.435000
 30
0.000000
 11
1107.500000
 21
851.435000
 31
0.000000
  6
CONTINUOUS
  0
LINE
  8
WHITE
 10
1107.500000
 20
851.435000
 30
0.000000
 11
1119.500000
 21
851.435000
 31
0.000000
  6
CONTINUOUS
  0
LINE
  8
WHITE
 10
1119.500000
 20
1003.500000
 30
0.000000
 11
1107.500000
 21
1003.500000
 31
0.000000
  6
CONTINUOUS
  0
LINE
  8
WHITE
 10
1107.500000
 20
1003.500000
 30
0.000000
 11
1107.500000
 21
1011.500000
 31
0.000000
  6
CONTINUOUS
  0
LINE
  8
WHITE
 10
1107.500000
 20
1011.500000
 30
0.000000
 11
1119.500000
 21
1011.500000
 31
0.000000
  6
CONTINUOUS
  0
LINE
  8
WHITE
 10
1119.500000
 20
1011.500000
 30
0.000000
 11
1119.500000
 21
1003.500000
 31
0.000000
  6
CONTINUOUS
  0
LINE
  8
WHITE
 10
1144.500000
 20
851.435000
 30
0.000000
 11
1144.500000
 21
843.435000
 31
0.000000
  6
CONTINUOUS
  0
LINE
  8
WHITE
 10
1144.500000
 20
843.435000
 30
0.000000
 11
1132.500000
 21
843.435000
 31
0.000000
  6
CONTINUOUS
  0
LINE
  8
WHITE
 10
1132.500000
 20
843.435000
 30
0.000000
 11
1132.500000
 21
851.435000
 31
0.000000
  6
CONTINUOUS
  0
LINE
  8
WHITE
 10
1132.500000
 20
851.435000
 30
0.000000
 11
1144.500000
 21
851.435000
 31
0.000000
  6
CONTINUOUS
  0
LINE
  8
WHITE
 10
1144.500000
 20
1003.500000
 30
0.000000
 11
1132.500000
 21
1003.500000
 31
0.000000
  6
CONTINUOUS
  0
LINE
  8
WHITE
 10
1132.500000
 20
1003.500000
 30
0.000000
 11
1132.500000
 21
1011.500000
 31
0.000000
  6
CONTINUOUS
  0
LINE
  8
WHITE
 10
1132.500000
 20
1011.500000
 30
0.000000
 11
1144.500000
 21
1011.500000
 31
0.000000
  6
CONTINUOUS
  0
LINE
  8
WHITE
 10
1144.500000
 20
1011.500000
 30
0.000000
 11
1144.500000
 21
1003.500000
 31
0.000000
  6
CONTINUOUS
  0
LINE
  8
WHITE
 10
1194.500000
 20
851.435000
 30
0.000000
 11
1194.500000
 21
843.435000
 31
0.000000
  6
CONTINUOUS
  0
LINE
  8
WHITE
 10
1194.500000
 20
843.435000
 30
0.000000
 11
1182.500000
 21
843.435000
 31
0.000000
  6
CONTINUOUS
  0
LINE
  8
WHITE
 10
1182.500000
 20
843.435000
 30
0.000000
 11
1182.500000
 21
851.435000
 31
0.000000
  6
CONTINUOUS
  0
LINE
  8
WHITE
 10
1182.500000
 20
851.435000
 30
0.000000
 11
1194.500000
 21
851.435000
 31
0.000000
  6
CONTINUOUS
  0
LINE
  8
WHITE
 10
1194.500000
 20
1003.500000
 30
0.000000
 11
1182.500000
 21
1003.500000
 31
0.000000
  6
CONTINUOUS
  0
LINE
  8
WHITE
 10
1182.500000
 20
1003.500000
 30
0.000000
 11
1182.500000
 21
1011.500000
 31
0.000000
  6
CONTINUOUS
  0
LINE
  8
WHITE
 10
1182.500000
 20
1011.500000
 30
0.000000
 11
1194.500000
 21
1011.500000
 31
0.000000
  6
CONTINUOUS
  0
LINE
  8
WHITE
 10
1194.500000
 20
1011.500000
 30
0.000000
 11
1194.500000
 21
1003.500000
 31
0.000000
  6
CONTINUOUS
  0
LINE
  8
WHITE
 10
1219.500000
 20
851.435000
 30
0.000000
 11
1219.500000
 21
843.435000
 31
0.000000
  6
CONTINUOUS
  0
LINE
  8
WHITE
 10
1219.500000
 20
843.435000
 30
0.000000
 11
1207.500000
 21
843.435000
 31
0.000000
  6
CONTINUOUS
  0
LINE
  8
WHITE
 10
1207.500000
 20
843.435000
 30
0.000000
 11
1207.500000
 21
851.435000
 31
0.000000
  6
CONTINUOUS
  0
LINE
  8
WHITE
 10
1207.500000
 20
851.435000
 30
0.000000
 11
1219.500000
 21
851.435000
 31
0.000000
  6
CONTINUOUS
  0
LINE
  8
WHITE
 10
1219.500000
 20
1003.500000
 30
0.000000
 11
1207.500000
 21
1003.500000
 31
0.000000
  6
CONTINUOUS
  0
LINE
  8
WHITE
 10
1207.500000
 20
1003.500000
 30
0.000000
 11
1207.500000
 21
1011.500000
 31
0.000000
  6
CONTINUOUS
  0
LINE
  8
WHITE
 10
1207.500000
 20
1011.500000
 30
0.000000
 11
1219.500000
 21
1011.500000
 31
0.000000
  6
CONTINUOUS
  0
LINE
  8
WHITE
 10
1219.500000
 20
1011.500000
 30
0.000000
 11
1219.500000
 21
1003.500000
 31
0.000000
  6
CONTINUOUS
  0
LINE
  8
WHITE
 10
1244.500000
 20
851.435000
 30
0.000000
 11
1244.500000
 21
843.435000
 31
0.000000
  6
CONTINUOUS
  0
LINE
  8
WHITE
 10
1244.500000
 20
843.435000
 30
0.000000
 11
1232.500000
 21
843.435000
 31
0.000000
  6
CONTINUOUS
  0
LINE
  8
WHITE
 10
1232.500000
 20
843.435000
 30
0.000000
 11
1232.500000
 21
851.435000
 31
0.000000
  6
CONTINUOUS
  0
LINE
  8
WHITE
 10
1232.500000
 20
851.435000
 30
0.000000
 11
1244.500000
 21
851.435000
 31
0.000000
  6
CONTINUOUS
  0
LINE
  8
WHITE
 10
1244.500000
 20
1003.500000
 30
0.000000
 11
1232.500000
 21
1003.500000
 31
0.000000
  6
CONTINUOUS
  0
LINE
  8
WHITE
 10
1232.500000
 20
1003.500000
 30
0.000000
 11
1232.500000
 21
1011.500000
 31
0.000000
  6
CONTINUOUS
  0
LINE
  8
WHITE
 10
1232.500000
 20
1011.500000
 30
0.000000
 11
1244.500000
 21
1011.500000
 31
0.000000
  6
CONTINUOUS
  0
LINE
  8
WHITE
 10
1244.500000
 20
1011.500000
 30
0.000000
 11
1244.500000
 21
1003.500000
 31
0.000000
  6
CONTINUOUS
  0
LINE
  8
WHITE
 10
1269.500000
 20
851.435000
 30
0.000000
 11
1269.500000
 21
843.435000
 31
0.000000
  6
CONTINUOUS
  0
LINE
  8
WHITE
 10
1269.500000
 20
843.435000
 30
0.000000
 11
1257.500000
 21
843.435000
 31
0.000000
  6
CONTINUOUS
  0
LINE
  8
WHITE
 10
1257.500000
 20
843.435000
 30
0.000000
 11
1257.500000
 21
851.435000
 31
0.000000
  6
CONTINUOUS
  0
LINE
  8
WHITE
 10
1257.500000
 20
851.435000
 30
0.000000
 11
1269.500000
 21
851.435000
 31
0.000000
  6
CONTINUOUS
  0
LINE
  8
WHITE
 10
1269.500000
 20
1003.500000
 30
0.000000
 11
1257.500000
 21
1003.500000
 31
0.000000
  6
CONTINUOUS
  0
LINE
  8
WHITE
 10
1257.500000
 20
1003.500000
 30
0.000000
 11
1257.500000
 21
1011.500000
 31
0.000000
  6
CONTINUOUS
  0
LINE
  8
WHITE
 10
1257.500000
 20
1011.500000
 30
0.000000
 11
1269.500000
 21
1011.500000
 31
0.000000
  6
CONTINUOUS
  0
LINE
  8
WHITE
 10
1269.500000
 20
1011.500000
 30
0.000000
 11
1269.500000
 21
1003.500000
 31
0.000000
  6
CONTINUOUS
  0
LINE
  8
WHITE
 10
1294.500000
 20
851.435000
 30
0.000000
 11
1294.500000
 21
843.435000
 31
0.000000
  6
CONTINUOUS
  0
LINE
  8
WHITE
 10
1294.500000
 20
843.435000
 30
0.000000
 11
1282.500000
 21
843.435000
 31
0.000000
  6
CONTINUOUS
  0
LINE
  8
WHITE
 10
1282.500000
 20
843.435000
 30
0.000000
 11
1282.500000
 21
851.435000
 31
0.000000
  6
CONTINUOUS
  0
LINE
  8
WHITE
 10
1282.500000
 20
851.435000
 30
0.000000
 11
1294.500000
 21
851.435000
 31
0.000000
  6
CONTINUOUS
  0
LINE
  8
WHITE
 10
1294.500000
 20
1003.500000
 30
0.000000
 11
1282.500000
 21
1003.500000
 31
0.000000
  6
CONTINUOUS
  0
LINE
  8
WHITE
 10
1282.500000
 20
1003.500000
 30
0.000000
 11
1282.500000
 21
1011.500000
 31
0.000000
  6
CONTINUOUS
  0
LINE
  8
WHITE
 10
1282.500000
 20
1011.500000
 30
0.000000
 11
1294.500000
 21
1011.500000
 31
0.000000
  6
CONTINUOUS
  0
LINE
  8
WHITE
 10
1294.500000
 20
1011.500000
 30
0.000000
 11
1294.500000
 21
1003.500000
 31
0.000000
  6
CONTINUOUS
  0
LINE
  8
WHITE
 10
1319.500000
 20
851.435000
 30
0.000000
 11
1319.500000
 21
843.435000
 31
0.000000
  6
CONTINUOUS
  0
LINE
  8
WHITE
 10
1319.500000
 20
843.435000
 30
0.000000
 11
1307.500000
 21
843.435000
 31
0.000000
  6
CONTINUOUS
  0
LINE
  8
WHITE
 10
1307.500000
 20
843.435000
 30
0.000000
 11
1307.500000
 21
851.435000
 31
0.000000
  6
CONTINUOUS
  0
LINE
  8
WHITE
 10
1307.500000
 20
851.435000
 30
0.000000
 11
1319.500000
 21
851.435000
 31
0.000000
  6
CONTINUOUS
  0
LINE
  8
WHITE
 10
1319.500000
 20
1003.500000
 30
0.000000
 11
1307.500000
 21
1003.500000
 31
0.000000
  6
CONTINUOUS
  0
LINE
  8
WHITE
 10
1307.500000
 20
1003.500000
 30
0.000000
 11
1307.500000
 21
1011.500000
 31
0.000000
  6
CONTINUOUS
  0
LINE
  8
WHITE
 10
1307.500000
 20
1011.500000
 30
0.000000
 11
1319.500000
 21
1011.500000
 31
0.000000
  6
CONTINUOUS
  0
LINE
  8
WHITE
 10
1319.500000
 20
1011.500000
 30
0.000000
 11
1319.500000
 21
1003.500000
 31
0.000000
  6
CONTINUOUS
  0
LINE
  8
WHITE
 10
1344.500000
 20
851.435000
 30
0.000000
 11
1344.500000
 21
843.435000
 31
0.000000
  6
CONTINUOUS
  0
LINE
  8
WHITE
 10
1344.500000
 20
843.435000
 30
0.000000
 11
1332.500000
 21
843.435000
 31
0.000000
  6
CONTINUOUS
  0
LINE
  8
WHITE
 10
1332.500000
 20
843.435000
 30
0.000000
 11
1332.500000
 21
851.435000
 31
0.000000
  6
CONTINUOUS
  0
LINE
  8
WHITE
 10
1332.500000
 20
851.435000
 30
0.000000
 11
1344.500000
 21
851.435000
 31
0.000000
  6
CONTINUOUS
  0
LINE
  8
WHITE
 10
1344.500000
 20
1003.500000
 30
0.000000
 11
1332.500000
 21
1003.500000
 31
0.000000
  6
CONTINUOUS
  0
LINE
  8
WHITE
 10
1332.500000
 20
1003.500000
 30
0.000000
 11
1332.500000
 21
1011.500000
 31
0.000000
  6
CONTINUOUS
  0
LINE
  8
WHITE
 10
1332.500000
 20
1011.500000
 30
0.000000
 11
1344.500000
 21
1011.500000
 31
0.000000
  6
CONTINUOUS
  0
LINE
  8
WHITE
 10
1344.500000
 20
1011.500000
 30
0.000000
 11
1344.500000
 21
1003.500000
 31
0.000000
  6
CONTINUOUS
  0
LINE
  8
WHITE
 10
1369.500000
 20
851.435000
 30
0.000000
 11
1369.500000
 21
843.435000
 31
0.000000
  6
CONTINUOUS
  0
LINE
  8
WHITE
 10
1369.500000
 20
843.435000
 30
0.000000
 11
1357.500000
 21
843.435000
 31
0.000000
  6
CONTINUOUS
  0
LINE
  8
WHITE
 10
1357.500000
 20
843.435000
 30
0.000000
 11
1357.500000
 21
851.435000
 31
0.000000
  6
CONTINUOUS
  0
LINE
  8
WHITE
 10
1357.500000
 20
851.435000
 30
0.000000
 11
1369.500000
 21
851.435000
 31
0.000000
  6
CONTINUOUS
  0
LINE
  8
WHITE
 10
1369.500000
 20
1003.500000
 30
0.000000
 11
1357.500000
 21
1003.500000
 31
0.000000
  6
CONTINUOUS
  0
LINE
  8
WHITE
 10
1357.500000
 20
1003.500000
 30
0.000000
 11
1357.500000
 21
1011.500000
 31
0.000000
  6
CONTINUOUS
  0
LINE
  8
WHITE
 10
1357.500000
 20
1011.500000
 30
0.000000
 11
1369.500000
 21
1011.500000
 31
0.000000
  6
CONTINUOUS
  0
LINE
  8
WHITE
 10
1369.500000
 20
1011.500000
 30
0.000000
 11
1369.500000
 21
1003.500000
 31
0.000000
  6
CONTINUOUS
  0
LINE
  8
WHITE
 10
1394.500000
 20
851.435000
 30
0.000000
 11
1394.500000
 21
843.435000
 31
0.000000
  6
CONTINUOUS
  0
LINE
  8
WHITE
 10
1394.500000
 20
843.435000
 30
0.000000
 11
1382.500000
 21
843.435000
 31
0.000000
  6
CONTINUOUS
  0
LINE
  8
WHITE
 10
1382.500000
 20
843.435000
 30
0.000000
 11
1382.500000
 21
851.435000
 31
0.000000
  6
CONTINUOUS
  0
LINE
  8
WHITE
 10
1382.500000
 20
851.435000
 30
0.000000
 11
1394.500000
 21
851.435000
 31
0.000000
  6
CONTINUOUS
  0
LINE
  8
WHITE
 10
1394.500000
 20
1003.500000
 30
0.000000
 11
1382.500000
 21
1003.500000
 31
0.000000
  6
CONTINUOUS
  0
LINE
  8
WHITE
 10
1382.500000
 20
1003.500000
 30
0.000000
 11
1382.500000
 21
1011.500000
 31
0.000000
  6
CONTINUOUS
  0
LINE
  8
WHITE
 10
1382.500000
 20
1011.500000
 30
0.000000
 11
1394.500000
 21
1011.500000
 31
0.000000
  6
CONTINUOUS
  0
LINE
  8
WHITE
 10
1394.500000
 20
1011.500000
 30
0.000000
 11
1394.500000
 21
1003.500000
 31
0.000000
  6
CONTINUOUS
  0
LINE
  8
WHITE
 10
1419.500000
 20
851.435000
 30
0.000000
 11
1419.500000
 21
843.435000
 31
0.000000
  6
CONTINUOUS
  0
LINE
  8
WHITE
 10
1419.500000
 20
843.435000
 30
0.000000
 11
1407.500000
 21
843.435000
 31
0.000000
  6
CONTINUOUS
  0
LINE
  8
WHITE
 10
1407.500000
 20
843.435000
 30
0.000000
 11
1407.500000
 21
851.435000
 31
0.000000
  6
CONTINUOUS
  0
LINE
  8
WHITE
 10
1407.500000
 20
851.435000
 30
0.000000
 11
1419.500000
 21
851.435000
 31
0.000000
  6
CONTINUOUS
  0
LINE
  8
WHITE
 10
1419.500000
 20
1003.500000
 30
0.000000
 11
1407.500000
 21
1003.500000
 31
0.000000
  6
CONTINUOUS
  0
LINE
  8
WHITE
 10
1407.500000
 20
1003.500000
 30
0.000000
 11
1407.500000
 21
1011.500000
 31
0.000000
  6
CONTINUOUS
  0
LINE
  8
WHITE
 10
1407.500000
 20
1011.500000
 30
0.000000
 11
1419.500000
 21
1011.500000
 31
0.000000
  6
CONTINUOUS
  0
LINE
  8
WHITE
 10
1419.500000
 20
1011.500000
 30
0.000000
 11
1419.500000
 21
1003.500000
 31
0.000000
  6
CONTINUOUS
  0
LINE
  8
WHITE
 10
1444.500000
 20
851.435000
 30
0.000000
 11
1444.500000
 21
843.435000
 31
0.000000
  6
CONTINUOUS
  0
LINE
  8
WHITE
 10
1444.500000
 20
843.435000
 30
0.000000
 11
1432.500000
 21
843.435000
 31
0.000000
  6
CONTINUOUS
  0
LINE
  8
WHITE
 10
1432.500000
 20
843.435000
 30
0.000000
 11
1432.500000
 21
851.435000
 31
0.000000
  6
CONTINUOUS
  0
LINE
  8
WHITE
 10
1432.500000
 20
851.435000
 30
0.000000
 11
1444.500000
 21
851.435000
 31
0.000000
  6
CONTINUOUS
  0
LINE
  8
WHITE
 10
1444.500000
 20
1003.500000
 30
0.000000
 11
1432.500000
 21
1003.500000
 31
0.000000
  6
CONTINUOUS
  0
LINE
  8
WHITE
 10
1432.500000
 20
1003.500000
 30
0.000000
 11
1432.500000
 21
1011.500000
 31
0.000000
  6
CONTINUOUS
  0
LINE
  8
WHITE
 10
1432.500000
 20
1011.500000
 30
0.000000
 11
1444.500000
 21
1011.500000
 31
0.000000
  6
CONTINUOUS
  0
LINE
  8
WHITE
 10
1444.500000
 20
1011.500000
 30
0.000000
 11
1444.500000
 21
1003.500000
 31
0.000000
  6
CONTINUOUS
  0
LINE
  8
WHITE
 10
1469.500000
 20
851.435000
 30
0.000000
 11
1469.500000
 21
843.435000
 31
0.000000
  6
CONTINUOUS
  0
LINE
  8
WHITE
 10
1469.500000
 20
843.435000
 30
0.000000
 11
1457.500000
 21
843.435000
 31
0.000000
  6
CONTINUOUS
  0
LINE
  8
WHITE
 10
1457.500000
 20
843.435000
 30
0.000000
 11
1457.500000
 21
851.435000
 31
0.000000
  6
CONTINUOUS
  0
LINE
  8
WHITE
 10
1457.500000
 20
851.435000
 30
0.000000
 11
1469.500000
 21
851.435000
 31
0.000000
  6
CONTINUOUS
  0
LINE
  8
WHITE
 10
1469.500000
 20
1003.500000
 30
0.000000
 11
1457.500000
 21
1003.500000
 31
0.000000
  6
CONTINUOUS
  0
LINE
  8
WHITE
 10
1457.500000
 20
1003.500000
 30
0.000000
 11
1457.500000
 21
1011.500000
 31
0.000000
  6
CONTINUOUS
  0
LINE
  8
WHITE
 10
1457.500000
 20
1011.500000
 30
0.000000
 11
1469.500000
 21
1011.500000
 31
0.000000
  6
CONTINUOUS
  0
LINE
  8
WHITE
 10
1469.500000
 20
1011.500000
 30
0.000000
 11
1469.500000
 21
1003.500000
 31
0.000000
  6
CONTINUOUS
  0
LINE
  8
WHITE
 10
1494.500000
 20
851.435000
 30
0.000000
 11
1494.500000
 21
843.435000
 31
0.000000
  6
CONTINUOUS
  0
LINE
  8
WHITE
 10
1494.500000
 20
843.435000
 30
0.000000
 11
1482.500000
 21
843.435000
 31
0.000000
  6
CONTINUOUS
  0
LINE
  8
WHITE
 10
1482.500000
 20
843.435000
 30
0.000000
 11
1482.500000
 21
851.435000
 31
0.000000
  6
CONTINUOUS
  0
LINE
  8
WHITE
 10
1482.500000
 20
851.435000
 30
0.000000
 11
1494.500000
 21
851.435000
 31
0.000000
  6
CONTINUOUS
  0
LINE
  8
WHITE
 10
1494.500000
 20
1003.500000
 30
0.000000
 11
1482.500000
 21
1003.500000
 31
0.000000
  6
CONTINUOUS
  0
LINE
  8
WHITE
 10
1482.500000
 20
1003.500000
 30
0.000000
 11
1482.500000
 21
1011.500000
 31
0.000000
  6
CONTINUOUS
  0
LINE
  8
WHITE
 10
1482.500000
 20
1011.500000
 30
0.000000
 11
1494.500000
 21
1011.500000
 31
0.000000
  6
CONTINUOUS
  0
LINE
  8
WHITE
 10
1494.500000
 20
1011.500000
 30
0.000000
 11
1494.500000
 21
1003.500000
 31
0.000000
  6
CONTINUOUS
  0
LINE
  8
WHITE
 10
1519.500000
 20
851.435000
 30
0.000000
 11
1519.500000
 21
843.435000
 31
0.000000
  6
CONTINUOUS
  0
LINE
  8
WHITE
 10
1519.500000
 20
843.435000
 30
0.000000
 11
1507.500000
 21
843.435000
 31
0.000000
  6
CONTINUOUS
  0
LINE
  8
WHITE
 10
1507.500000
 20
843.435000
 30
0.000000
 11
1507.500000
 21
851.435000
 31
0.000000
  6
CONTINUOUS
  0
LINE
  8
WHITE
 10
1507.500000
 20
851.435000
 30
0.000000
 11
1519.500000
 21
851.435000
 31
0.000000
  6
CONTINUOUS
  0
LINE
  8
WHITE
 10
1519.500000
 20
1003.500000
 30
0.000000
 11
1507.500000
 21
1003.500000
 31
0.000000
  6
CONTINUOUS
  0
LINE
  8
WHITE
 10
1507.500000
 20
1003.500000
 30
0.000000
 11
1507.500000
 21
1011.500000
 31
0.000000
  6
CONTINUOUS
  0
LINE
  8
WHITE
 10
1507.500000
 20
1011.500000
 30
0.000000
 11
1519.500000
 21
1011.500000
 31
0.000000
  6
CONTINUOUS
  0
LINE
  8
WHITE
 10
1519.500000
 20
1011.500000
 30
0.000000
 11
1519.500000
 21
1003.500000
 31
0.000000
  6
CONTINUOUS
  0
LINE
  8
WHITE
 10
1544.500000
 20
851.435000
 30
0.000000
 11
1544.500000
 21
843.435000
 31
0.000000
  6
CONTINUOUS
  0
LINE
  8
WHITE
 10
1544.500000
 20
843.435000
 30
0.000000
 11
1532.500000
 21
843.435000
 31
0.000000
  6
CONTINUOUS
  0
LINE
  8
WHITE
 10
1532.500000
 20
843.435000
 30
0.000000
 11
1532.500000
 21
851.435000
 31
0.000000
  6
CONTINUOUS
  0
LINE
  8
WHITE
 10
1532.500000
 20
851.435000
 30
0.000000
 11
1544.500000
 21
851.435000
 31
0.000000
  6
CONTINUOUS
  0
LINE
  8
WHITE
 10
1544.500000
 20
1003.500000
 30
0.000000
 11
1532.500000
 21
1003.500000
 31
0.000000
  6
CONTINUOUS
  0
LINE
  8
WHITE
 10
1532.500000
 20
1003.500000
 30
0.000000
 11
1532.500000
 21
1011.500000
 31
0.000000
  6
CONTINUOUS
  0
LINE
  8
WHITE
 10
1532.500000
 20
1011.500000
 30
0.000000
 11
1544.500000
 21
1011.500000
 31
0.000000
  6
CONTINUOUS
  0
LINE
  8
WHITE
 10
1544.500000
 20
1011.500000
 30
0.000000
 11
1544.500000
 21
1003.500000
 31
0.000000
  6
CONTINUOUS
  0
LINE
  8
WHITE
 10
1569.500000
 20
851.435000
 30
0.000000
 11
1569.500000
 21
843.435000
 31
0.000000
  6
CONTINUOUS
  0
LINE
  8
WHITE
 10
1569.500000
 20
843.435000
 30
0.000000
 11
1557.500000
 21
843.435000
 31
0.000000
  6
CONTINUOUS
  0
LINE
  8
WHITE
 10
1557.500000
 20
843.435000
 30
0.000000
 11
1557.500000
 21
851.435000
 31
0.000000
  6
CONTINUOUS
  0
LINE
  8
WHITE
 10
1557.500000
 20
851.435000
 30
0.000000
 11
1569.500000
 21
851.435000
 31
0.000000
  6
CONTINUOUS
  0
LINE
  8
WHITE
 10
1569.500000
 20
1003.500000
 30
0.000000
 11
1557.500000
 21
1003.500000
 31
0.000000
  6
CONTINUOUS
  0
LINE
  8
WHITE
 10
1557.500000
 20
1003.500000
 30
0.000000
 11
1557.500000
 21
1011.500000
 31
0.000000
  6
CONTINUOUS
  0
LINE
  8
WHITE
 10
1557.500000
 20
1011.500000
 30
0.000000
 11
1569.500000
 21
1011.500000
 31
0.000000
  6
CONTINUOUS
  0
LINE
  8
WHITE
 10
1569.500000
 20
1011.500000
 30
0.000000
 11
1569.500000
 21
1003.500000
 31
0.000000
  6
CONTINUOUS
  0
LINE
  8
WHITE
 10
1594.500000
 20
851.435000
 30
0.000000
 11
1594.500000
 21
843.435000
 31
0.000000
  6
CONTINUOUS
  0
LINE
  8
WHITE
 10
1594.500000
 20
843.435000
 30
0.000000
 11
1582.500000
 21
843.435000
 31
0.000000
  6
CONTINUOUS
  0
LINE
  8
WHITE
 10
1582.500000
 20
843.435000
 30
0.000000
 11
1582.500000
 21
851.435000
 31
0.000000
  6
CONTINUOUS
  0
LINE
  8
WHITE
 10
1582.500000
 20
851.435000
 30
0.000000
 11
1594.500000
 21
851.435000
 31
0.000000
  6
CONTINUOUS
  0
LINE
  8
WHITE
 10
1594.500000
 20
1003.500000
 30
0.000000
 11
1582.500000
 21
1003.500000
 31
0.000000
  6
CONTINUOUS
  0
LINE
  8
WHITE
 10
1582.500000
 20
1003.500000
 30
0.000000
 11
1582.500000
 21
1011.500000
 31
0.000000
  6
CONTINUOUS
  0
LINE
  8
WHITE
 10
1582.500000
 20
1011.500000
 30
0.000000
 11
1594.500000
 21
1011.500000
 31
0.000000
  6
CONTINUOUS
  0
LINE
  8
WHITE
 10
1594.500000
 20
1011.500000
 30
0.000000
 11
1594.500000
 21
1003.500000
 31
0.000000
  6
CONTINUOUS
  0
LINE
  8
WHITE
 10
1619.500000
 20
851.435000
 30
0.000000
 11
1619.500000
 21
843.435000
 31
0.000000
  6
CONTINUOUS
  0
LINE
  8
WHITE
 10
1619.500000
 20
843.435000
 30
0.000000
 11
1607.500000
 21
843.435000
 31
0.000000
  6
CONTINUOUS
  0
LINE
  8
WHITE
 10
1607.500000
 20
843.435000
 30
0.000000
 11
1607.500000
 21
851.435000
 31
0.000000
  6
CONTINUOUS
  0
LINE
  8
WHITE
 10
1607.500000
 20
851.435000
 30
0.000000
 11
1619.500000
 21
851.435000
 31
0.000000
  6
CONTINUOUS
  0
LINE
  8
WHITE
 10
1619.500000
 20
1003.500000
 30
0.000000
 11
1607.500000
 21
1003.500000
 31
0.000000
  6
CONTINUOUS
  0
LINE
  8
WHITE
 10
1607.500000
 20
1003.500000
 30
0.000000
 11
1607.500000
 21
1011.500000
 31
0.000000
  6
CONTINUOUS
  0
LINE
  8
WHITE
 10
1607.500000
 20
1011.500000
 30
0.000000
 11
1619.500000
 21
1011.500000
 31
0.000000
  6
CONTINUOUS
  0
LINE
  8
WHITE
 10
1619.500000
 20
1011.500000
 30
0.000000
 11
1619.500000
 21
1003.500000
 31
0.000000
  6
CONTINUOUS
  0
LINE
  8
WHITE
 10
1644.500000
 20
851.435000
 30
0.000000
 11
1644.500000
 21
843.435000
 31
0.000000
  6
CONTINUOUS
  0
LINE
  8
WHITE
 10
1644.500000
 20
843.435000
 30
0.000000
 11
1632.500000
 21
843.435000
 31
0.000000
  6
CONTINUOUS
  0
LINE
  8
WHITE
 10
1632.500000
 20
843.435000
 30
0.000000
 11
1632.500000
 21
851.435000
 31
0.000000
  6
CONTINUOUS
  0
LINE
  8
WHITE
 10
1632.500000
 20
851.435000
 30
0.000000
 11
1644.500000
 21
851.435000
 31
0.000000
  6
CONTINUOUS
  0
LINE
  8
WHITE
 10
1644.500000
 20
1003.500000
 30
0.000000
 11
1632.500000
 21
1003.500000
 31
0.000000
  6
CONTINUOUS
  0
LINE
  8
WHITE
 10
1632.500000
 20
1003.500000
 30
0.000000
 11
1632.500000
 21
1011.500000
 31
0.000000
  6
CONTINUOUS
  0
LINE
  8
WHITE
 10
1632.500000
 20
1011.500000
 30
0.000000
 11
1644.500000
 21
1011.500000
 31
0.000000
  6
CONTINUOUS
  0
LINE
  8
WHITE
 10
1644.500000
 20
1011.500000
 30
0.000000
 11
1644.500000
 21
1003.500000
 31
0.000000
  6
CONTINUOUS
  0
LINE
  8
WHITE
 10
1694.500000
 20
851.435000
 30
0.000000
 11
1694.500000
 21
843.435000
 31
0.000000
  6
CONTINUOUS
  0
LINE
  8
WHITE
 10
1694.500000
 20
843.435000
 30
0.000000
 11
1682.500000
 21
843.435000
 31
0.000000
  6
CONTINUOUS
  0
LINE
  8
WHITE
 10
1682.500000
 20
843.435000
 30
0.000000
 11
1682.500000
 21
851.435000
 31
0.000000
  6
CONTINUOUS
  0
LINE
  8
WHITE
 10
1682.500000
 20
851.435000
 30
0.000000
 11
1694.500000
 21
851.435000
 31
0.000000
  6
CONTINUOUS
  0
LINE
  8
WHITE
 10
1694.500000
 20
1003.500000
 30
0.000000
 11
1682.500000
 21
1003.500000
 31
0.000000
  6
CONTINUOUS
  0
LINE
  8
WHITE
 10
1682.500000
 20
1003.500000
 30
0.000000
 11
1682.500000
 21
1011.500000
 31
0.000000
  6
CONTINUOUS
  0
LINE
  8
WHITE
 10
1682.500000
 20
1011.500000
 30
0.000000
 11
1694.500000
 21
1011.500000
 31
0.000000
  6
CONTINUOUS
  0
LINE
  8
WHITE
 10
1694.500000
 20
1011.500000
 30
0.000000
 11
1694.500000
 21
1003.500000
 31
0.000000
  6
CONTINUOUS
  0
LINE
  8
WHITE
 10
1719.500000
 20
851.435000
 30
0.000000
 11
1719.500000
 21
843.435000
 31
0.000000
  6
CONTINUOUS
  0
LINE
  8
WHITE
 10
1719.500000
 20
843.435000
 30
0.000000
 11
1707.500000
 21
843.435000
 31
0.000000
  6
CONTINUOUS
  0
LINE
  8
WHITE
 10
1707.500000
 20
843.435000
 30
0.000000
 11
1707.500000
 21
851.435000
 31
0.000000
  6
CONTINUOUS
  0
LINE
  8
WHITE
 10
1707.500000
 20
851.435000
 30
0.000000
 11
1719.500000
 21
851.435000
 31
0.000000
  6
CONTINUOUS
  0
LINE
  8
WHITE
 10
1719.500000
 20
1003.500000
 30
0.000000
 11
1707.500000
 21
1003.500000
 31
0.000000
  6
CONTINUOUS
  0
LINE
  8
WHITE
 10
1707.500000
 20
1003.500000
 30
0.000000
 11
1707.500000
 21
1011.500000
 31
0.000000
  6
CONTINUOUS
  0
LINE
  8
WHITE
 10
1707.500000
 20
1011.500000
 30
0.000000
 11
1719.500000
 21
1011.500000
 31
0.000000
  6
CONTINUOUS
  0
LINE
  8
WHITE
 10
1719.500000
 20
1011.500000
 30
0.000000
 11
1719.500000
 21
1003.500000
 31
0.000000
  6
CONTINUOUS
  0
LINE
  8
WHITE
 10
134.500000
 20
851.435000
 30
0.000000
 11
142.500000
 21
851.435000
 31
0.000000
  6
CONTINUOUS
  0
LINE
  8
WHITE
 10
142.500000
 20
851.435000
 30
0.000000
 11
142.500000
 21
843.435000
 31
0.000000
  6
CONTINUOUS
  0
LINE
  8
WHITE
 10
142.500000
 20
843.435000
 30
0.000000
 11
134.500000
 21
843.435000
 31
0.000000
  6
CONTINUOUS
  0
LINE
  8
WHITE
 10
134.500000
 20
843.435000
 30
0.000000
 11
134.500000
 21
851.435000
 31
0.000000
  6
CONTINUOUS
  0
LINE
  8
WHITE
 10
142.500000
 20
1011.500000
 30
0.000000
 11
142.500000
 21
1003.500000
 31
0.000000
  6
CONTINUOUS
  0
LINE
  8
WHITE
 10
142.500000
 20
1003.500000
 30
0.000000
 11
134.500000
 21
1003.500000
 31
0.000000
  6
CONTINUOUS
  0
LINE
  8
WHITE
 10
134.500000
 20
1003.500000
 30
0.000000
 11
134.500000
 21
1011.500000
 31
0.000000
  6
CONTINUOUS
  0
LINE
  8
WHITE
 10
134.500000
 20
1011.500000
 30
0.000000
 11
142.500000
 21
1011.500000
 31
0.000000
  6
CONTINUOUS
  0
LINE
  8
WHITE
 10
634.500000
 20
851.435000
 30
0.000000
 11
642.500000
 21
851.435000
 31
0.000000
  6
CONTINUOUS
  0
LINE
  8
WHITE
 10
642.500000
 20
851.435000
 30
0.000000
 11
642.500000
 21
843.435000
 31
0.000000
  6
CONTINUOUS
  0
LINE
  8
WHITE
 10
642.500000
 20
843.435000
 30
0.000000
 11
634.500000
 21
843.435000
 31
0.000000
  6
CONTINUOUS
  0
LINE
  8
WHITE
 10
634.500000
 20
843.435000
 30
0.000000
 11
634.500000
 21
851.435000
 31
0.000000
  6
CONTINUOUS
  0
LINE
  8
WHITE
 10
634.500000
 20
1003.500000
 30
0.000000
 11
634.500000
 21
1011.500000
 31
0.000000
  6
CONTINUOUS
  0
LINE
  8
WHITE
 10
634.500000
 20
1011.500000
 30
0.000000
 11
642.500000
 21
1011.500000
 31
0.000000
  6
CONTINUOUS
  0
LINE
  8
WHITE
 10
642.500000
 20
1011.500000
 30
0.000000
 11
642.500000
 21
1003.500000
 31
0.000000
  6
CONTINUOUS
  0
LINE
  8
WHITE
 10
642.500000
 20
1003.500000
 30
0.000000
 11
634.500000
 21
1003.500000
 31
0.000000
  6
CONTINUOUS
  0
LINE
  8
WHITE
 10
1167.500000
 20
851.435000
 30
0.000000
 11
1167.500000
 21
843.435000
 31
0.000000
  6
CONTINUOUS
  0
LINE
  8
WHITE
 10
1167.500000
 20
843.435000
 30
0.000000
 11
1159.500000
 21
843.435000
 31
0.000000
  6
CONTINUOUS
  0
LINE
  8
WHITE
 10
1159.500000
 20
843.435000
 30
0.000000
 11
1159.500000
 21
851.435000
 31
0.000000
  6
CONTINUOUS
  0
LINE
  8
WHITE
 10
1159.500000
 20
851.435000
 30
0.000000
 11
1167.500000
 21
851.435000
 31
0.000000
  6
CONTINUOUS
  0
LINE
  8
WHITE
 10
1159.500000
 20
1003.500000
 30
0.000000
 11
1159.500000
 21
1011.500000
 31
0.000000
  6
CONTINUOUS
  0
LINE
  8
WHITE
 10
1159.500000
 20
1011.500000
 30
0.000000
 11
1167.500000
 21
1011.500000
 31
0.000000
  6
CONTINUOUS
  0
LINE
  8
WHITE
 10
1167.500000
 20
1011.500000
 30
0.000000
 11
1167.500000
 21
1003.500000
 31
0.000000
  6
CONTINUOUS
  0
LINE
  8
WHITE
 10
1167.500000
 20
1003.500000
 30
0.000000
 11
1159.500000
 21
1003.500000
 31
0.000000
  6
CONTINUOUS
  0
LINE
  8
WHITE
 10
1667.500000
 20
851.435000
 30
0.000000
 11
1667.500000
 21
843.435000
 31
0.000000
  6
CONTINUOUS
  0
LINE
  8
WHITE
 10
1667.500000
 20
843.435000
 30
0.000000
 11
1659.500000
 21
843.435000
 31
0.000000
  6
CONTINUOUS
  0
LINE
  8
WHITE
 10
1659.500000
 20
843.435000
 30
0.000000
 11
1659.500000
 21
851.435000
 31
0.000000
  6
CONTINUOUS
  0
LINE
  8
WHITE
 10
1659.500000
 20
851.435000
 30
0.000000
 11
1667.500000
 21
851.435000
 31
0.000000
  6
CONTINUOUS
  0
LINE
  8
WHITE
 10
1667.500000
 20
1011.500000
 30
0.000000
 11
1667.500000
 21
1003.500000
 31
0.000000
  6
CONTINUOUS
  0
LINE
  8
WHITE
 10
1667.500000
 20
1003.500000
 30
0.000000
 11
1659.500000
 21
1003.500000
 31
0.000000
  6
CONTINUOUS
  0
LINE
  8
WHITE
 10
1659.500000
 20
1003.500000
 30
0.000000
 11
1659.500000
 21
1011.500000
 31
0.000000
  6
CONTINUOUS
  0
LINE
  8
WHITE
 10
1659.500000
 20
1011.500000
 30
0.000000
 11
1667.500000
 21
1011.500000
 31
0.000000
  6
CONTINUOUS
  0
LINE
  8
WHITE
 10
72.000000
 20
1180.000000
 30
0.000000
 11
48.900000
 21
1156.900000
 31
0.000000
  6
CONTINUOUS
  0
LINE
  8
WHITE
 10
48.900000
 20
1156.900000
 30
0.000000
 11
47.522926
 21
1154.828837
 31
0.000000
  6
CONTINUOUS
  0
LINE
  8
WHITE
 10
47.522926
 20
1154.828837
 30
0.000000
 11
47.000000
 21
1152.887000
 31
0.000000
  6
CONTINUOUS
  0
LINE
  8
WHITE
 10
47.000000
 20
1152.887000
 30
0.000000
 11
47.000000
 21
1129.674000
 31
0.000000
  6
CONTINUOUS
  0
LINE
  8
WHITE
 10
47.000000
 20
1129.674000
 30
0.000000
 11
46.000000
 21
1129.674000
 31
0.000000
  6
CONTINUOUS
  0
LINE
  8
WHITE
 10
46.000000
 20
1129.674000
 30
0.000000
 11
46.000000
 21
1131.574000
 31
0.000000
  6
CONTINUOUS
  0
LINE
  8
WHITE
 10
46.000000
 20
1131.574000
 30
0.000000
 11
3.000000
 21
1131.574000
 31
0.000000
  6
CONTINUOUS
  0
LINE
  8
WHITE
 10
3.000000
 20
1131.574000
 30
0.000000
 11
3.000000
 21
1080.361000
 31
0.000000
  6
CONTINUOUS
  0
LINE
  8
WHITE
 10
3.000000
 20
1080.361000
 30
0.000000
 11
12.000000
 21
1080.361000
 31
0.000000
  6
CONTINUOUS
  0
LINE
  8
WHITE
 10
12.000000
 20
1080.361000
 30
0.000000
 11
37.884244
 21
1045.361000
 31
0.000000
  6
CONTINUOUS
  0
LINE
  8
WHITE
 10
37.884244
 20
1045.361000
 30
0.000000
 11
46.000000
 21
1045.361000
 31
0.000000
  6
CONTINUOUS
  0
LINE
  8
WHITE
 10
46.000000
 20
1045.361000
 30
0.000000
 11
46.000000
 21
1049.261000
 31
0.000000
  6
CONTINUOUS
  0
LINE
  8
WHITE
 10
46.000000
 20
1049.261000
 30
0.000000
 11
47.000000
 21
1049.261000
 31
0.000000
  6
CONTINUOUS
  0
LINE
  8
WHITE
 10
47.000000
 20
1049.261000
 30
0.000000
 11
47.000000
 21
1034.414752
 31
0.000000
  6
CONTINUOUS
  0
LINE
  8
WHITE
 10
47.000000
 20
1034.414752
 30
0.000000
 11
45.638668
 21
1031.365440
 31
0.000000
  6
CONTINUOUS
  0
LINE
  8
WHITE
 10
45.638668
 20
1031.365440
 30
0.000000
 11
39.125853
 21
1021.632191
 31
0.000000
  6
CONTINUOUS
  0
LINE
  8
WHITE
 10
39.125853
 20
1021.632191
 30
0.000000
 11
1762.874147
 21
1021.632191
 31
0.000000
  6
CONTINUOUS
  0
LINE
  8
WHITE
 10
1762.874147
 20
1021.632191
 30
0.000000
 11
1756.361332
 21
1031.365440
 31
0.000000
  6
CONTINUOUS
  0
LINE
  8
WHITE
 10
1756.361332
 20
1031.365440
 30
0.000000
 11
1755.000000
 21
1034.414752
 31
0.000000
  6
CONTINUOUS
  0
LINE
  8
WHITE
 10
1755.000000
 20
1034.414752
 30
0.000000
 11
1755.000000
 21
1049.261000
 31
0.000000
  6
CONTINUOUS
  0
LINE
  8
WHITE
 10
1755.000000
 20
1049.261000
 30
0.000000
 11
1756.000000
 21
1049.261000
 31
0.000000
  6
CONTINUOUS
  0
LINE
  8
WHITE
 10
1756.000000
 20
1049.261000
 30
0.000000
 11
1756.000000
 21
1045.361000
 31
0.000000
  6
CONTINUOUS
  0
LINE
  8
WHITE
 10
1756.000000
 20
1045.361000
 30
0.000000
 11
1764.115756
 21
1045.361000
 31
0.000000
  6
CONTINUOUS
  0
LINE
  8
WHITE
 10
1764.115756
 20
1045.361000
 30
0.000000
 11
1790.000000
 21
1080.361000
 31
0.000000
  6
CONTINUOUS
  0
LINE
  8
WHITE
 10
1790.000000
 20
1080.361000
 30
0.000000
 11
1799.000000
 21
1080.361000
 31
0.000000
  6
CONTINUOUS
  0
LINE
  8
WHITE
 10
1799.000000
 20
1080.361000
 30
0.000000
 11
1799.000000
 21
1131.574000
 31
0.000000
  6
CONTINUOUS
  0
LINE
  8
WHITE
 10
1799.000000
 20
1131.574000
 30
0.000000
 11
1756.000000
 21
1131.574000
 31
0.000000
  6
CONTINUOUS
  0
LINE
  8
WHITE
 10
1756.000000
 20
1131.574000
 30
0.000000
 11
1756.000000
 21
1129.674000
 31
0.000000
  6
CONTINUOUS
  0
LINE
  8
WHITE
 10
1756.000000
 20
1129.674000
 30
0.000000
 11
1755.000000
 21
1129.674000
 31
0.000000
  6
CONTINUOUS
  0
LINE
  8
WHITE
 10
1755.000000
 20
1129.674000
 30
0.000000
 11
1755.000000
 21
1152.887000
 31
0.000000
  6
CONTINUOUS
  0
LINE
  8
WHITE
 10
1755.000000
 20
1152.887000
 30
0.000000
 11
1754.477074
 21
1154.828837
 31
0.000000
  6
CONTINUOUS
  0
LINE
  8
WHITE
 10
1754.477074
 20
1154.828837
 30
0.000000
 11
1753.100000
 21
1156.900000
 31
0.000000
  6
CONTINUOUS
  0
LINE
  8
WHITE
 10
1753.100000
 20
1156.900000
 30
0.000000
 11
1730.000000
 21
1180.000000
 31
0.000000
  6
CONTINUOUS
  0
LINE
  8
WHITE
 10
1730.000000
 20
1180.000000
 30
0.000000
 11
72.000000
 21
1180.000000
 31
0.000000
  6
CONTINUOUS
  0
LINE
  8
WHITE
 10
94.500000
 20
1165.500000
 30
0.000000
 11
82.500000
 21
1165.500000
 31
0.000000
  6
CONTINUOUS
  0
LINE
  8
WHITE
 10
82.500000
 20
1165.500000
 30
0.000000
 11
82.500000
 21
1173.500000
 31
0.000000
  6
CONTINUOUS
  0
LINE
  8
WHITE
 10
82.500000
 20
1173.500000
 30
0.000000
 11
94.500000
 21
1173.500000
 31
0.000000
  6
CONTINUOUS
  0
LINE
  8
WHITE
 10
94.500000
 20
1173.500000
 30
0.000000
 11
94.500000
 21
1165.500000
 31
0.000000
  6
CONTINUOUS
  0
LINE
  8
WHITE
 10
119.500000
 20
1165.500000
 30
0.000000
 11
107.500000
 21
1165.500000
 31
0.000000
  6
CONTINUOUS
  0
LINE
  8
WHITE
 10
107.500000
 20
1165.500000
 30
0.000000
 11
107.500000
 21
1173.500000
 31
0.000000
  6
CONTINUOUS
  0
LINE
  8
WHITE
 10
107.500000
 20
1173.500000
 30
0.000000
 11
119.500000
 21
1173.500000
 31
0.000000
  6
CONTINUOUS
  0
LINE
  8
WHITE
 10
119.500000
 20
1173.500000
 30
0.000000
 11
119.500000
 21
1165.500000
 31
0.000000
  6
CONTINUOUS
  0
LINE
  8
WHITE
 10
169.500000
 20
1165.500000
 30
0.000000
 11
157.500000
 21
1165.500000
 31
0.000000
  6
CONTINUOUS
  0
LINE
  8
WHITE
 10
157.500000
 20
1165.500000
 30
0.000000
 11
157.500000
 21
1173.500000
 31
0.000000
  6
CONTINUOUS
  0
LINE
  8
WHITE
 10
157.500000
 20
1173.500000
 30
0.000000
 11
169.500000
 21
1173.500000
 31
0.000000
  6
CONTINUOUS
  0
LINE
  8
WHITE
 10
169.500000
 20
1173.500000
 30
0.000000
 11
169.500000
 21
1165.500000
 31
0.000000
  6
CONTINUOUS
  0
LINE
  8
WHITE
 10
194.500000
 20
1165.500000
 30
0.000000
 11
182.500000
 21
1165.500000
 31
0.000000
  6
CONTINUOUS
  0
LINE
  8
WHITE
 10
182.500000
 20
1165.500000
 30
0.000000
 11
182.500000
 21
1173.500000
 31
0.000000
  6
CONTINUOUS
  0
LINE
  8
WHITE
 10
182.500000
 20
1173.500000
 30
0.000000
 11
194.500000
 21
1173.500000
 31
0.000000
  6
CONTINUOUS
  0
LINE
  8
WHITE
 10
194.500000
 20
1173.500000
 30
0.000000
 11
194.500000
 21
1165.500000
 31
0.000000
  6
CONTINUOUS
  0
LINE
  8
WHITE
 10
219.500000
 20
1165.500000
 30
0.000000
 11
207.500000
 21
1165.500000
 31
0.000000
  6
CONTINUOUS
  0
LINE
  8
WHITE
 10
207.500000
 20
1165.500000
 30
0.000000
 11
207.500000
 21
1173.500000
 31
0.000000
  6
CONTINUOUS
  0
LINE
  8
WHITE
 10
207.500000
 20
1173.500000
 30
0.000000
 11
219.500000
 21
1173.500000
 31
0.000000
  6
CONTINUOUS
  0
LINE
  8
WHITE
 10
219.500000
 20
1173.500000
 30
0.000000
 11
219.500000
 21
1165.500000
 31
0.000000
  6
CONTINUOUS
  0
LINE
  8
WHITE
 10
244.500000
 20
1165.500000
 30
0.000000
 11
232.500000
 21
1165.500000
 31
0.000000
  6
CONTINUOUS
  0
LINE
  8
WHITE
 10
232.500000
 20
1165.500000
 30
0.000000
 11
232.500000
 21
1173.500000
 31
0.000000
  6
CONTINUOUS
  0
LINE
  8
WHITE
 10
232.500000
 20
1173.500000
 30
0.000000
 11
244.500000
 21
1173.500000
 31
0.000000
  6
CONTINUOUS
  0
LINE
  8
WHITE
 10
244.500000
 20
1173.500000
 30
0.000000
 11
244.500000
 21
1165.500000
 31
0.000000
  6
CONTINUOUS
  0
LINE
  8
WHITE
 10
269.500000
 20
1165.500000
 30
0.000000
 11
257.500000
 21
1165.500000
 31
0.000000
  6
CONTINUOUS
  0
LINE
  8
WHITE
 10
257.500000
 20
1165.500000
 30
0.000000
 11
257.500000
 21
1173.500000
 31
0.000000
  6
CONTINUOUS
  0
LINE
  8
WHITE
 10
257.500000
 20
1173.500000
 30
0.000000
 11
269.500000
 21
1173.500000
 31
0.000000
  6
CONTINUOUS
  0
LINE
  8
WHITE
 10
269.500000
 20
1173.500000
 30
0.000000
 11
269.500000
 21
1165.500000
 31
0.000000
  6
CONTINUOUS
  0
LINE
  8
WHITE
 10
294.500000
 20
1165.500000
 30
0.000000
 11
282.500000
 21
1165.500000
 31
0.000000
  6
CONTINUOUS
  0
LINE
  8
WHITE
 10
282.500000
 20
1165.500000
 30
0.000000
 11
282.500000
 21
1173.500000
 31
0.000000
  6
CONTINUOUS
  0
LINE
  8
WHITE
 10
282.500000
 20
1173.500000
 30
0.000000
 11
294.500000
 21
1173.500000
 31
0.000000
  6
CONTINUOUS
  0
LINE
  8
WHITE
 10
294.500000
 20
1173.500000
 30
0.000000
 11
294.500000
 21
1165.500000
 31
0.000000
  6
CONTINUOUS
  0
LINE
  8
WHITE
 10
319.500000
 20
1165.500000
 30
0.000000
 11
307.500000
 21
1165.500000
 31
0.000000
  6
CONTINUOUS
  0
LINE
  8
WHITE
 10
307.500000
 20
1165.500000
 30
0.000000
 11
307.500000
 21
1173.500000
 31
0.000000
  6
CONTINUOUS
  0
LINE
  8
WHITE
 10
307.500000
 20
1173.500000
 30
0.000000
 11
319.500000
 21
1173.500000
 31
0.000000
  6
CONTINUOUS
  0
LINE
  8
WHITE
 10
319.500000
 20
1173.500000
 30
0.000000
 11
319.500000
 21
1165.500000
 31
0.000000
  6
CONTINUOUS
  0
LINE
  8
WHITE
 10
344.500000
 20
1165.500000
 30
0.000000
 11
332.500000
 21
1165.500000
 31
0.000000
  6
CONTINUOUS
  0
LINE
  8
WHITE
 10
332.500000
 20
1165.500000
 30
0.000000
 11
332.500000
 21
1173.500000
 31
0.000000
  6
CONTINUOUS
  0
LINE
  8
WHITE
 10
332.500000
 20
1173.500000
 30
0.000000
 11
344.500000
 21
1173.500000
 31
0.000000
  6
CONTINUOUS
  0
LINE
  8
WHITE
 10
344.500000
 20
1173.500000
 30
0.000000
 11
344.500000
 21
1165.500000
 31
0.000000
  6
CONTINUOUS
  0
LINE
  8
WHITE
 10
369.500000
 20
1165.500000
 30
0.000000
 11
357.500000
 21
1165.500000
 31
0.000000
  6
CONTINUOUS
  0
LINE
  8
WHITE
 10
357.500000
 20
1165.500000
 30
0.000000
 11
357.500000
 21
1173.500000
 31
0.000000
  6
CONTINUOUS
  0
LINE
  8
WHITE
 10
357.500000
 20
1173.500000
 30
0.000000
 11
369.500000
 21
1173.500000
 31
0.000000
  6
CONTINUOUS
  0
LINE
  8
WHITE
 10
369.500000
 20
1173.500000
 30
0.000000
 11
369.500000
 21
1165.500000
 31
0.000000
  6
CONTINUOUS
  0
LINE
  8
WHITE
 10
394.500000
 20
1165.500000
 30
0.000000
 11
382.500000
 21
1165.500000
 31
0.000000
  6
CONTINUOUS
  0
LINE
  8
WHITE
 10
382.500000
 20
1165.500000
 30
0.000000
 11
382.500000
 21
1173.500000
 31
0.000000
  6
CONTINUOUS
  0
LINE
  8
WHITE
 10
382.500000
 20
1173.500000
 30
0.000000
 11
394.500000
 21
1173.500000
 31
0.000000
  6
CONTINUOUS
  0
LINE
  8
WHITE
 10
394.500000
 20
1173.500000
 30
0.000000
 11
394.500000
 21
1165.500000
 31
0.000000
  6
CONTINUOUS
  0
LINE
  8
WHITE
 10
419.500000
 20
1165.500000
 30
0.000000
 11
407.500000
 21
1165.500000
 31
0.000000
  6
CONTINUOUS
  0
LINE
  8
WHITE
 10
407.500000
 20
1165.500000
 30
0.000000
 11
407.500000
 21
1173.500000
 31
0.000000
  6
CONTINUOUS
  0
LINE
  8
WHITE
 10
407.500000
 20
1173.500000
 30
0.000000
 11
419.500000
 21
1173.500000
 31
0.000000
  6
CONTINUOUS
  0
LINE
  8
WHITE
 10
419.500000
 20
1173.500000
 30
0.000000
 11
419.500000
 21
1165.500000
 31
0.000000
  6
CONTINUOUS
  0
LINE
  8
WHITE
 10
444.500000
 20
1165.500000
 30
0.000000
 11
432.500000
 21
1165.500000
 31
0.000000
  6
CONTINUOUS
  0
LINE
  8
WHITE
 10
432.500000
 20
1165.500000
 30
0.000000
 11
432.500000
 21
1173.500000
 31
0.000000
  6
CONTINUOUS
  0
LINE
  8
WHITE
 10
432.500000
 20
1173.500000
 30
0.000000
 11
444.500000
 21
1173.500000
 31
0.000000
  6
CONTINUOUS
  0
LINE
  8
WHITE
 10
444.500000
 20
1173.500000
 30
0.000000
 11
444.500000
 21
1165.500000
 31
0.000000
  6
CONTINUOUS
  0
LINE
  8
WHITE
 10
469.500000
 20
1165.500000
 30
0.000000
 11
457.500000
 21
1165.500000
 31
0.000000
  6
CONTINUOUS
  0
LINE
  8
WHITE
 10
457.500000
 20
1165.500000
 30
0.000000
 11
457.500000
 21
1173.500000
 31
0.000000
  6
CONTINUOUS
  0
LINE
  8
WHITE
 10
457.500000
 20
1173.500000
 30
0.000000
 11
469.500000
 21
1173.500000
 31
0.000000
  6
CONTINUOUS
  0
LINE
  8
WHITE
 10
469.500000
 20
1173.500000
 30
0.000000
 11
469.500000
 21
1165.500000
 31
0.000000
  6
CONTINUOUS
  0
LINE
  8
WHITE
 10
494.500000
 20
1165.500000
 30
0.000000
 11
482.500000
 21
1165.500000
 31
0.000000
  6
CONTINUOUS
  0
LINE
  8
WHITE
 10
482.500000
 20
1165.500000
 30
0.000000
 11
482.500000
 21
1173.500000
 31
0.000000
  6
CONTINUOUS
  0
LINE
  8
WHITE
 10
482.500000
 20
1173.500000
 30
0.000000
 11
494.500000
 21
1173.500000
 31
0.000000
  6
CONTINUOUS
  0
LINE
  8
WHITE
 10
494.500000
 20
1173.500000
 30
0.000000
 11
494.500000
 21
1165.500000
 31
0.000000
  6
CONTINUOUS
  0
LINE
  8
WHITE
 10
519.500000
 20
1165.500000
 30
0.000000
 11
507.500000
 21
1165.500000
 31
0.000000
  6
CONTINUOUS
  0
LINE
  8
WHITE
 10
507.500000
 20
1165.500000
 30
0.000000
 11
507.500000
 21
1173.500000
 31
0.000000
  6
CONTINUOUS
  0
LINE
  8
WHITE
 10
507.500000
 20
1173.500000
 30
0.000000
 11
519.500000
 21
1173.500000
 31
0.000000
  6
CONTINUOUS
  0
LINE
  8
WHITE
 10
519.500000
 20
1173.500000
 30
0.000000
 11
519.500000
 21
1165.500000
 31
0.000000
  6
CONTINUOUS
  0
LINE
  8
WHITE
 10
544.500000
 20
1165.500000
 30
0.000000
 11
532.500000
 21
1165.500000
 31
0.000000
  6
CONTINUOUS
  0
LINE
  8
WHITE
 10
532.500000
 20
1165.500000
 30
0.000000
 11
532.500000
 21
1173.500000
 31
0.000000
  6
CONTINUOUS
  0
LINE
  8
WHITE
 10
532.500000
 20
1173.500000
 30
0.000000
 11
544.500000
 21
1173.500000
 31
0.000000
  6
CONTINUOUS
  0
LINE
  8
WHITE
 10
544.500000
 20
1173.500000
 30
0.000000
 11
544.500000
 21
1165.500000
 31
0.000000
  6
CONTINUOUS
  0
LINE
  8
WHITE
 10
569.500000
 20
1165.500000
 30
0.000000
 11
557.500000
 21
1165.500000
 31
0.000000
  6
CONTINUOUS
  0
LINE
  8
WHITE
 10
557.500000
 20
1165.500000
 30
0.000000
 11
557.500000
 21
1173.500000
 31
0.000000
  6
CONTINUOUS
  0
LINE
  8
WHITE
 10
557.500000
 20
1173.500000
 30
0.000000
 11
569.500000
 21
1173.500000
 31
0.000000
  6
CONTINUOUS
  0
LINE
  8
WHITE
 10
569.500000
 20
1173.500000
 30
0.000000
 11
569.500000
 21
1165.500000
 31
0.000000
  6
CONTINUOUS
  0
LINE
  8
WHITE
 10
594.500000
 20
1165.500000
 30
0.000000
 11
582.500000
 21
1165.500000
 31
0.000000
  6
CONTINUOUS
  0
LINE
  8
WHITE
 10
582.500000
 20
1165.500000
 30
0.000000
 11
582.500000
 21
1173.500000
 31
0.000000
  6
CONTINUOUS
  0
LINE
  8
WHITE
 10
582.500000
 20
1173.500000
 30
0.000000
 11
594.500000
 21
1173.500000
 31
0.000000
  6
CONTINUOUS
  0
LINE
  8
WHITE
 10
594.500000
 20
1173.500000
 30
0.000000
 11
594.500000
 21
1165.500000
 31
0.000000
  6
CONTINUOUS
  0
LINE
  8
WHITE
 10
619.500000
 20
1165.500000
 30
0.000000
 11
607.500000
 21
1165.500000
 31
0.000000
  6
CONTINUOUS
  0
LINE
  8
WHITE
 10
607.500000
 20
1165.500000
 30
0.000000
 11
607.500000
 21
1173.500000
 31
0.000000
  6
CONTINUOUS
  0
LINE
  8
WHITE
 10
607.500000
 20
1173.500000
 30
0.000000
 11
619.500000
 21
1173.500000
 31
0.000000
  6
CONTINUOUS
  0
LINE
  8
WHITE
 10
619.500000
 20
1173.500000
 30
0.000000
 11
619.500000
 21
1165.500000
 31
0.000000
  6
CONTINUOUS
  0
LINE
  8
WHITE
 10
669.500000
 20
1165.500000
 30
0.000000
 11
657.500000
 21
1165.500000
 31
0.000000
  6
CONTINUOUS
  0
LINE
  8
WHITE
 10
657.500000
 20
1165.500000
 30
0.000000
 11
657.500000
 21
1173.500000
 31
0.000000
  6
CONTINUOUS
  0
LINE
  8
WHITE
 10
657.500000
 20
1173.500000
 30
0.000000
 11
669.500000
 21
1173.500000
 31
0.000000
  6
CONTINUOUS
  0
LINE
  8
WHITE
 10
669.500000
 20
1173.500000
 30
0.000000
 11
669.500000
 21
1165.500000
 31
0.000000
  6
CONTINUOUS
  0
LINE
  8
WHITE
 10
694.500000
 20
1165.500000
 30
0.000000
 11
682.500000
 21
1165.500000
 31
0.000000
  6
CONTINUOUS
  0
LINE
  8
WHITE
 10
682.500000
 20
1165.500000
 30
0.000000
 11
682.500000
 21
1173.500000
 31
0.000000
  6
CONTINUOUS
  0
LINE
  8
WHITE
 10
682.500000
 20
1173.500000
 30
0.000000
 11
694.500000
 21
1173.500000
 31
0.000000
  6
CONTINUOUS
  0
LINE
  8
WHITE
 10
694.500000
 20
1173.500000
 30
0.000000
 11
694.500000
 21
1165.500000
 31
0.000000
  6
CONTINUOUS
  0
LINE
  8
WHITE
 10
719.500000
 20
1165.500000
 30
0.000000
 11
707.500000
 21
1165.500000
 31
0.000000
  6
CONTINUOUS
  0
LINE
  8
WHITE
 10
707.500000
 20
1165.500000
 30
0.000000
 11
707.500000
 21
1173.500000
 31
0.000000
  6
CONTINUOUS
  0
LINE
  8
WHITE
 10
707.500000
 20
1173.500000
 30
0.000000
 11
719.500000
 21
1173.500000
 31
0.000000
  6
CONTINUOUS
  0
LINE
  8
WHITE
 10
719.500000
 20
1173.500000
 30
0.000000
 11
719.500000
 21
1165.500000
 31
0.000000
  6
CONTINUOUS
  0
LINE
  8
WHITE
 10
744.500000
 20
1165.500000
 30
0.000000
 11
732.500000
 21
1165.500000
 31
0.000000
  6
CONTINUOUS
  0
LINE
  8
WHITE
 10
732.500000
 20
1165.500000
 30
0.000000
 11
732.500000
 21
1173.500000
 31
0.000000
  6
CONTINUOUS
  0
LINE
  8
WHITE
 10
732.500000
 20
1173.500000
 30
0.000000
 11
744.500000
 21
1173.500000
 31
0.000000
  6
CONTINUOUS
  0
LINE
  8
WHITE
 10
744.500000
 20
1173.500000
 30
0.000000
 11
744.500000
 21
1165.500000
 31
0.000000
  6
CONTINUOUS
  0
LINE
  8
WHITE
 10
769.500000
 20
1165.500000
 30
0.000000
 11
757.500000
 21
1165.500000
 31
0.000000
  6
CONTINUOUS
  0
LINE
  8
WHITE
 10
757.500000
 20
1165.500000
 30
0.000000
 11
757.500000
 21
1173.500000
 31
0.000000
  6
CONTINUOUS
  0
LINE
  8
WHITE
 10
757.500000
 20
1173.500000
 30
0.000000
 11
769.500000
 21
1173.500000
 31
0.000000
  6
CONTINUOUS
  0
LINE
  8
WHITE
 10
769.500000
 20
1173.500000
 30
0.000000
 11
769.500000
 21
1165.500000
 31
0.000000
  6
CONTINUOUS
  0
LINE
  8
WHITE
 10
794.500000
 20
1165.500000
 30
0.000000
 11
782.500000
 21
1165.500000
 31
0.000000
  6
CONTINUOUS
  0
LINE
  8
WHITE
 10
782.500000
 20
1165.500000
 30
0.000000
 11
782.500000
 21
1173.500000
 31
0.000000
  6
CONTINUOUS
  0
LINE
  8
WHITE
 10
782.500000
 20
1173.500000
 30
0.000000
 11
794.500000
 21
1173.500000
 31
0.000000
  6
CONTINUOUS
  0
LINE
  8
WHITE
 10
794.500000
 20
1173.500000
 30
0.000000
 11
794.500000
 21
1165.500000
 31
0.000000
  6
CONTINUOUS
  0
LINE
  8
WHITE
 10
819.500000
 20
1165.500000
 30
0.000000
 11
807.500000
 21
1165.500000
 31
0.000000
  6
CONTINUOUS
  0
LINE
  8
WHITE
 10
807.500000
 20
1165.500000
 30
0.000000
 11
807.500000
 21
1173.500000
 31
0.000000
  6
CONTINUOUS
  0
LINE
  8
WHITE
 10
807.500000
 20
1173.500000
 30
0.000000
 11
819.500000
 21
1173.500000
 31
0.000000
  6
CONTINUOUS
  0
LINE
  8
WHITE
 10
819.500000
 20
1173.500000
 30
0.000000
 11
819.500000
 21
1165.500000
 31
0.000000
  6
CONTINUOUS
  0
LINE
  8
WHITE
 10
844.500000
 20
1165.500000
 30
0.000000
 11
832.500000
 21
1165.500000
 31
0.000000
  6
CONTINUOUS
  0
LINE
  8
WHITE
 10
832.500000
 20
1165.500000
 30
0.000000
 11
832.500000
 21
1173.500000
 31
0.000000
  6
CONTINUOUS
  0
LINE
  8
WHITE
 10
832.500000
 20
1173.500000
 30
0.000000
 11
844.500000
 21
1173.500000
 31
0.000000
  6
CONTINUOUS
  0
LINE
  8
WHITE
 10
844.500000
 20
1173.500000
 30
0.000000
 11
844.500000
 21
1165.500000
 31
0.000000
  6
CONTINUOUS
  0
LINE
  8
WHITE
 10
869.500000
 20
1165.500000
 30
0.000000
 11
857.500000
 21
1165.500000
 31
0.000000
  6
CONTINUOUS
  0
LINE
  8
WHITE
 10
857.500000
 20
1165.500000
 30
0.000000
 11
857.500000
 21
1173.500000
 31
0.000000
  6
CONTINUOUS
  0
LINE
  8
WHITE
 10
857.500000
 20
1173.500000
 30
0.000000
 11
869.500000
 21
1173.500000
 31
0.000000
  6
CONTINUOUS
  0
LINE
  8
WHITE
 10
869.500000
 20
1173.500000
 30
0.000000
 11
869.500000
 21
1165.500000
 31
0.000000
  6
CONTINUOUS
  0
LINE
  8
WHITE
 10
894.500000
 20
1165.500000
 30
0.000000
 11
882.500000
 21
1165.500000
 31
0.000000
  6
CONTINUOUS
  0
LINE
  8
WHITE
 10
882.500000
 20
1165.500000
 30
0.000000
 11
882.500000
 21
1173.500000
 31
0.000000
  6
CONTINUOUS
  0
LINE
  8
WHITE
 10
882.500000
 20
1173.500000
 30
0.000000
 11
894.500000
 21
1173.500000
 31
0.000000
  6
CONTINUOUS
  0
LINE
  8
WHITE
 10
894.500000
 20
1173.500000
 30
0.000000
 11
894.500000
 21
1165.500000
 31
0.000000
  6
CONTINUOUS
  0
LINE
  8
WHITE
 10
919.500000
 20
1173.500000
 30
0.000000
 11
919.500000
 21
1165.500000
 31
0.000000
  6
CONTINUOUS
  0
LINE
  8
WHITE
 10
919.500000
 20
1165.500000
 30
0.000000
 11
907.500000
 21
1165.500000
 31
0.000000
  6
CONTINUOUS
  0
LINE
  8
WHITE
 10
907.500000
 20
1165.500000
 30
0.000000
 11
907.500000
 21
1173.500000
 31
0.000000
  6
CONTINUOUS
  0
LINE
  8
WHITE
 10
907.500000
 20
1173.500000
 30
0.000000
 11
919.500000
 21
1173.500000
 31
0.000000
  6
CONTINUOUS
  0
LINE
  8
WHITE
 10
944.500000
 20
1173.500000
 30
0.000000
 11
944.500000
 21
1165.500000
 31
0.000000
  6
CONTINUOUS
  0
LINE
  8
WHITE
 10
944.500000
 20
1165.500000
 30
0.000000
 11
932.500000
 21
1165.500000
 31
0.000000
  6
CONTINUOUS
  0
LINE
  8
WHITE
 10
932.500000
 20
1165.500000
 30
0.000000
 11
932.500000
 21
1173.500000
 31
0.000000
  6
CONTINUOUS
  0
LINE
  8
WHITE
 10
932.500000
 20
1173.500000
 30
0.000000
 11
944.500000
 21
1173.500000
 31
0.000000
  6
CONTINUOUS
  0
LINE
  8
WHITE
 10
969.500000
 20
1165.500000
 30
0.000000
 11
957.500000
 21
1165.500000
 31
0.000000
  6
CONTINUOUS
  0
LINE
  8
WHITE
 10
957.500000
 20
1165.500000
 30
0.000000
 11
957.500000
 21
1173.500000
 31
0.000000
  6
CONTINUOUS
  0
LINE
  8
WHITE
 10
957.500000
 20
1173.500000
 30
0.000000
 11
969.500000
 21
1173.500000
 31
0.000000
  6
CONTINUOUS
  0
LINE
  8
WHITE
 10
969.500000
 20
1173.500000
 30
0.000000
 11
969.500000
 21
1165.500000
 31
0.000000
  6
CONTINUOUS
  0
LINE
  8
WHITE
 10
994.500000
 20
1165.500000
 30
0.000000
 11
982.500000
 21
1165.500000
 31
0.000000
  6
CONTINUOUS
  0
LINE
  8
WHITE
 10
982.500000
 20
1165.500000
 30
0.000000
 11
982.500000
 21
1173.500000
 31
0.000000
  6
CONTINUOUS
  0
LINE
  8
WHITE
 10
982.500000
 20
1173.500000
 30
0.000000
 11
994.500000
 21
1173.500000
 31
0.000000
  6
CONTINUOUS
  0
LINE
  8
WHITE
 10
994.500000
 20
1173.500000
 30
0.000000
 11
994.500000
 21
1165.500000
 31
0.000000
  6
CONTINUOUS
  0
LINE
  8
WHITE
 10
1019.500000
 20
1165.500000
 30
0.000000
 11
1007.500000
 21
1165.500000
 31
0.000000
  6
CONTINUOUS
  0
LINE
  8
WHITE
 10
1007.500000
 20
1165.500000
 30
0.000000
 11
1007.500000
 21
1173.500000
 31
0.000000
  6
CONTINUOUS
  0
LINE
  8
WHITE
 10
1007.500000
 20
1173.500000
 30
0.000000
 11
1019.500000
 21
1173.500000
 31
0.000000
  6
CONTINUOUS
  0
LINE
  8
WHITE
 10
1019.500000
 20
1173.500000
 30
0.000000
 11
1019.500000
 21
1165.500000
 31
0.000000
  6
CONTINUOUS
  0
LINE
  8
WHITE
 10
1044.500000
 20
1165.500000
 30
0.000000
 11
1032.500000
 21
1165.500000
 31
0.000000
  6
CONTINUOUS
  0
LINE
  8
WHITE
 10
1032.500000
 20
1165.500000
 30
0.000000
 11
1032.500000
 21
1173.500000
 31
0.000000
  6
CONTINUOUS
  0
LINE
  8
WHITE
 10
1032.500000
 20
1173.500000
 30
0.000000
 11
1044.500000
 21
1173.500000
 31
0.000000
  6
CONTINUOUS
  0
LINE
  8
WHITE
 10
1044.500000
 20
1173.500000
 30
0.000000
 11
1044.500000
 21
1165.500000
 31
0.000000
  6
CONTINUOUS
  0
LINE
  8
WHITE
 10
1069.500000
 20
1165.500000
 30
0.000000
 11
1057.500000
 21
1165.500000
 31
0.000000
  6
CONTINUOUS
  0
LINE
  8
WHITE
 10
1057.500000
 20
1165.500000
 30
0.000000
 11
1057.500000
 21
1173.500000
 31
0.000000
  6
CONTINUOUS
  0
LINE
  8
WHITE
 10
1057.500000
 20
1173.500000
 30
0.000000
 11
1069.500000
 21
1173.500000
 31
0.000000
  6
CONTINUOUS
  0
LINE
  8
WHITE
 10
1069.500000
 20
1173.500000
 30
0.000000
 11
1069.500000
 21
1165.500000
 31
0.000000
  6
CONTINUOUS
  0
LINE
  8
WHITE
 10
1094.500000
 20
1165.500000
 30
0.000000
 11
1082.500000
 21
1165.500000
 31
0.000000
  6
CONTINUOUS
  0
LINE
  8
WHITE
 10
1082.500000
 20
1165.500000
 30
0.000000
 11
1082.500000
 21
1173.500000
 31
0.000000
  6
CONTINUOUS
  0
LINE
  8
WHITE
 10
1082.500000
 20
1173.500000
 30
0.000000
 11
1094.500000
 21
1173.500000
 31
0.000000
  6
CONTINUOUS
  0
LINE
  8
WHITE
 10
1094.500000
 20
1173.500000
 30
0.000000
 11
1094.500000
 21
1165.500000
 31
0.000000
  6
CONTINUOUS
  0
LINE
  8
WHITE
 10
1119.500000
 20
1165.500000
 30
0.000000
 11
1107.500000
 21
1165.500000
 31
0.000000
  6
CONTINUOUS
  0
LINE
  8
WHITE
 10
1107.500000
 20
1165.500000
 30
0.000000
 11
1107.500000
 21
1173.500000
 31
0.000000
  6
CONTINUOUS
  0
LINE
  8
WHITE
 10
1107.500000
 20
1173.500000
 30
0.000000
 11
1119.500000
 21
1173.500000
 31
0.000000
  6
CONTINUOUS
  0
LINE
  8
WHITE
 10
1119.500000
 20
1173.500000
 30
0.000000
 11
1119.500000
 21
1165.500000
 31
0.000000
  6
CONTINUOUS
  0
LINE
  8
WHITE
 10
1144.500000
 20
1165.500000
 30
0.000000
 11
1132.500000
 21
1165.500000
 31
0.000000
  6
CONTINUOUS
  0
LINE
  8
WHITE
 10
1132.500000
 20
1165.500000
 30
0.000000
 11
1132.500000
 21
1173.500000
 31
0.000000
  6
CONTINUOUS
  0
LINE
  8
WHITE
 10
1132.500000
 20
1173.500000
 30
0.000000
 11
1144.500000
 21
1173.500000
 31
0.000000
  6
CONTINUOUS
  0
LINE
  8
WHITE
 10
1144.500000
 20
1173.500000
 30
0.000000
 11
1144.500000
 21
1165.500000
 31
0.000000
  6
CONTINUOUS
  0
LINE
  8
WHITE
 10
1194.500000
 20
1165.500000
 30
0.000000
 11
1182.500000
 21
1165.500000
 31
0.000000
  6
CONTINUOUS
  0
LINE
  8
WHITE
 10
1182.500000
 20
1165.500000
 30
0.000000
 11
1182.500000
 21
1173.500000
 31
0.000000
  6
CONTINUOUS
  0
LINE
  8
WHITE
 10
1182.500000
 20
1173.500000
 30
0.000000
 11
1194.500000
 21
1173.500000
 31
0.000000
  6
CONTINUOUS
  0
LINE
  8
WHITE
 10
1194.500000
 20
1173.500000
 30
0.000000
 11
1194.500000
 21
1165.500000
 31
0.000000
  6
CONTINUOUS
  0
LINE
  8
WHITE
 10
1219.500000
 20
1165.500000
 30
0.000000
 11
1207.500000
 21
1165.500000
 31
0.000000
  6
CONTINUOUS
  0
LINE
  8
WHITE
 10
1207.500000
 20
1165.500000
 30
0.000000
 11
1207.500000
 21
1173.500000
 31
0.000000
  6
CONTINUOUS
  0
LINE
  8
WHITE
 10
1207.500000
 20
1173.500000
 30
0.000000
 11
1219.500000
 21
1173.500000
 31
0.000000
  6
CONTINUOUS
  0
LINE
  8
WHITE
 10
1219.500000
 20
1173.500000
 30
0.000000
 11
1219.500000
 21
1165.500000
 31
0.000000
  6
CONTINUOUS
  0
LINE
  8
WHITE
 10
1244.500000
 20
1165.500000
 30
0.000000
 11
1232.500000
 21
1165.500000
 31
0.000000
  6
CONTINUOUS
  0
LINE
  8
WHITE
 10
1232.500000
 20
1165.500000
 30
0.000000
 11
1232.500000
 21
1173.500000
 31
0.000000
  6
CONTINUOUS
  0
LINE
  8
WHITE
 10
1232.500000
 20
1173.500000
 30
0.000000
 11
1244.500000
 21
1173.500000
 31
0.000000
  6
CONTINUOUS
  0
LINE
  8
WHITE
 10
1244.500000
 20
1173.500000
 30
0.000000
 11
1244.500000
 21
1165.500000
 31
0.000000
  6
CONTINUOUS
  0
LINE
  8
WHITE
 10
1269.500000
 20
1165.500000
 30
0.000000
 11
1257.500000
 21
1165.500000
 31
0.000000
  6
CONTINUOUS
  0
LINE
  8
WHITE
 10
1257.500000
 20
1165.500000
 30
0.000000
 11
1257.500000
 21
1173.500000
 31
0.000000
  6
CONTINUOUS
  0
LINE
  8
WHITE
 10
1257.500000
 20
1173.500000
 30
0.000000
 11
1269.500000
 21
1173.500000
 31
0.000000
  6
CONTINUOUS
  0
LINE
  8
WHITE
 10
1269.500000
 20
1173.500000
 30
0.000000
 11
1269.500000
 21
1165.500000
 31
0.000000
  6
CONTINUOUS
  0
LINE
  8
WHITE
 10
1294.500000
 20
1165.500000
 30
0.000000
 11
1282.500000
 21
1165.500000
 31
0.000000
  6
CONTINUOUS
  0
LINE
  8
WHITE
 10
1282.500000
 20
1165.500000
 30
0.000000
 11
1282.500000
 21
1173.500000
 31
0.000000
  6
CONTINUOUS
  0
LINE
  8
WHITE
 10
1282.500000
 20
1173.500000
 30
0.000000
 11
1294.500000
 21
1173.500000
 31
0.000000
  6
CONTINUOUS
  0
LINE
  8
WHITE
 10
1294.500000
 20
1173.500000
 30
0.000000
 11
1294.500000
 21
1165.500000
 31
0.000000
  6
CONTINUOUS
  0
LINE
  8
WHITE
 10
1319.500000
 20
1165.500000
 30
0.000000
 11
1307.500000
 21
1165.500000
 31
0.000000
  6
CONTINUOUS
  0
LINE
  8
WHITE
 10
1307.500000
 20
1165.500000
 30
0.000000
 11
1307.500000
 21
1173.500000
 31
0.000000
  6
CONTINUOUS
  0
LINE
  8
WHITE
 10
1307.500000
 20
1173.500000
 30
0.000000
 11
1319.500000
 21
1173.500000
 31
0.000000
  6
CONTINUOUS
  0
LINE
  8
WHITE
 10
1319.500000
 20
1173.500000
 30
0.000000
 11
1319.500000
 21
1165.500000
 31
0.000000
  6
CONTINUOUS
  0
LINE
  8
WHITE
 10
1344.500000
 20
1165.500000
 30
0.000000
 11
1332.500000
 21
1165.500000
 31
0.000000
  6
CONTINUOUS
  0
LINE
  8
WHITE
 10
1332.500000
 20
1165.500000
 30
0.000000
 11
1332.500000
 21
1173.500000
 31
0.000000
  6
CONTINUOUS
  0
LINE
  8
WHITE
 10
1332.500000
 20
1173.500000
 30
0.000000
 11
1344.500000
 21
1173.500000
 31
0.000000
  6
CONTINUOUS
  0
LINE
  8
WHITE
 10
1344.500000
 20
1173.500000
 30
0.000000
 11
1344.500000
 21
1165.500000
 31
0.000000
  6
CONTINUOUS
  0
LINE
  8
WHITE
 10
1369.500000
 20
1165.500000
 30
0.000000
 11
1357.500000
 21
1165.500000
 31
0.000000
  6
CONTINUOUS
  0
LINE
  8
WHITE
 10
1357.500000
 20
1165.500000
 30
0.000000
 11
1357.500000
 21
1173.500000
 31
0.000000
  6
CONTINUOUS
  0
LINE
  8
WHITE
 10
1357.500000
 20
1173.500000
 30
0.000000
 11
1369.500000
 21
1173.500000
 31
0.000000
  6
CONTINUOUS
  0
LINE
  8
WHITE
 10
1369.500000
 20
1173.500000
 30
0.000000
 11
1369.500000
 21
1165.500000
 31
0.000000
  6
CONTINUOUS
  0
LINE
  8
WHITE
 10
1394.500000
 20
1165.500000
 30
0.000000
 11
1382.500000
 21
1165.500000
 31
0.000000
  6
CONTINUOUS
  0
LINE
  8
WHITE
 10
1382.500000
 20
1165.500000
 30
0.000000
 11
1382.500000
 21
1173.500000
 31
0.000000
  6
CONTINUOUS
  0
LINE
  8
WHITE
 10
1382.500000
 20
1173.500000
 30
0.000000
 11
1394.500000
 21
1173.500000
 31
0.000000
  6
CONTINUOUS
  0
LINE
  8
WHITE
 10
1394.500000
 20
1173.500000
 30
0.000000
 11
1394.500000
 21
1165.500000
 31
0.000000
  6
CONTINUOUS
  0
LINE
  8
WHITE
 10
1419.500000
 20
1165.500000
 30
0.000000
 11
1407.500000
 21
1165.500000
 31
0.000000
  6
CONTINUOUS
  0
LINE
  8
WHITE
 10
1407.500000
 20
1165.500000
 30
0.000000
 11
1407.500000
 21
1173.500000
 31
0.000000
  6
CONTINUOUS
  0
LINE
  8
WHITE
 10
1407.500000
 20
1173.500000
 30
0.000000
 11
1419.500000
 21
1173.500000
 31
0.000000
  6
CONTINUOUS
  0
LINE
  8
WHITE
 10
1419.500000
 20
1173.500000
 30
0.000000
 11
1419.500000
 21
1165.500000
 31
0.000000
  6
CONTINUOUS
  0
LINE
  8
WHITE
 10
1444.500000
 20
1165.500000
 30
0.000000
 11
1432.500000
 21
1165.500000
 31
0.000000
  6
CONTINUOUS
  0
LINE
  8
WHITE
 10
1432.500000
 20
1165.500000
 30
0.000000
 11
1432.500000
 21
1173.500000
 31
0.000000
  6
CONTINUOUS
  0
LINE
  8
WHITE
 10
1432.500000
 20
1173.500000
 30
0.000000
 11
1444.500000
 21
1173.500000
 31
0.000000
  6
CONTINUOUS
  0
LINE
  8
WHITE
 10
1444.500000
 20
1173.500000
 30
0.000000
 11
1444.500000
 21
1165.500000
 31
0.000000
  6
CONTINUOUS
  0
LINE
  8
WHITE
 10
1469.500000
 20
1165.500000
 30
0.000000
 11
1457.500000
 21
1165.500000
 31
0.000000
  6
CONTINUOUS
  0
LINE
  8
WHITE
 10
1457.500000
 20
1165.500000
 30
0.000000
 11
1457.500000
 21
1173.500000
 31
0.000000
  6
CONTINUOUS
  0
LINE
  8
WHITE
 10
1457.500000
 20
1173.500000
 30
0.000000
 11
1469.500000
 21
1173.500000
 31
0.000000
  6
CONTINUOUS
  0
LINE
  8
WHITE
 10
1469.500000
 20
1173.500000
 30
0.000000
 11
1469.500000
 21
1165.500000
 31
0.000000
  6
CONTINUOUS
  0
LINE
  8
WHITE
 10
1494.500000
 20
1165.500000
 30
0.000000
 11
1482.500000
 21
1165.500000
 31
0.000000
  6
CONTINUOUS
  0
LINE
  8
WHITE
 10
1482.500000
 20
1165.500000
 30
0.000000
 11
1482.500000
 21
1173.500000
 31
0.000000
  6
CONTINUOUS
  0
LINE
  8
WHITE
 10
1482.500000
 20
1173.500000
 30
0.000000
 11
1494.500000
 21
1173.500000
 31
0.000000
  6
CONTINUOUS
  0
LINE
  8
WHITE
 10
1494.500000
 20
1173.500000
 30
0.000000
 11
1494.500000
 21
1165.500000
 31
0.000000
  6
CONTINUOUS
  0
LINE
  8
WHITE
 10
1519.500000
 20
1165.500000
 30
0.000000
 11
1507.500000
 21
1165.500000
 31
0.000000
  6
CONTINUOUS
  0
LINE
  8
WHITE
 10
1507.500000
 20
1165.500000
 30
0.000000
 11
1507.500000
 21
1173.500000
 31
0.000000
  6
CONTINUOUS
  0
LINE
  8
WHITE
 10
1507.500000
 20
1173.500000
 30
0.000000
 11
1519.500000
 21
1173.500000
 31
0.000000
  6
CONTINUOUS
  0
LINE
  8
WHITE
 10
1519.500000
 20
1173.500000
 30
0.000000
 11
1519.500000
 21
1165.500000
 31
0.000000
  6
CONTINUOUS
  0
LINE
  8
WHITE
 10
1544.500000
 20
1165.500000
 30
0.000000
 11
1532.500000
 21
1165.500000
 31
0.000000
  6
CONTINUOUS
  0
LINE
  8
WHITE
 10
1532.500000
 20
1165.500000
 30
0.000000
 11
1532.500000
 21
1173.500000
 31
0.000000
  6
CONTINUOUS
  0
LINE
  8
WHITE
 10
1532.500000
 20
1173.500000
 30
0.000000
 11
1544.500000
 21
1173.500000
 31
0.000000
  6
CONTINUOUS
  0
LINE
  8
WHITE
 10
1544.500000
 20
1173.500000
 30
0.000000
 11
1544.500000
 21
1165.500000
 31
0.000000
  6
CONTINUOUS
  0
LINE
  8
WHITE
 10
1569.500000
 20
1165.500000
 30
0.000000
 11
1557.500000
 21
1165.500000
 31
0.000000
  6
CONTINUOUS
  0
LINE
  8
WHITE
 10
1557.500000
 20
1165.500000
 30
0.000000
 11
1557.500000
 21
1173.500000
 31
0.000000
  6
CONTINUOUS
  0
LINE
  8
WHITE
 10
1557.500000
 20
1173.500000
 30
0.000000
 11
1569.500000
 21
1173.500000
 31
0.000000
  6
CONTINUOUS
  0
LINE
  8
WHITE
 10
1569.500000
 20
1173.500000
 30
0.000000
 11
1569.500000
 21
1165.500000
 31
0.000000
  6
CONTINUOUS
  0
LINE
  8
WHITE
 10
1594.500000
 20
1165.500000
 30
0.000000
 11
1582.500000
 21
1165.500000
 31
0.000000
  6
CONTINUOUS
  0
LINE
  8
WHITE
 10
1582.500000
 20
1165.500000
 30
0.000000
 11
1582.500000
 21
1173.500000
 31
0.000000
  6
CONTINUOUS
  0
LINE
  8
WHITE
 10
1582.500000
 20
1173.500000
 30
0.000000
 11
1594.500000
 21
1173.500000
 31
0.000000
  6
CONTINUOUS
  0
LINE
  8
WHITE
 10
1594.500000
 20
1173.500000
 30
0.000000
 11
1594.500000
 21
1165.500000
 31
0.000000
  6
CONTINUOUS
  0
LINE
  8
WHITE
 10
1619.500000
 20
1165.500000
 30
0.000000
 11
1607.500000
 21
1165.500000
 31
0.000000
  6
CONTINUOUS
  0
LINE
  8
WHITE
 10
1607.500000
 20
1165.500000
 30
0.000000
 11
1607.500000
 21
1173.500000
 31
0.000000
  6
CONTINUOUS
  0
LINE
  8
WHITE
 10
1607.500000
 20
1173.500000
 30
0.000000
 11
1619.500000
 21
1173.500000
 31
0.000000
  6
CONTINUOUS
  0
LINE
  8
WHITE
 10
1619.500000
 20
1173.500000
 30
0.000000
 11
1619.500000
 21
1165.500000
 31
0.000000
  6
CONTINUOUS
  0
LINE
  8
WHITE
 10
1644.500000
 20
1165.500000
 30
0.000000
 11
1632.500000
 21
1165.500000
 31
0.000000
  6
CONTINUOUS
  0
LINE
  8
WHITE
 10
1632.500000
 20
1165.500000
 30
0.000000
 11
1632.500000
 21
1173.500000
 31
0.000000
  6
CONTINUOUS
  0
LINE
  8
WHITE
 10
1632.500000
 20
1173.500000
 30
0.000000
 11
1644.500000
 21
1173.500000
 31
0.000000
  6
CONTINUOUS
  0
LINE
  8
WHITE
 10
1644.500000
 20
1173.500000
 30
0.000000
 11
1644.500000
 21
1165.500000
 31
0.000000
  6
CONTINUOUS
  0
LINE
  8
WHITE
 10
1694.500000
 20
1165.500000
 30
0.000000
 11
1682.500000
 21
1165.500000
 31
0.000000
  6
CONTINUOUS
  0
LINE
  8
WHITE
 10
1682.500000
 20
1165.500000
 30
0.000000
 11
1682.500000
 21
1173.500000
 31
0.000000
  6
CONTINUOUS
  0
LINE
  8
WHITE
 10
1682.500000
 20
1173.500000
 30
0.000000
 11
1694.500000
 21
1173.500000
 31
0.000000
  6
CONTINUOUS
  0
LINE
  8
WHITE
 10
1694.500000
 20
1173.500000
 30
0.000000
 11
1694.500000
 21
1165.500000
 31
0.000000
  6
CONTINUOUS
  0
LINE
  8
WHITE
 10
1719.500000
 20
1165.500000
 30
0.000000
 11
1707.500000
 21
1165.500000
 31
0.000000
  6
CONTINUOUS
  0
LINE
  8
WHITE
 10
1707.500000
 20
1165.500000
 30
0.000000
 11
1707.500000
 21
1173.500000
 31
0.000000
  6
CONTINUOUS
  0
LINE
  8
WHITE
 10
1707.500000
 20
1173.500000
 30
0.000000
 11
1719.500000
 21
1173.500000
 31
0.000000
  6
CONTINUOUS
  0
LINE
  8
WHITE
 10
1719.500000
 20
1173.500000
 30
0.000000
 11
1719.500000
 21
1165.500000
 31
0.000000
  6
CONTINUOUS
  0
LINE
  8
WHITE
 10
134.500000
 20
1173.500000
 30
0.000000
 11
142.500000
 21
1173.500000
 31
0.000000
  6
CONTINUOUS
  0
LINE
  8
WHITE
 10
142.500000
 20
1173.500000
 30
0.000000
 11
142.500000
 21
1165.500000
 31
0.000000
  6
CONTINUOUS
  0
LINE
  8
WHITE
 10
142.500000
 20
1165.500000
 30
0.000000
 11
134.500000
 21
1165.500000
 31
0.000000
  6
CONTINUOUS
  0
LINE
  8
WHITE
 10
134.500000
 20
1165.500000
 30
0.000000
 11
134.500000
 21
1173.500000
 31
0.000000
  6
CONTINUOUS
  0
LINE
  8
WHITE
 10
642.500000
 20
1165.500000
 30
0.000000
 11
634.500000
 21
1165.500000
 31
0.000000
  6
CONTINUOUS
  0
LINE
  8
WHITE
 10
634.500000
 20
1165.500000
 30
0.000000
 11
634.500000
 21
1173.500000
 31
0.000000
  6
CONTINUOUS
  0
LINE
  8
WHITE
 10
634.500000
 20
1173.500000
 30
0.000000
 11
642.500000
 21
1173.500000
 31
0.000000
  6
CONTINUOUS
  0
LINE
  8
WHITE
 10
642.500000
 20
1173.500000
 30
0.000000
 11
642.500000
 21
1165.500000
 31
0.000000
  6
CONTINUOUS
  0
LINE
  8
WHITE
 10
1167.500000
 20
1165.500000
 30
0.000000
 11
1159.500000
 21
1165.500000
 31
0.000000
  6
CONTINUOUS
  0
LINE
  8
WHITE
 10
1159.500000
 20
1165.500000
 30
0.000000
 11
1159.500000
 21
1173.500000
 31
0.000000
  6
CONTINUOUS
  0
LINE
  8
WHITE
 10
1159.500000
 20
1173.500000
 30
0.000000
 11
1167.500000
 21
1173.500000
 31
0.000000
  6
CONTINUOUS
  0
LINE
  8
WHITE
 10
1167.500000
 20
1173.500000
 30
0.000000
 11
1167.500000
 21
1165.500000
 31
0.000000
  6
CONTINUOUS
  0
LINE
  8
WHITE
 10
1659.500000
 20
1165.500000
 30
0.000000
 11
1659.500000
 21
1173.500000
 31
0.000000
  6
CONTINUOUS
  0
LINE
  8
WHITE
 10
1659.500000
 20
1173.500000
 30
0.000000
 11
1667.500000
 21
1173.500000
 31
0.000000
  6
CONTINUOUS
  0
LINE
  8
WHITE
 10
1667.500000
 20
1173.500000
 30
0.000000
 11
1667.500000
 21
1165.500000
 31
0.000000
  6
CONTINUOUS
  0
LINE
  8
WHITE
 10
1667.500000
 20
1165.500000
 30
0.000000
 11
1659.500000
 21
1165.500000
 31
0.000000
  6
CONTINUOUS
  0
LINE
  8
WHITE
 10
1837.000000
 20
73.000000
 30
0.000000
 11
1860.100000
 21
49.900000
 31
0.000000
  6
CONTINUOUS
  0
LINE
  8
WHITE
 10
1860.100000
 20
49.900000
 30
0.000000
 11
1862.171163
 21
48.522926
 31
0.000000
  6
CONTINUOUS
  0
LINE
  8
WHITE
 10
1862.171163
 20
48.522926
 30
0.000000
 11
1864.113000
 21
48.000000
 31
0.000000
  6
CONTINUOUS
  0
LINE
  8
WHITE
 10
1864.113000
 20
48.000000
 30
0.000000
 11
1887.326000
 21
48.000000
 31
0.000000
  6
CONTINUOUS
  0
LINE
  8
WHITE
 10
1887.326000
 20
48.000000
 30
0.000000
 11
1887.326000
 21
47.000000
 31
0.000000
  6
CONTINUOUS
  0
LINE
  8
WHITE
 10
1887.326000
 20
47.000000
 30
0.000000
 11
1885.426000
 21
47.000000
 31
0.000000
  6
CONTINUOUS
  0
LINE
  8
WHITE
 10
1885.426000
 20
47.000000
 30
0.000000
 11
1885.426000
 21
4.000000
 31
0.000000
  6
CONTINUOUS
  0
LINE
  8
WHITE
 10
1885.426000
 20
4.000000
 30
0.000000
 11
1925.426000
 21
4.000000
 31
0.000000
  6
CONTINUOUS
  0
ARC
  8
WHITE
 10
1925.426000
 20
8.000000
 30
0.000000
 40
4.000000
 50
-90.000000
 51
0.000000
  6
CONTINUOUS
  0
LINE
  8
WHITE
 10
1929.426000
 20
8.000000
 30
0.000000
 11
1929.426000
 21
12.000000
 31
0.000000
  6
CONTINUOUS
  0
LINE
  8
WHITE
 10
1929.426000
 20
12.000000
 30
0.000000
 11
1925.526000
 21
12.000000
 31
0.000000
  6
CONTINUOUS
  0
LINE
  8
WHITE
 10
1925.526000
 20
12.000000
 30
0.000000
 11
1925.526000
 21
13.000000
 31
0.000000
  6
CONTINUOUS
  0
LINE
  8
WHITE
 10
1925.526000
 20
13.000000
 30
0.000000
 11
1936.639000
 21
13.000000
 31
0.000000
  6
CONTINUOUS
  0
LINE
  8
WHITE
 10
1936.639000
 20
13.000000
 30
0.000000
 11
1962.639000
 21
46.000000
 31
0.000000
  6
CONTINUOUS
  0
LINE
  8
WHITE
 10
1962.639000
 20
46.000000
 30
0.000000
 11
1969.039005
 21
46.000000
 31
0.000000
  6
CONTINUOUS
  0
LINE
  8
WHITE
 10
1969.039005
 20
46.000000
 30
0.000000
 11
1971.752000
 21
48.000000
 31
0.000000
  6
CONTINUOUS
  0
LINE
  8
WHITE
 10
1971.752000
 20
48.000000
 30
0.000000
 11
1990.952000
 21
48.000000
 31
0.000000
  6
CONTINUOUS
  0
LINE
  8
WHITE
 10
1990.952000
 20
48.000000
 30
0.000000
 11
1993.319376
 21
48.759026
 31
0.000000
  6
CONTINUOUS
  0
LINE
  8
WHITE
 10
1993.319376
 20
48.759026
 30
0.000000
 11
1994.965000
 21
49.900000
 31
0.000000
  6
CONTINUOUS
  0
LINE
  8
WHITE
 10
1994.965000
 20
49.900000
 30
0.000000
 11
2018.065000
 21
73.000000
 31
0.000000
  6
CONTINUOUS
  0
LINE
  8
WHITE
 10
2018.065000
 20
73.000000
 30
0.000000
 11
2018.065000
 21
731.000000
 31
0.000000
  6
CONTINUOUS
  0
LINE
  8
WHITE
 10
2018.065000
 20
731.000000
 30
0.000000
 11
1994.965000
 21
754.100000
 31
0.000000
  6
CONTINUOUS
  0
LINE
  8
WHITE
 10
1994.965000
 20
754.100000
 30
0.000000
 11
1993.319376
 21
755.240974
 31
0.000000
  6
CONTINUOUS
  0
LINE
  8
WHITE
 10
1993.319376
 20
755.240974
 30
0.000000
 11
1990.952000
 21
756.000000
 31
0.000000
  6
CONTINUOUS
  0
LINE
  8
WHITE
 10
1990.952000
 20
756.000000
 30
0.000000
 11
1971.752000
 21
756.000000
 31
0.000000
  6
CONTINUOUS
  0
LINE
  8
WHITE
 10
1971.752000
 20
756.000000
 30
0.000000
 11
1969.039005
 21
758.000000
 31
0.000000
  6
CONTINUOUS
  0
LINE
  8
WHITE
 10
1969.039005
 20
758.000000
 30
0.000000
 11
1962.639000
 21
758.000000
 31
0.000000
  6
CONTINUOUS
  0
LINE
  8
WHITE
 10
1962.639000
 20
758.000000
 30
0.000000
 11
1936.639000
 21
791.000000
 31
0.000000
  6
CONTINUOUS
  0
LINE
  8
WHITE
 10
1936.639000
 20
791.000000
 30
0.000000
 11
1925.526000
 21
791.000000
 31
0.000000
  6
CONTINUOUS
  0
LINE
  8
WHITE
 10
1925.526000
 20
791.000000
 30
0.000000
 11
1925.526000
 21
792.000000
 31
0.000000
  6
CONTINUOUS
  0
LINE
  8
WHITE
 10
1925.526000
 20
792.000000
 30
0.000000
 11
1929.426000
 21
792.000000
 31
0.000000
  6
CONTINUOUS
  0
LINE
  8
WHITE
 10
1929.426000
 20
792.000000
 30
0.000000
 11
1929.426000
 21
796.000000
 31
0.000000
  6
CONTINUOUS
  0
ARC
  8
WHITE
 10
1925.426000
 20
796.000000
 30
0.000000
 40
4.000000
 50
0.000000
 51
90.000000
  6
CONTINUOUS
  0
LINE
  8
WHITE
 10
1925.426000
 20
800.000000
 30
0.000000
 11
1885.426000
 21
800.000000
 31
0.000000
  6
CONTINUOUS
  0
LINE
  8
WHITE
 10
1885.426000
 20
800.000000
 30
0.000000
 11
1885.426000
 21
757.000000
 31
0.000000
  6
CONTINUOUS
  0
LINE
  8
WHITE
 10
1885.426000
 20
757.000000
 30
0.000000
 11
1887.326000
 21
757.000000
 31
0.000000
  6
CONTINUOUS
  0
LINE
  8
WHITE
 10
1887.326000
 20
757.000000
 30
0.000000
 11
1887.326000
 21
756.000000
 31
0.000000
  6
CONTINUOUS
  0
LINE
  8
WHITE
 10
1887.326000
 20
756.000000
 30
0.000000
 11
1864.113000
 21
756.000000
 31
0.000000
  6
CONTINUOUS
  0
LINE
  8
WHITE
 10
1864.113000
 20
756.000000
 30
0.000000
 11
1862.171163
 21
755.477074
 31
0.000000
  6
CONTINUOUS
  0
LINE
  8
WHITE
 10
1862.171163
 20
755.477074
 30
0.000000
 11
1860.100000
 21
754.100000
 31
0.000000
  6
CONTINUOUS
  0
LINE
  8
WHITE
 10
1860.100000
 20
754.100000
 30
0.000000
 11
1837.000000
 21
731.000000
 31
0.000000
  6
CONTINUOUS
  0
LINE
  8
WHITE
 10
1837.000000
 20
731.000000
 30
0.000000
 11
1837.000000
 21
73.000000
 31
0.000000
  6
CONTINUOUS
  0
CIRCLE
  8
WHITE
 10
1906.426000
 20
29.500000
 30
0.000000
 40
7.000000
  6
CONTINUOUS
  0
CIRCLE
  8
WHITE
 10
1906.426000
 20
774.500000
 30
0.000000
 40
7.000000
  6
CONTINUOUS
  0
LINE
  8
WHITE
 10
2023.000000
 20
73.000000
 30
0.000000
 11
2046.100000
 21
49.900000
 31
0.000000
  6
CONTINUOUS
  0
LINE
  8
WHITE
 10
2046.100000
 20
49.900000
 30
0.000000
 11
2048.171163
 21
48.522926
 31
0.000000
  6
CONTINUOUS
  0
LINE
  8
WHITE
 10
2048.171163
 20
48.522926
 30
0.000000
 11
2050.113000
 21
48.000000
 31
0.000000
  6
CONTINUOUS
  0
LINE
  8
WHITE
 10
2050.113000
 20
48.000000
 30
0.000000
 11
2073.326000
 21
48.000000
 31
0.000000
  6
CONTINUOUS
  0
LINE
  8
WHITE
 10
2073.326000
 20
48.000000
 30
0.000000
 11
2073.326000
 21
47.000000
 31
0.000000
  6
CONTINUOUS
  0
LINE
  8
WHITE
 10
2073.326000
 20
47.000000
 30
0.000000
 11
2071.426000
 21
47.000000
 31
0.000000
  6
CONTINUOUS
  0
LINE
  8
WHITE
 10
2071.426000
 20
47.000000
 30
0.000000
 11
2071.426000
 21
4.000000
 31
0.000000
  6
CONTINUOUS
  0
LINE
  8
WHITE
 10
2071.426000
 20
4.000000
 30
0.000000
 11
2111.426000
 21
4.000000
 31
0.000000
  6
CONTINUOUS
  0
ARC
  8
WHITE
 10
2111.426000
 20
8.000000
 30
0.000000
 40
4.000000
 50
-90.000000
 51
0.000000
  6
CONTINUOUS
  0
LINE
  8
WHITE
 10
2115.426000
 20
8.000000
 30
0.000000
 11
2115.426000
 21
12.000000
 31
0.000000
  6
CONTINUOUS
  0
LINE
  8
WHITE
 10
2115.426000
 20
12.000000
 30
0.000000
 11
2111.526000
 21
12.000000
 31
0.000000
  6
CONTINUOUS
  0
LINE
  8
WHITE
 10
2111.526000
 20
12.000000
 30
0.000000
 11
2111.526000
 21
13.000000
 31
0.000000
  6
CONTINUOUS
  0
LINE
  8
WHITE
 10
2111.526000
 20
13.000000
 30
0.000000
 11
2122.639000
 21
13.000000
 31
0.000000
  6
CONTINUOUS
  0
LINE
  8
WHITE
 10
2122.639000
 20
13.000000
 30
0.000000
 11
2148.639000
 21
46.000000
 31
0.000000
  6
CONTINUOUS
  0
LINE
  8
WHITE
 10
2148.639000
 20
46.000000
 30
0.000000
 11
2155.039005
 21
46.000000
 31
0.000000
  6
CONTINUOUS
  0
LINE
  8
WHITE
 10
2155.039005
 20
46.000000
 30
0.000000
 11
2157.752000
 21
48.000000
 31
0.000000
  6
CONTINUOUS
  0
LINE
  8
WHITE
 10
2157.752000
 20
48.000000
 30
0.000000
 11
2176.952000
 21
48.000000
 31
0.000000
  6
CONTINUOUS
  0
LINE
  8
WHITE
 10
2176.952000
 20
48.000000
 30
0.000000
 11
2179.319376
 21
48.759026
 31
0.000000
  6
CONTINUOUS
  0
LINE
  8
WHITE
 10
2179.319376
 20
48.759026
 30
0.000000
 11
2180.965000
 21
49.900000
 31
0.000000
  6
CONTINUOUS
  0
LINE
  8
WHITE
 10
2180.965000
 20
49.900000
 30
0.000000
 11
2204.065000
 21
73.000000
 31
0.000000
  6
CONTINUOUS
  0
LINE
  8
WHITE
 10
2204.065000
 20
73.000000
 30
0.000000
 11
2204.065000
 21
731.000000
 31
0.000000
  6
CONTINUOUS
  0
LINE
  8
WHITE
 10
2204.065000
 20
731.000000
 30
0.000000
 11
2180.965000
 21
754.100000
 31
0.000000
  6
CONTINUOUS
  0
LINE
  8
WHITE
 10
2180.965000
 20
754.100000
 30
0.000000
 11
2179.319376
 21
755.240974
 31
0.000000
  6
CONTINUOUS
  0
LINE
  8
WHITE
 10
2179.319376
 20
755.240974
 30
0.000000
 11
2176.952000
 21
756.000000
 31
0.000000
  6
CONTINUOUS
  0
LINE
  8
WHITE
 10
2176.952000
 20
756.000000
 30
0.000000
 11
2157.752000
 21
756.000000
 31
0.000000
  6
CONTINUOUS
  0
LINE
  8
WHITE
 10
2157.752000
 20
756.000000
 30
0.000000
 11
2155.039005
 21
758.000000
 31
0.000000
  6
CONTINUOUS
  0
LINE
  8
WHITE
 10
2155.039005
 20
758.000000
 30
0.000000
 11
2148.639000
 21
758.000000
 31
0.000000
  6
CONTINUOUS
  0
LINE
  8
WHITE
 10
2148.639000
 20
758.000000
 30
0.000000
 11
2122.639000
 21
791.000000
 31
0.000000
  6
CONTINUOUS
  0
LINE
  8
WHITE
 10
2122.639000
 20
791.000000
 30
0.000000
 11
2111.526000
 21
791.000000
 31
0.000000
  6
CONTINUOUS
  0
LINE
  8
WHITE
 10
2111.526000
 20
791.000000
 30
0.000000
 11
2111.526000
 21
792.000000
 31
0.000000
  6
CONTINUOUS
  0
LINE
  8
WHITE
 10
2111.526000
 20
792.000000
 30
0.000000
 11
2115.426000
 21
792.000000
 31
0.000000
  6
CONTINUOUS
  0
LINE
  8
WHITE
 10
2115.426000
 20
792.000000
 30
0.000000
 11
2115.426000
 21
796.000000
 31
0.000000
  6
CONTINUOUS
  0
ARC
  8
WHITE
 10
2111.426000
 20
796.000000
 30
0.000000
 40
4.000000
 50
0.000000
 51
90.000000
  6
CONTINUOUS
  0
LINE
  8
WHITE
 10
2111.426000
 20
800.000000
 30
0.000000
 11
2071.426000
 21
800.000000
 31
0.000000
  6
CONTINUOUS
  0
LINE
  8
WHITE
 10
2071.426000
 20
800.000000
 30
0.000000
 11
2071.426000
 21
757.000000
 31
0.000000
  6
CONTINUOUS
  0
LINE
  8
WHITE
 10
2071.426000
 20
757.000000
 30
0.000000
 11
2073.326000
 21
757.000000
 31
0.000000
  6
CONTINUOUS
  0
LINE
  8
WHITE
 10
2073.326000
 20
757.000000
 30
0.000000
 11
2073.326000
 21
756.000000
 31
0.000000
  6
CONTINUOUS
  0
LINE
  8
WHITE
 10
2073.326000
 20
756.000000
 30
0.000000
 11
2050.113000
 21
756.000000
 31
0.000000
  6
CONTINUOUS
  0
LINE
  8
WHITE
 10
2050.113000
 20
756.000000
 30
0.000000
 11
2048.171163
 21
755.477074
 31
0.000000
  6
CONTINUOUS
  0
LINE
  8
WHITE
 10
2048.171163
 20
755.477074
 30
0.000000
 11
2046.100000
 21
754.100000
 31
0.000000
  6
CONTINUOUS
  0
LINE
  8
WHITE
 10
2046.100000
 20
754.100000
 30
0.000000
 11
2023.000000
 21
731.000000
 31
0.000000
  6
CONTINUOUS
  0
LINE
  8
WHITE
 10
2023.000000
 20
731.000000
 30
0.000000
 11
2023.000000
 21
73.000000
 31
0.000000
  6
CONTINUOUS
  0
CIRCLE
  8
WHITE
 10
2092.426000
 20
29.500000
 30
0.000000
 40
7.000000
  6
CONTINUOUS
  0
CIRCLE
  8
WHITE
 10
2092.426000
 20
774.500000
 30
0.000000
 40
7.000000
  6
CONTINUOUS
  0
LINE
  8
WHITE
 10
2218.733249
 20
757.361332
 30
0.000000
 11
2209.000000
 21
763.874147
 31
0.000000
  6
CONTINUOUS
  0
LINE
  8
WHITE
 10
2209.000000
 20
763.874147
 30
0.000000
 11
2209.000000
 21
40.125853
 31
0.000000
  6
CONTINUOUS
  0
LINE
  8
WHITE
 10
2209.000000
 20
40.125853
 30
0.000000
 11
2218.733249
 21
46.638668
 31
0.000000
  6
CONTINUOUS
  0
LINE
  8
WHITE
 10
2218.733249
 20
46.638668
 30
0.000000
 11
2221.782561
 21
48.000000
 31
0.000000
  6
CONTINUOUS
  0
LINE
  8
WHITE
 10
2221.782561
 20
48.000000
 30
0.000000
 11
2241.844565
 21
48.000000
 31
0.000000
  6
CONTINUOUS
  0
LINE
  8
WHITE
 10
2241.844565
 20
48.000000
 30
0.000000
 11
2267.728809
 21
13.000000
 31
0.000000
  6
CONTINUOUS
  0
LINE
  8
WHITE
 10
2267.728809
 20
13.000000
 30
0.000000
 11
2278.841809
 21
13.000000
 31
0.000000
  6
CONTINUOUS
  0
LINE
  8
WHITE
 10
2278.841809
 20
13.000000
 30
0.000000
 11
2278.841809
 21
12.000000
 31
0.000000
  6
CONTINUOUS
  0
LINE
  8
WHITE
 10
2278.841809
 20
12.000000
 30
0.000000
 11
2274.941809
 21
12.000000
 31
0.000000
  6
CONTINUOUS
  0
LINE
  8
WHITE
 10
2274.941809
 20
12.000000
 30
0.000000
 11
2274.941809
 21
8.000000
 31
0.000000
  6
CONTINUOUS
  0
ARC
  8
WHITE
 10
2278.941809
 20
8.000000
 30
0.000000
 40
4.000000
 50
180.000000
 51
270.000000
  6
CONTINUOUS
  0
LINE
  8
WHITE
 10
2278.941809
 20
4.000000
 30
0.000000
 11
2318.941809
 21
4.000000
 31
0.000000
  6
CONTINUOUS
  0
LINE
  8
WHITE
 10
2318.941809
 20
4.000000
 30
0.000000
 11
2318.941809
 21
47.000000
 31
0.000000
  6
CONTINUOUS
  0
LINE
  8
WHITE
 10
2318.941809
 20
47.000000
 30
0.000000
 11
2317.041809
 21
47.000000
 31
0.000000
  6
CONTINUOUS
  0
LINE
  8
WHITE
 10
2317.041809
 20
47.000000
 30
0.000000
 11
2317.041809
 21
48.000000
 31
0.000000
  6
CONTINUOUS
  0
LINE
  8
WHITE
 10
2317.041809
 20
48.000000
 30
0.000000
 11
2340.254809
 21
48.000000
 31
0.000000
  6
CONTINUOUS
  0
LINE
  8
WHITE
 10
2340.254809
 20
48.000000
 30
0.000000
 11
2342.616383
 21
48.754522
 31
0.000000
  6
CONTINUOUS
  0
LINE
  8
WHITE
 10
2342.616383
 20
48.754522
 30
0.000000
 11
2344.267809
 21
49.900000
 31
0.000000
  6
CONTINUOUS
  0
LINE
  8
WHITE
 10
2344.267809
 20
49.900000
 30
0.000000
 11
2367.367809
 21
73.000000
 31
0.000000
  6
CONTINUOUS
  0
LINE
  8
WHITE
 10
2367.367809
 20
73.000000
 30
0.000000
 11
2367.367809
 21
731.000000
 31
0.000000
  6
CONTINUOUS
  0
LINE
  8
WHITE
 10
2367.367809
 20
731.000000
 30
0.000000
 11
2344.267809
 21
754.100000
 31
0.000000
  6
CONTINUOUS
  0
LINE
  8
WHITE
 10
2344.267809
 20
754.100000
 30
0.000000
 11
2342.190537
 21
755.470847
 31
0.000000
  6
CONTINUOUS
  0
LINE
  8
WHITE
 10
2342.190537
 20
755.470847
 30
0.000000
 11
2340.254809
 21
756.000000
 31
0.000000
  6
CONTINUOUS
  0
LINE
  8
WHITE
 10
2340.254809
 20
756.000000
 30
0.000000
 11
2317.041809
 21
756.000000
 31
0.000000
  6
CONTINUOUS
  0
LINE
  8
WHITE
 10
2317.041809
 20
756.000000
 30
0.000000
 11
2317.041809
 21
757.000000
 31
0.000000
  6
CONTINUOUS
  0
LINE
  8
WHITE
 10
2317.041809
 20
757.000000
 30
0.000000
 11
2318.941809
 21
757.000000
 31
0.000000
  6
CONTINUOUS
  0
LINE
  8
WHITE
 10
2318.941809
 20
757.000000
 30
0.000000
 11
2318.941809
 21
800.000000
 31
0.000000
  6
CONTINUOUS
  0
LINE
  8
WHITE
 10
2318.941809
 20
800.000000
 30
0.000000
 11
2278.941809
 21
800.000000
 31
0.000000
  6
CONTINUOUS
  0
ARC
  8
WHITE
 10
2278.941809
 20
796.000000
 30
0.000000
 40
4.000000
 50
90.000000
 51
180.000000
  6
CONTINUOUS
  0
LINE
  8
WHITE
 10
2274.941809
 20
796.000000
 30
0.000000
 11
2274.941809
 21
792.000000
 31
0.000000
  6
CONTINUOUS
  0
LINE
  8
WHITE
 10
2274.941809
 20
792.000000
 30
0.000000
 11
2278.841809
 21
792.000000
 31
0.000000
  6
CONTINUOUS
  0
LINE
  8
WHITE
 10
2278.841809
 20
792.000000
 30
0.000000
 11
2278.841809
 21
791.000000
 31
0.000000
  6
CONTINUOUS
  0
LINE
  8
WHITE
 10
2278.841809
 20
791.000000
 30
0.000000
 11
2267.728809
 21
791.000000
 31
0.000000
  6
CONTINUOUS
  0
LINE
  8
WHITE
 10
2267.728809
 20
791.000000
 30
0.000000
 11
2241.844565
 21
756.000000
 31
0.000000
  6
CONTINUOUS
  0
LINE
  8
WHITE
 10
2241.844565
 20
756.000000
 30
0.000000
 11
2221.782561
 21
756.000000
 31
0.000000
  6
CONTINUOUS
  0
LINE
  8
WHITE
 10
2221.782561
 20
756.000000
 30
0.000000
 11
2218.733249
 21
757.361332
 31
0.000000
  6
CONTINUOUS
  0
CIRCLE
  8
WHITE
 10
2297.941809
 20
29.500000
 30
0.000000
 40
7.000000
  6
CONTINUOUS
  0
CIRCLE
  8
WHITE
 10
2297.941809
 20
774.500000
 30
0.000000
 40
7.000000
  6
CONTINUOUS
  0
LINE
  8
WHITE
 10
2286.000000
 20
924.935000
 30
0.000000
 11
2309.100000
 21
948.035000
 31
0.000000
  6
CONTINUOUS
  0
LINE
  8
WHITE
 10
2309.100000
 20
948.035000
 30
0.000000
 11
2310.477074
 21
950.106163
 31
0.000000
  6
CONTINUOUS
  0
LINE
  8
WHITE
 10
2310.477074
 20
950.106163
 30
0.000000
 11
2311.000000
 21
952.048000
 31
0.000000
  6
CONTINUOUS
  0
LINE
  8
WHITE
 10
2311.000000
 20
952.048000
 30
0.000000
 11
2311.000000
 21
975.261000
 31
0.000000
  6
CONTINUOUS
  0
LINE
  8
WHITE
 10
2311.000000
 20
975.261000
 30
0.000000
 11
2312.000000
 21
975.261000
 31
0.000000
  6
CONTINUOUS
  0
LINE
  8
WHITE
 10
2312.000000
 20
975.261000
 30
0.000000
 11
2312.000000
 21
973.361000
 31
0.000000
  6
CONTINUOUS
  0
LINE
  8
WHITE
 10
2312.000000
 20
973.361000
 30
0.000000
 11
2355.000000
 21
973.361000
 31
0.000000
  6
CONTINUOUS
  0
LINE
  8
WHITE
 10
2355.000000
 20
973.361000
 30
0.000000
 11
2355.000000
 21
1013.161000
 31
0.000000
  6
CONTINUOUS
  0
LINE
  8
WHITE
 10
2355.000000
 20
1013.161000
 30
0.000000
 11
2357.000000
 21
1013.161000
 31
0.000000
  6
CONTINUOUS
  0
LINE
  8
WHITE
 10
2357.000000
 20
1013.161000
 30
0.000000
 11
2357.000000
 21
1013.461000
 31
0.000000
  6
CONTINUOUS
  0
LINE
  8
WHITE
 10
2357.000000
 20
1013.461000
 30
0.000000
 11
2355.000000
 21
1013.461000
 31
0.000000
  6
CONTINUOUS
  0
ARC
  8
WHITE
 10
2351.001250
 20
1013.361000
 30
0.000000
 40
4.000000
 50
1.432544
 51
90.000000
  6
CONTINUOUS
  0
LINE
  8
WHITE
 10
2351.001250
 20
1017.361000
 30
0.000000
 11
2347.000000
 21
1017.361000
 31
0.000000
  6
CONTINUOUS
  0
LINE
  8
WHITE
 10
2347.000000
 20
1017.361000
 30
0.000000
 11
2347.000000
 21
1013.461000
 31
0.000000
  6
CONTINUOUS
  0
LINE
  8
WHITE
 10
2347.000000
 20
1013.461000
 30
0.000000
 11
2346.000000
 21
1013.461000
 31
0.000000
  6
CONTINUOUS
  0
LINE
  8
WHITE
 10
2346.000000
 20
1013.461000
 30
0.000000
 11
2346.000000
 21
1024.574000
 31
0.000000
  6
CONTINUOUS
  0
LINE
  8
WHITE
 10
2346.000000
 20
1024.574000
 30
0.000000
 11
2313.000000
 21
1050.574000
 31
0.000000
  6
CONTINUOUS
  0
LINE
  8
WHITE
 10
2313.000000
 20
1050.574000
 30
0.000000
 11
2313.000000
 21
1056.974005
 31
0.000000
  6
CONTINUOUS
  0
LINE
  8
WHITE
 10
2313.000000
 20
1056.974005
 30
0.000000
 11
2311.000000
 21
1059.687000
 31
0.000000
  6
CONTINUOUS
  0
LINE
  8
WHITE
 10
2311.000000
 20
1059.687000
 30
0.000000
 11
2311.000000
 21
1078.887000
 31
0.000000
  6
CONTINUOUS
  0
LINE
  8
WHITE
 10
2311.000000
 20
1078.887000
 30
0.000000
 11
2310.240974
 21
1081.254376
 31
0.000000
  6
CONTINUOUS
  0
LINE
  8
WHITE
 10
2310.240974
 20
1081.254376
 30
0.000000
 11
2309.100000
 21
1082.900000
 31
0.000000
  6
CONTINUOUS
  0
LINE
  8
WHITE
 10
2309.100000
 20
1082.900000
 30
0.000000
 11
2286.000000
 21
1106.000000
 31
0.000000
  6
CONTINUOUS
  0
LINE
  8
WHITE
 10
2286.000000
 20
1106.000000
 30
0.000000
 11
1828.000000
 21
1106.000000
 31
0.000000
  6
CONTINUOUS
  0
LINE
  8
WHITE
 10
1828.000000
 20
1106.000000
 30
0.000000
 11
1804.900000
 21
1082.900000
 31
0.000000
  6
CONTINUOUS
  0
LINE
  8
WHITE
 10
1804.900000
 20
1082.900000
 30
0.000000
 11
1803.759026
 21
1081.254376
 31
0.000000
  6
CONTINUOUS
  0
LINE
  8
WHITE
 10
1803.759026
 20
1081.254376
 30
0.000000
 11
1803.000000
 21
1078.887000
 31
0.000000
  6
CONTINUOUS
  0
LINE
  8
WHITE
 10
1803.000000
 20
1078.887000
 30
0.000000
 11
1803.000000
 21
1059.687000
 31
0.000000
  6
CONTINUOUS
  0
LINE
  8
WHITE
 10
1803.000000
 20
1059.687000
 30
0.000000
 11
1801.000000
 21
1056.974005
 31
0.000000
  6
CONTINUOUS
  0
LINE
  8
WHITE
 10
1801.000000
 20
1056.974005
 30
0.000000
 11
1801.000000
 21
1050.574000
 31
0.000000
  6
CONTINUOUS
  0
LINE
  8
WHITE
 10
1801.000000
 20
1050.574000
 30
0.000000
 11
1768.000000
 21
1024.574000
 31
0.000000
  6
CONTINUOUS
  0
LINE
  8
WHITE
 10
1768.000000
 20
1024.574000
 30
0.000000
 11
1768.000000
 21
1013.461000
 31
0.000000
  6
CONTINUOUS
  0
LINE
  8
WHITE
 10
1768.000000
 20
1013.461000
 30
0.000000
 11
1767.000000
 21
1013.461000
 31
0.000000
  6
CONTINUOUS
  0
LINE
  8
WHITE
 10
1767.000000
 20
1013.461000
 30
0.000000
 11
1767.000000
 21
1017.361000
 31
0.000000
  6
CONTINUOUS
  0
LINE
  8
WHITE
 10
1767.000000
 20
1017.361000
 30
0.000000
 11
1762.998750
 21
1017.361000
 31
0.000000
  6
CONTINUOUS
  0
ARC
  8
WHITE
 10
1762.998750
 20
1013.361000
 30
0.000000
 40
4.000000
 50
90.000000
 51
178.567456
  6
CONTINUOUS
  0
LINE
  8
WHITE
 10
1759.000000
 20
1013.461000
 30
0.000000
 11
1757.000000
 21
1013.461000
 31
0.000000
  6
CONTINUOUS
  0
LINE
  8
WHITE
 10
1757.000000
 20
1013.461000
 30
0.000000
 11
1757.000000
 21
1013.161000
 31
0.000000
  6
CONTINUOUS
  0
LINE
  8
WHITE
 10
1757.000000
 20
1013.161000
 30
0.000000
 11
1759.000000
 21
1013.161000
 31
0.000000
  6
CONTINUOUS
  0
LINE
  8
WHITE
 10
1759.000000
 20
1013.161000
 30
0.000000
 11
1759.000000
 21
973.361000
 31
0.000000
  6
CONTINUOUS
  0
LINE
  8
WHITE
 10
1759.000000
 20
973.361000
 30
0.000000
 11
1802.000000
 21
973.361000
 31
0.000000
  6
CONTINUOUS
  0
LINE
  8
WHITE
 10
1802.000000
 20
973.361000
 30
0.000000
 11
1802.000000
 21
975.261000
 31
0.000000
  6
CONTINUOUS
  0
LINE
  8
WHITE
 10
1802.000000
 20
975.261000
 30
0.000000
 11
1803.000000
 21
975.261000
 31
0.000000
  6
CONTINUOUS
  0
LINE
  8
WHITE
 10
1803.000000
 20
975.261000
 30
0.000000
 11
1803.000000
 21
952.048000
 31
0.000000
  6
CONTINUOUS
  0
LINE
  8
WHITE
 10
1803.000000
 20
952.048000
 30
0.000000
 11
1803.522926
 21
950.106163
 31
0.000000
  6
CONTINUOUS
  0
LINE
  8
WHITE
 10
1803.522926
 20
950.106163
 30
0.000000
 11
1804.900000
 21
948.035000
 31
0.000000
  6
CONTINUOUS
  0
LINE
  8
WHITE
 10
1804.900000
 20
948.035000
 30
0.000000
 11
1828.000000
 21
924.935000
 31
0.000000
  6
CONTINUOUS
  0
LINE
  8
WHITE
 10
1828.000000
 20
924.935000
 30
0.000000
 11
2286.000000
 21
924.935000
 31
0.000000
  6
CONTINUOUS
  0
CIRCLE
  8
WHITE
 10
1784.500000
 20
994.361000
 30
0.000000
 40
7.000000
  6
CONTINUOUS
  0
CIRCLE
  8
WHITE
 10
2329.500000
 20
994.361000
 30
0.000000
 40
7.000000
  6
CONTINUOUS
  0
LINE
  8
WHITE
 10
2244.000000
 20
916.000000
 30
0.000000
 11
1822.000000
 21
916.000000
 31
0.000000
  6
CONTINUOUS
  0
LINE
  8
WHITE
 10
1822.000000
 20
916.000000
 30
0.000000
 11
1819.000000
 21
913.000000
 31
0.000000
  6
CONTINUOUS
  0
LINE
  8
WHITE
 10
1819.000000
 20
913.000000
 30
0.000000
 11
1819.000000
 21
889.174000
 31
0.000000
  6
CONTINUOUS
  0
LINE
  8
WHITE
 10
1819.000000
 20
889.174000
 30
0.000000
 11
1818.000000
 21
889.174000
 31
0.000000
  6
CONTINUOUS
  0
LINE
  8
WHITE
 10
1818.000000
 20
889.174000
 30
0.000000
 11
1818.000000
 21
893.074000
 31
0.000000
  6
CONTINUOUS
  0
LINE
  8
WHITE
 10
1818.000000
 20
893.074000
 30
0.000000
 11
1796.000000
 21
893.074000
 31
0.000000
  6
CONTINUOUS
  0
LINE
  8
WHITE
 10
1796.000000
 20
893.074000
 30
0.000000
 11
1793.000000
 21
890.074000
 31
0.000000
  6
CONTINUOUS
  0
LINE
  8
WHITE
 10
1793.000000
 20
890.074000
 30
0.000000
 11
1793.000000
 21
846.074000
 31
0.000000
  6
CONTINUOUS
  0
LINE
  8
WHITE
 10
1793.000000
 20
846.074000
 30
0.000000
 11
1796.000000
 21
843.074000
 31
0.000000
  6
CONTINUOUS
  0
LINE
  8
WHITE
 10
1796.000000
 20
843.074000
 30
0.000000
 11
1818.000000
 21
843.074000
 31
0.000000
  6
CONTINUOUS
  0
LINE
  8
WHITE
 10
1818.000000
 20
843.074000
 30
0.000000
 11
1818.000000
 21
846.974000
 31
0.000000
  6
CONTINUOUS
  0
LINE
  8
WHITE
 10
1818.000000
 20
846.974000
 30
0.000000
 11
1819.000000
 21
846.974000
 31
0.000000
  6
CONTINUOUS
  0
LINE
  8
WHITE
 10
1819.000000
 20
846.974000
 30
0.000000
 11
1819.000000
 21
823.148000
 31
0.000000
  6
CONTINUOUS
  0
LINE
  8
WHITE
 10
1819.000000
 20
823.148000
 30
0.000000
 11
1822.000000
 21
820.148000
 31
0.000000
  6
CONTINUOUS
  0
LINE
  8
WHITE
 10
1822.000000
 20
820.148000
 30
0.000000
 11
2244.000000
 21
820.148000
 31
0.000000
  6
CONTINUOUS
  0
LINE
  8
WHITE
 10
2244.000000
 20
820.148000
 30
0.000000
 11
2247.000000
 21
823.148000
 31
0.000000
  6
CONTINUOUS
  0
LINE
  8
WHITE
 10
2247.000000
 20
823.148000
 30
0.000000
 11
2247.000000
 21
846.974000
 31
0.000000
  6
CONTINUOUS
  0
LINE
  8
WHITE
 10
2247.000000
 20
846.974000
 30
0.000000
 11
2248.000000
 21
846.974000
 31
0.000000
  6
CONTINUOUS
  0
LINE
  8
WHITE
 10
2248.000000
 20
846.974000
 30
0.000000
 11
2248.000000
 21
843.074000
 31
0.000000
  6
CONTINUOUS
  0
LINE
  8
WHITE
 10
2248.000000
 20
843.074000
 30
0.000000
 11
2270.000000
 21
843.074000
 31
0.000000
  6
CONTINUOUS
  0
LINE
  8
WHITE
 10
2270.000000
 20
843.074000
 30
0.000000
 11
2273.000000
 21
846.074000
 31
0.000000
  6
CONTINUOUS
  0
LINE
  8
WHITE
 10
2273.000000
 20
846.074000
 30
0.000000
 11
2273.000000
 21
890.074000
 31
0.000000
  6
CONTINUOUS
  0
LINE
  8
WHITE
 10
2273.000000
 20
890.074000
 30
0.000000
 11
2270.000000
 21
893.074000
 31
0.000000
  6
CONTINUOUS
  0
LINE
  8
WHITE
 10
2270.000000
 20
893.074000
 30
0.000000
 11
2248.000000
 21
893.074000
 31
0.000000
  6
CONTINUOUS
  0
LINE
  8
WHITE
 10
2248.000000
 20
893.074000
 30
0.000000
 11
2248.000000
 21
889.174000
 31
0.000000
  6
CONTINUOUS
  0
LINE
  8
WHITE
 10
2248.000000
 20
889.174000
 30
0.000000
 11
2247.000000
 21
889.174000
 31
0.000000
  6
CONTINUOUS
  0
LINE
  8
WHITE
 10
2247.000000
 20
889.174000
 30
0.000000
 11
2247.000000
 21
913.000000
 31
0.000000
  6
CONTINUOUS
  0
LINE
  8
WHITE
 10
2247.000000
 20
913.000000
 30
0.000000
 11
2244.000000
 21
916.000000
 31
0.000000
  6
CONTINUOUS
  0
ARC
  8
WHITE
 10
1804.000000
 20
855.574000
 30
0.000000
 40
4.000000
 50
90.000000
 51
270.000000
  6
CONTINUOUS
  0
LINE
  8
WHITE
 10
1804.000000
 20
851.574000
 30
0.000000
 11
1808.000000
 21
851.574000
 31
0.000000
  6
CONTINUOUS
  0
ARC
  8
WHITE
 10
1808.000000
 20
855.574000
 30
0.000000
 40
4.000000
 50
-90.000000
 51
90.000000
  6
CONTINUOUS
  0
LINE
  8
WHITE
 10
1808.000000
 20
859.574000
 30
0.000000
 11
1804.000000
 21
859.574000
 31
0.000000
  6
CONTINUOUS
  0
ARC
  8
WHITE
 10
1804.000000
 20
880.574000
 30
0.000000
 40
4.000000
 50
90.000000
 51
270.000000
  6
CONTINUOUS
  0
LINE
  8
WHITE
 10
1804.000000
 20
876.574000
 30
0.000000
 11
1808.000000
 21
876.574000
 31
0.000000
  6
CONTINUOUS
  0
ARC
  8
WHITE
 10
1808.000000
 20
880.574000
 30
0.000000
 40
4.000000
 50
-90.000000
 51
90.000000
  6
CONTINUOUS
  0
LINE
  8
WHITE
 10
1808.000000
 20
884.574000
 30
0.000000
 11
1804.000000
 21
884.574000
 31
0.000000
  6
CONTINUOUS
  0
LINE
  8
WHITE
 10
2258.000000
 20
859.574000
 30
0.000000
 11
2262.000000
 21
859.574000
 31
0.000000
  6
CONTINUOUS
  0
ARC
  8
WHITE
 10
2262.000000
 20
855.574000
 30
0.000000
 40
4.000000
 50
-90.000000
 51
90.000000
  6
CONTINUOUS
  0
LINE
  8
WHITE
 10
2262.000000
 20
851.574000
 30
0.000000
 11
2258.000000
 21
851.574000
 31
0.000000
  6
CONTINUOUS
  0
ARC
  8
WHITE
 10
2258.000000
 20
855.574000
 30
0.000000
 40
4.000000
 50
90.000000
 51
270.000000
  6
CONTINUOUS
  0
LINE
  8
WHITE
 10
2258.000000
 20
884.574000
 30
0.000000
 11
2262.000000
 21
884.574000
 31
0.000000
  6
CONTINUOUS
  0
ARC
  8
WHITE
 10
2262.000000
 20
880.574000
 30
0.000000
 40
4.000000
 50
-90.000000
 51
90.000000
  6
CONTINUOUS
  0
LINE
  8
WHITE
 10
2262.000000
 20
876.574000
 30
0.000000
 11
2258.000000
 21
876.574000
 31
0.000000
  6
CONTINUOUS
  0
ARC
  8
WHITE
 10
2258.000000
 20
880.574000
 30
0.000000
 40
4.000000
 50
90.000000
 51
270.000000
  6
CONTINUOUS
  0
LINE
  8
WHITE
 10
1828.750000
 20
863.824000
 30
0.000000
 11
1828.750000
 21
872.324000
 31
0.000000
  6
CONTINUOUS
  0
LINE
  8
WHITE
 10
1828.750000
 20
872.324000
 30
0.000000
 11
1837.250000
 21
872.324000
 31
0.000000
  6
CONTINUOUS
  0
LINE
  8
WHITE
 10
1837.250000
 20
872.324000
 30
0.000000
 11
1837.250000
 21
863.824000
 31
0.000000
  6
CONTINUOUS
  0
LINE
  8
WHITE
 10
1837.250000
 20
863.824000
 30
0.000000
 11
1828.750000
 21
863.824000
 31
0.000000
  6
CONTINUOUS
  0
LINE
  8
WHITE
 10
1853.750000
 20
863.824000
 30
0.000000
 11
1853.750000
 21
872.324000
 31
0.000000
  6
CONTINUOUS
  0
LINE
  8
WHITE
 10
1853.750000
 20
872.324000
 30
0.000000
 11
1862.250000
 21
872.324000
 31
0.000000
  6
CONTINUOUS
  0
LINE
  8
WHITE
 10
1862.250000
 20
872.324000
 30
0.000000
 11
1862.250000
 21
863.824000
 31
0.000000
  6
CONTINUOUS
  0
LINE
  8
WHITE
 10
1862.250000
 20
863.824000
 30
0.000000
 11
1853.750000
 21
863.824000
 31
0.000000
  6
CONTINUOUS
  0
LINE
  8
WHITE
 10
1878.750000
 20
863.824000
 30
0.000000
 11
1878.750000
 21
872.324000
 31
0.000000
  6
CONTINUOUS
  0
LINE
  8
WHITE
 10
1878.750000
 20
872.324000
 30
0.000000
 11
1887.250000
 21
872.324000
 31
0.000000
  6
CONTINUOUS
  0
LINE
  8
WHITE
 10
1887.250000
 20
872.324000
 30
0.000000
 11
1887.250000
 21
863.824000
 31
0.000000
  6
CONTINUOUS
  0
LINE
  8
WHITE
 10
1887.250000
 20
863.824000
 30
0.000000
 11
1878.750000
 21
863.824000
 31
0.000000
  6
CONTINUOUS
  0
LINE
  8
WHITE
 10
1903.750000
 20
863.824000
 30
0.000000
 11
1903.750000
 21
872.324000
 31
0.000000
  6
CONTINUOUS
  0
LINE
  8
WHITE
 10
1903.750000
 20
872.324000
 30
0.000000
 11
1912.250000
 21
872.324000
 31
0.000000
  6
CONTINUOUS
  0
LINE
  8
WHITE
 10
1912.250000
 20
872.324000
 30
0.000000
 11
1912.250000
 21
863.824000
 31
0.000000
  6
CONTINUOUS
  0
LINE
  8
WHITE
 10
1912.250000
 20
863.824000
 30
0.000000
 11
1903.750000
 21
863.824000
 31
0.000000
  6
CONTINUOUS
  0
LINE
  8
WHITE
 10
1928.750000
 20
863.824000
 30
0.000000
 11
1928.750000
 21
872.324000
 31
0.000000
  6
CONTINUOUS
  0
LINE
  8
WHITE
 10
1928.750000
 20
872.324000
 30
0.000000
 11
1937.250000
 21
872.324000
 31
0.000000
  6
CONTINUOUS
  0
LINE
  8
WHITE
 10
1937.250000
 20
872.324000
 30
0.000000
 11
1937.250000
 21
863.824000
 31
0.000000
  6
CONTINUOUS
  0
LINE
  8
WHITE
 10
1937.250000
 20
863.824000
 30
0.000000
 11
1928.750000
 21
863.824000
 31
0.000000
  6
CONTINUOUS
  0
LINE
  8
WHITE
 10
1953.750000
 20
863.824000
 30
0.000000
 11
1953.750000
 21
872.324000
 31
0.000000
  6
CONTINUOUS
  0
LINE
  8
WHITE
 10
1953.750000
 20
872.324000
 30
0.000000
 11
1962.250000
 21
872.324000
 31
0.000000
  6
CONTINUOUS
  0
LINE
  8
WHITE
 10
1962.250000
 20
872.324000
 30
0.000000
 11
1962.250000
 21
863.824000
 31
0.000000
  6
CONTINUOUS
  0
LINE
  8
WHITE
 10
1962.250000
 20
863.824000
 30
0.000000
 11
1953.750000
 21
863.824000
 31
0.000000
  6
CONTINUOUS
  0
LINE
  8
WHITE
 10
1978.750000
 20
863.824000
 30
0.000000
 11
1978.750000
 21
872.324000
 31
0.000000
  6
CONTINUOUS
  0
LINE
  8
WHITE
 10
1978.750000
 20
872.324000
 30
0.000000
 11
1987.250000
 21
872.324000
 31
0.000000
  6
CONTINUOUS
  0
LINE
  8
WHITE
 10
1987.250000
 20
872.324000
 30
0.000000
 11
1987.250000
 21
863.824000
 31
0.000000
  6
CONTINUOUS
  0
LINE
  8
WHITE
 10
1987.250000
 20
863.824000
 30
0.000000
 11
1978.750000
 21
863.824000
 31
0.000000
  6
CONTINUOUS
  0
LINE
  8
WHITE
 10
2003.750000
 20
863.824000
 30
0.000000
 11
2003.750000
 21
872.324000
 31
0.000000
  6
CONTINUOUS
  0
LINE
  8
WHITE
 10
2003.750000
 20
872.324000
 30
0.000000
 11
2012.250000
 21
872.324000
 31
0.000000
  6
CONTINUOUS
  0
LINE
  8
WHITE
 10
2012.250000
 20
872.324000
 30
0.000000
 11
2012.250000
 21
863.824000
 31
0.000000
  6
CONTINUOUS
  0
LINE
  8
WHITE
 10
2012.250000
 20
863.824000
 30
0.000000
 11
2003.750000
 21
863.824000
 31
0.000000
  6
CONTINUOUS
  0
LINE
  8
WHITE
 10
2028.750000
 20
863.824000
 30
0.000000
 11
2028.750000
 21
872.324000
 31
0.000000
  6
CONTINUOUS
  0
LINE
  8
WHITE
 10
2028.750000
 20
872.324000
 30
0.000000
 11
2037.250000
 21
872.324000
 31
0.000000
  6
CONTINUOUS
  0
LINE
  8
WHITE
 10
2037.250000
 20
872.324000
 30
0.000000
 11
2037.250000
 21
863.824000
 31
0.000000
  6
CONTINUOUS
  0
LINE
  8
WHITE
 10
2037.250000
 20
863.824000
 30
0.000000
 11
2028.750000
 21
863.824000
 31
0.000000
  6
CONTINUOUS
  0
LINE
  8
WHITE
 10
2053.750000
 20
863.824000
 30
0.000000
 11
2053.750000
 21
872.324000
 31
0.000000
  6
CONTINUOUS
  0
LINE
  8
WHITE
 10
2053.750000
 20
872.324000
 30
0.000000
 11
2062.250000
 21
872.324000
 31
0.000000
  6
CONTINUOUS
  0
LINE
  8
WHITE
 10
2062.250000
 20
872.324000
 30
0.000000
 11
2062.250000
 21
863.824000
 31
0.000000
  6
CONTINUOUS
  0
LINE
  8
WHITE
 10
2062.250000
 20
863.824000
 30
0.000000
 11
2053.750000
 21
863.824000
 31
0.000000
  6
CONTINUOUS
  0
LINE
  8
WHITE
 10
2078.750000
 20
863.824000
 30
0.000000
 11
2078.750000
 21
872.324000
 31
0.000000
  6
CONTINUOUS
  0
LINE
  8
WHITE
 10
2078.750000
 20
872.324000
 30
0.000000
 11
2087.250000
 21
872.324000
 31
0.000000
  6
CONTINUOUS
  0
LINE
  8
WHITE
 10
2087.250000
 20
872.324000
 30
0.000000
 11
2087.250000
 21
863.824000
 31
0.000000
  6
CONTINUOUS
  0
LINE
  8
WHITE
 10
2087.250000
 20
863.824000
 30
0.000000
 11
2078.750000
 21
863.824000
 31
0.000000
  6
CONTINUOUS
  0
LINE
  8
WHITE
 10
2103.750000
 20
863.824000
 30
0.000000
 11
2103.750000
 21
872.324000
 31
0.000000
  6
CONTINUOUS
  0
LINE
  8
WHITE
 10
2103.750000
 20
872.324000
 30
0.000000
 11
2112.250000
 21
872.324000
 31
0.000000
  6
CONTINUOUS
  0
LINE
  8
WHITE
 10
2112.250000
 20
872.324000
 30
0.000000
 11
2112.250000
 21
863.824000
 31
0.000000
  6
CONTINUOUS
  0
LINE
  8
WHITE
 10
2112.250000
 20
863.824000
 30
0.000000
 11
2103.750000
 21
863.824000
 31
0.000000
  6
CONTINUOUS
  0
LINE
  8
WHITE
 10
2128.750000
 20
863.824000
 30
0.000000
 11
2128.750000
 21
872.324000
 31
0.000000
  6
CONTINUOUS
  0
LINE
  8
WHITE
 10
2128.750000
 20
872.324000
 30
0.000000
 11
2137.250000
 21
872.324000
 31
0.000000
  6
CONTINUOUS
  0
LINE
  8
WHITE
 10
2137.250000
 20
872.324000
 30
0.000000
 11
2137.250000
 21
863.824000
 31
0.000000
  6
CONTINUOUS
  0
LINE
  8
WHITE
 10
2137.250000
 20
863.824000
 30
0.000000
 11
2128.750000
 21
863.824000
 31
0.000000
  6
CONTINUOUS
  0
LINE
  8
WHITE
 10
2153.750000
 20
863.824000
 30
0.000000
 11
2153.750000
 21
872.324000
 31
0.000000
  6
CONTINUOUS
  0
LINE
  8
WHITE
 10
2153.750000
 20
872.324000
 30
0.000000
 11
2162.250000
 21
872.324000
 31
0.000000
  6
CONTINUOUS
  0
LINE
  8
WHITE
 10
2162.250000
 20
872.324000
 30
0.000000
 11
2162.250000
 21
863.824000
 31
0.000000
  6
CONTINUOUS
  0
LINE
  8
WHITE
 10
2162.250000
 20
863.824000
 30
0.000000
 11
2153.750000
 21
863.824000
 31
0.000000
  6
CONTINUOUS
  0
LINE
  8
WHITE
 10
2178.750000
 20
863.824000
 30
0.000000
 11
2178.750000
 21
872.324000
 31
0.000000
  6
CONTINUOUS
  0
LINE
  8
WHITE
 10
2178.750000
 20
872.324000
 30
0.000000
 11
2187.250000
 21
872.324000
 31
0.000000
  6
CONTINUOUS
  0
LINE
  8
WHITE
 10
2187.250000
 20
872.324000
 30
0.000000
 11
2187.250000
 21
863.824000
 31
0.000000
  6
CONTINUOUS
  0
LINE
  8
WHITE
 10
2187.250000
 20
863.824000
 30
0.000000
 11
2178.750000
 21
863.824000
 31
0.000000
  6
CONTINUOUS
  0
LINE
  8
WHITE
 10
2203.750000
 20
863.824000
 30
0.000000
 11
2203.750000
 21
872.324000
 31
0.000000
  6
CONTINUOUS
  0
LINE
  8
WHITE
 10
2203.750000
 20
872.324000
 30
0.000000
 11
2212.250000
 21
872.324000
 31
0.000000
  6
CONTINUOUS
  0
LINE
  8
WHITE
 10
2212.250000
 20
872.324000
 30
0.000000
 11
2212.250000
 21
863.824000
 31
0.000000
  6
CONTINUOUS
  0
LINE
  8
WHITE
 10
2212.250000
 20
863.824000
 30
0.000000
 11
2203.750000
 21
863.824000
 31
0.000000
  6
CONTINUOUS
  0
LINE
  8
WHITE
 10
2228.750000
 20
863.824000
 30
0.000000
 11
2228.750000
 21
872.324000
 31
0.000000
  6
CONTINUOUS
  0
LINE
  8
WHITE
 10
2228.750000
 20
872.324000
 30
0.000000
 11
2237.250000
 21
872.324000
 31
0.000000
  6
CONTINUOUS
  0
LINE
  8
WHITE
 10
2237.250000
 20
872.324000
 30
0.000000
 11
2237.250000
 21
863.824000
 31
0.000000
  6
CONTINUOUS
  0
LINE
  8
WHITE
 10
2237.250000
 20
863.824000
 30
0.000000
 11
2228.750000
 21
863.824000
 31
0.000000
  6
CONTINUOUS
  0
LINE
  8
GREEN
 10
22.263000
 20
22.680500
 30
0.000000
 11
1813.163000
 21
22.680500
 31
0.000000
  6
CONTINUOUS
1001
TC_BEND_DATA
1000
TC_MATERIAL: St37-20
1000
TC_THICKNESS: 2.000000
1000
TC_BEND_PROCESS: NORMAL
1000
TC_BEND_ANGLE: 90.000000
1000
TC_BEND_PREANGLE: 0.000000
1000
TC_BEND_RADIUS: 1.900000
1000
TC_BEND_FACTOR: -3.787000
1000
TC_BEND_PISTON_ID: OW320-F R1/28 H100
1000
TC_BEND_DIE_ID: EV004 W12/30 R3
  0
LINE
  8
GREEN
 10
22.263000
 20
813.893500
 30
0.000000
 11
1813.163000
 21
813.893500
 31
0.000000
  6
CONTINUOUS
1001
TC_BEND_DATA
1000
TC_MATERIAL: St37-20
1000
TC_THICKNESS: 2.000000
1000
TC_BEND_PROCESS: NORMAL
1000
TC_BEND_ANGLE: 90.000000
1000
TC_BEND_PREANGLE: 0.000000
1000
TC_BEND_RADIUS: 1.900000
1000
TC_BEND_FACTOR: -3.787000
1000
TC_BEND_PISTON_ID: OW320-F R1/28 H100
1000
TC_BEND_DIE_ID: EV004 W12/30 R3
  0
LINE
  8
GREEN
 10
1814.319500
 20
22.937000
 30
0.000000
 11
1814.319500
 21
813.637000
 31
0.000000
  6
CONTINUOUS
1001
TC_BEND_DATA
1000
TC_MATERIAL: St37-20
1000
TC_THICKNESS: 2.000000
1000
TC_BEND_PROCESS: NORMAL
1000
TC_BEND_ANGLE: 90.000000
1000
TC_BEND_PREANGLE: 0.000000
1000
TC_BEND_RADIUS: 1.900000
1000
TC_BEND_FACTOR: -3.787000
1000
TC_BEND_PISTON_ID: OW320-F R1/28 H100
1000
TC_BEND_DIE_ID: EV004 W12/30 R3
  0
LINE
  8
GREEN
 10
21.106500
 20
22.937000
 30
0.000000
 11
21.106500
 21
813.637000
 31
0.000000
  6
CONTINUOUS
1001
TC_BEND_DATA
1000
TC_MATERIAL: St37-20
1000
TC_THICKNESS: 2.000000
1000
TC_BEND_PROCESS: NORMAL
1000
TC_BEND_ANGLE: 90.000000
1000
TC_BEND_PREANGLE: 0.000000
1000
TC_BEND_RADIUS: 1.900000
1000
TC_BEND_FACTOR: -3.787000
1000
TC_BEND_PISTON_ID: OW320-F R1/28 H100
1000
TC_BEND_DIE_ID: EV004 W12/30 R3
  0
LINE
  8
GREEN
 10
47.693489
 20
992.893500
 30
0.000000
 11
1754.306511
 21
992.893500
 31
0.000000
  6
CONTINUOUS
1001
TC_BEND_DATA
1000
TC_MATERIAL: St37-20
1000
TC_THICKNESS: 2.000000
1000
TC_BEND_PROCESS: NORMAL
1000
TC_BEND_ANGLE: 90.000000
1000
TC_BEND_PREANGLE: 0.000000
1000
TC_BEND_RADIUS: 1.900000
1000
TC_BEND_FACTOR: -3.787000
1000
TC_BEND_PISTON_ID: OW320-F R1/28 H100
1000
TC_BEND_DIE_ID: EV004 W12/30 R3
  0
LINE
  8
GREEN
 10
47.000000
 20
969.680500
 30
0.000000
 11
1755.000000
 21
969.680500
 31
0.000000
  6
HIDDEN
1001
TC_BEND_DATA
1000
TC_MATERIAL: St37-20
1000
TC_THICKNESS: 2.000000
1000
TC_BEND_PROCESS: NORMAL
1000
TC_BEND_ANGLE: -90.000000
1000
TC_BEND_PREANGLE: 0.000000
1000
TC_BEND_RADIUS: 1.900000
1000
TC_BEND_FACTOR: -3.787000
1000
TC_BEND_PISTON_ID: OW320-F R1/28 H100
1000
TC_BEND_DIE_ID: EV004 W12/30 R3
  0
LINE
  8
GREEN
 10
3.000000
 20
927.467500
 30
0.000000
 11
1799.000000
 21
927.467500
 31
0.000000
  6
HIDDEN
1001
TC_BEND_DATA
1000
TC_MATERIAL: St37-20
1000
TC_THICKNESS: 2.000000
1000
TC_BEND_PROCESS: NORMAL
1000
TC_BEND_ANGLE: -90.000000
1000
TC_BEND_PREANGLE: 0.000000
1000
TC_BEND_RADIUS: 1.900000
1000
TC_BEND_FACTOR: -3.787000
1000
TC_BEND_PISTON_ID: OW320-F R1/28 H100
1000
TC_BEND_DIE_ID: EV004 W12/30 R3
  0
LINE
  8
GREEN
 10
47.566538
 20
862.041500
 30
0.000000
 11
1754.433462
 21
862.041500
 31
0.000000
  6
CONTINUOUS
1001
TC_BEND_DATA
1000
TC_MATERIAL: St37-20
1000
TC_THICKNESS: 2.000000
1000
TC_BEND_PROCESS: NORMAL
1000
TC_BEND_ANGLE: 90.000000
1000
TC_BEND_PREANGLE: 0.000000
1000
TC_BEND_RADIUS: 1.900000
1000
TC_BEND_FACTOR: -3.787000
1000
TC_BEND_PISTON_ID: OW320-F R1/28 H100
1000
TC_BEND_DIE_ID: EV004 W12/30 R3
  0
LINE
  8
GREEN
 10
47.000000
 20
885.254500
 30
0.000000
 11
1755.000000
 21
885.254500
 31
0.000000
  6
HIDDEN
1001
TC_BEND_DATA
1000
TC_MATERIAL: St37-20
1000
TC_THICKNESS: 2.000000
1000
TC_BEND_PROCESS: NORMAL
1000
TC_BEND_ANGLE: -90.000000
1000
TC_BEND_PREANGLE: 0.000000
1000
TC_BEND_RADIUS: 1.900000
1000
TC_BEND_FACTOR: -3.787000
1000
TC_BEND_PISTON_ID: OW320-F R1/28 H100
1000
TC_BEND_DIE_ID: EV004 W12/30 R3
  0
LINE
  8
GREEN
 10
3.000000
 20
1089.467500
 30
0.000000
 11
1799.000000
 21
1089.467500
 31
0.000000
  6
CONTINUOUS
1001
TC_BEND_DATA
1000
TC_MATERIAL: St37-20
1000
TC_THICKNESS: 2.000000
1000
TC_BEND_PROCESS: NORMAL
1000
TC_BEND_ANGLE: 90.000000
1000
TC_BEND_PREANGLE: 0.000000
1000
TC_BEND_RADIUS: 1.900000
1000
TC_BEND_FACTOR: -3.787000
1000
TC_BEND_PISTON_ID: OW320-F R1/28 H100
1000
TC_BEND_DIE_ID: EV004 W12/30 R3
  0
LINE
  8
GREEN
 10
47.565919
 20
1154.893500
 30
0.000000
 11
1754.434081
 21
1154.893500
 31
0.000000
  6
HIDDEN
1001
TC_BEND_DATA
1000
TC_MATERIAL: St37-20
1000
TC_THICKNESS: 2.000000
1000
TC_BEND_PROCESS: NORMAL
1000
TC_BEND_ANGLE: -90.000000
1000
TC_BEND_PREANGLE: 0.000000
1000
TC_BEND_RADIUS: 1.900000
1000
TC_BEND_FACTOR: -3.787000
1000
TC_BEND_PISTON_ID: OW320-F R1/28 H100
1000
TC_BEND_DIE_ID: EV004 W12/30 R3
  0
LINE
  8
GREEN
 10
47.000000
 20
1131.680500
 30
0.000000
 11
1755.000000
 21
1131.680500
 31
0.000000
  6
CONTINUOUS
1001
TC_BEND_DATA
1000
TC_MATERIAL: St37-20
1000
TC_THICKNESS: 2.000000
1000
TC_BEND_PROCESS: NORMAL
1000
TC_BEND_ANGLE: 90.000000
1000
TC_BEND_PREANGLE: 0.000000
1000
TC_BEND_RADIUS: 1.900000
1000
TC_BEND_FACTOR: -3.787000
1000
TC_BEND_PISTON_ID: OW320-F R1/28 H100
1000
TC_BEND_DIE_ID: EV004 W12/30 R3
  0
LINE
  8
GREEN
 10
46.319334
 20
1032.890096
 30
0.000000
 11
1755.680666
 21
1032.890096
 31
0.000000
  6
HIDDEN
1001
TC_BEND_DATA
1000
TC_MATERIAL: St37-20
1000
TC_THICKNESS: 2.000000
1000
TC_BEND_PROCESS: NORMAL
1000
TC_BEND_ANGLE: -138.000000
1000
TC_BEND_PREANGLE: 0.000000
1000
TC_BEND_RADIUS: 4.838922
1000
TC_BEND_FACTOR: -1.019647
1000
TC_BEND_PISTON_ID: OW320-F R1/28 H100
1000
TC_BEND_DIE_ID: EV004 W12/30 R3
  0
LINE
  8
GREEN
 10
47.000000
 20
1047.254500
 30
0.000000
 11
1755.000000
 21
1047.254500
 31
0.000000
  6
HIDDEN
1001
TC_BEND_DATA
1000
TC_MATERIAL: St37-20
1000
TC_THICKNESS: 2.000000
1000
TC_BEND_PROCESS: NORMAL
1000
TC_BEND_ANGLE: -90.000000
1000
TC_BEND_PREANGLE: 0.000000
1000
TC_BEND_RADIUS: 1.900000
1000
TC_BEND_FACTOR: -3.787000
1000
TC_BEND_PISTON_ID: OW320-F R1/28 H100
1000
TC_BEND_DIE_ID: EV004 W12/30 R3
  0
LINE
  8
GREEN
 10
1969.745500
 20
46.520823
 30
0.000000
 11
1969.745500
 21
757.479177
 31
0.000000
  6
CONTINUOUS
1001
TC_BEND_DATA
1000
TC_MATERIAL: St37-20
1000
TC_THICKNESS: 2.000000
1000
TC_BEND_PROCESS: NORMAL
1000
TC_BEND_ANGLE: 90.000000
1000
TC_BEND_PREANGLE: 0.000000
1000
TC_BEND_RADIUS: 1.900000
1000
TC_BEND_FACTOR: -3.787000
1000
TC_BEND_PISTON_ID: OW320-F R1/28 H100
1000
TC_BEND_DIE_ID: EV004 W12/30 R3
  0
LINE
  8
GREEN
 10
1862.106500
 20
48.565919
 30
0.000000
 11
1862.106500
 21
755.434081
 31
0.000000
  6
HIDDEN
1001
TC_BEND_DATA
1000
TC_MATERIAL: St37-20
1000
TC_THICKNESS: 2.000000
1000
TC_BEND_PROCESS: NORMAL
1000
TC_BEND_ANGLE: -90.000000
1000
TC_BEND_PREANGLE: 0.000000
1000
TC_BEND_RADIUS: 1.900000
1000
TC_BEND_FACTOR: -3.787000
1000
TC_BEND_PISTON_ID: OW320-F R1/28 H100
1000
TC_BEND_DIE_ID: EV004 W12/30 R3
  0
LINE
  8
GREEN
 10
1885.319500
 20
48.000000
 30
0.000000
 11
1885.319500
 21
756.000000
 31
0.000000
  6
CONTINUOUS
1001
TC_BEND_DATA
1000
TC_MATERIAL: St37-20
1000
TC_THICKNESS: 2.000000
1000
TC_BEND_PROCESS: NORMAL
1000
TC_BEND_ANGLE: 90.000000
1000
TC_BEND_PREANGLE: 0.000000
1000
TC_BEND_RADIUS: 1.900000
1000
TC_BEND_FACTOR: -3.787000
1000
TC_BEND_PISTON_ID: OW320-F R1/28 H100
1000
TC_BEND_DIE_ID: EV004 W12/30 R3
  0
LINE
  8
GREEN
 10
1927.532500
 20
13.000000
 30
0.000000
 11
1927.532500
 21
791.000000
 31
0.000000
  6
CONTINUOUS
1001
TC_BEND_DATA
1000
TC_MATERIAL: St37-20
1000
TC_THICKNESS: 2.000000
1000
TC_BEND_PROCESS: NORMAL
1000
TC_BEND_ANGLE: 90.000000
1000
TC_BEND_PREANGLE: 0.000000
1000
TC_BEND_RADIUS: 1.900000
1000
TC_BEND_FACTOR: -3.787000
1000
TC_BEND_PISTON_ID: OW320-F R1/28 H100
1000
TC_BEND_DIE_ID: EV004 W12/30 R3
  0
LINE
  8
GREEN
 10
1992.958500
 20
48.643323
 30
0.000000
 11
1992.958500
 21
755.356677
 31
0.000000
  6
HIDDEN
1001
TC_BEND_DATA
1000
TC_MATERIAL: St37-20
1000
TC_THICKNESS: 2.000000
1000
TC_BEND_PROCESS: NORMAL
1000
TC_BEND_ANGLE: -90.000000
1000
TC_BEND_PREANGLE: 0.000000
1000
TC_BEND_RADIUS: 1.900000
1000
TC_BEND_FACTOR: -3.787000
1000
TC_BEND_PISTON_ID: OW320-F R1/28 H100
1000
TC_BEND_DIE_ID: EV004 W12/30 R3
  0
LINE
  8
GREEN
 10
2155.745500
 20
46.520823
 30
0.000000
 11
2155.745500
 21
757.479177
 31
0.000000
  6
CONTINUOUS
1001
TC_BEND_DATA
1000
TC_MATERIAL: St37-20
1000
TC_THICKNESS: 2.000000
1000
TC_BEND_PROCESS: NORMAL
1000
TC_BEND_ANGLE: 90.000000
1000
TC_BEND_PREANGLE: 0.000000
1000
TC_BEND_RADIUS: 1.900000
1000
TC_BEND_FACTOR: -3.787000
1000
TC_BEND_PISTON_ID: OW320-F R1/28 H100
1000
TC_BEND_DIE_ID: EV004 W12/30 R3
  0
LINE
  8
GREEN
 10
2048.106500
 20
48.565919
 30
0.000000
 11
2048.106500
 21
755.434081
 31
0.000000
  6
HIDDEN
1001
TC_BEND_DATA
1000
TC_MATERIAL: St37-20
1000
TC_THICKNESS: 2.000000
1000
TC_BEND_PROCESS: NORMAL
1000
TC_BEND_ANGLE: -90.000000
1000
TC_BEND_PREANGLE: 0.000000
1000
TC_BEND_RADIUS: 1.900000
1000
TC_BEND_FACTOR: -3.787000
1000
TC_BEND_PISTON_ID: OW320-F R1/28 H100
1000
TC_BEND_DIE_ID: EV004 W12/30 R3
  0
LINE
  8
GREEN
 10
2071.319500
 20
48.000000
 30
0.000000
 11
2071.319500
 21
756.000000
 31
0.000000
  6
CONTINUOUS
1001
TC_BEND_DATA
1000
TC_MATERIAL: St37-20
1000
TC_THICKNESS: 2.000000
1000
TC_BEND_PROCESS: NORMAL
1000
TC_BEND_ANGLE: 90.000000
1000
TC_BEND_PREANGLE: 0.000000
1000
TC_BEND_RADIUS: 1.900000
1000
TC_BEND_FACTOR: -3.787000
1000
TC_BEND_PISTON_ID: OW320-F R1/28 H100
1000
TC_BEND_DIE_ID: EV004 W12/30 R3
  0
LINE
  8
GREEN
 10
2113.532500
 20
13.000000
 30
0.000000
 11
2113.532500
 21
791.000000
 31
0.000000
  6
CONTINUOUS
1001
TC_BEND_DATA
1000
TC_MATERIAL: St37-20
1000
TC_THICKNESS: 2.000000
1000
TC_BEND_PROCESS: NORMAL
1000
TC_BEND_ANGLE: 90.000000
1000
TC_BEND_PREANGLE: 0.000000
1000
TC_BEND_RADIUS: 1.900000
1000
TC_BEND_FACTOR: -3.787000
1000
TC_BEND_PISTON_ID: OW320-F R1/28 H100
1000
TC_BEND_DIE_ID: EV004 W12/30 R3
  0
LINE
  8
GREEN
 10
2178.958500
 20
48.643323
 30
0.000000
 11
2178.958500
 21
755.356677
 31
0.000000
  6
HIDDEN
1001
TC_BEND_DATA
1000
TC_MATERIAL: St37-20
1000
TC_THICKNESS: 2.000000
1000
TC_BEND_PROCESS: NORMAL
1000
TC_BEND_ANGLE: -90.000000
1000
TC_BEND_PREANGLE: 0.000000
1000
TC_BEND_RADIUS: 1.900000
1000
TC_BEND_FACTOR: -3.787000
1000
TC_BEND_PISTON_ID: OW320-F R1/28 H100
1000
TC_BEND_DIE_ID: EV004 W12/30 R3
  0
LINE
  8
GREEN
 10
2276.835309
 20
791.000000
 30
0.000000
 11
2276.835309
 21
13.000000
 31
0.000000
  6
CONTINUOUS
1001
TC_BEND_DATA
1000
TC_MATERIAL: St37-20
1000
TC_THICKNESS: 2.000000
1000
TC_BEND_PROCESS: NORMAL
1000
TC_BEND_ANGLE: 90.000000
1000
TC_BEND_PREANGLE: 0.000000
1000
TC_BEND_RADIUS: 1.900000
1000
TC_BEND_FACTOR: -3.787000
1000
TC_BEND_PISTON_ID: OW320-F R1/28 H100
1000
TC_BEND_DIE_ID: EV004 W12/30 R3
  0
LINE
  8
GREEN
 10
2220.257905
 20
756.680666
 30
0.000000
 11
2220.257905
 21
47.319334
 31
0.000000
  6
HIDDEN
1001
TC_BEND_DATA
1000
TC_MATERIAL: St37-20
1000
TC_THICKNESS: 2.000000
1000
TC_BEND_PROCESS: NORMAL
1000
TC_BEND_ANGLE: -138.000000
1000
TC_BEND_PREANGLE: 0.000000
1000
TC_BEND_RADIUS: 4.838922
1000
TC_BEND_FACTOR: -1.019647
1000
TC_BEND_PISTON_ID: OW320-F R1/28 H100
1000
TC_BEND_DIE_ID: EV004 W12/30 R3
  0
LINE
  8
GREEN
 10
2234.622309
 20
756.000000
 30
0.000000
 11
2234.622309
 21
48.000000
 31
0.000000
  6
HIDDEN
1001
TC_BEND_DATA
1000
TC_MATERIAL: St37-20
1000
TC_THICKNESS: 2.000000
1000
TC_BEND_PROCESS: NORMAL
1000
TC_BEND_ANGLE: -90.000000
1000
TC_BEND_PREANGLE: 0.000000
1000
TC_BEND_RADIUS: 1.900000
1000
TC_BEND_FACTOR: -3.787000
1000
TC_BEND_PISTON_ID: OW320-F R1/28 H100
1000
TC_BEND_DIE_ID: EV004 W12/30 R3
  0
LINE
  8
GREEN
 10
2342.261309
 20
755.424142
 30
0.000000
 11
2342.261309
 21
48.641076
 31
0.000000
  6
HIDDEN
1001
TC_BEND_DATA
1000
TC_MATERIAL: St37-20
1000
TC_THICKNESS: 2.000000
1000
TC_BEND_PROCESS: NORMAL
1000
TC_BEND_ANGLE: -90.000000
1000
TC_BEND_PREANGLE: 0.000000
1000
TC_BEND_RADIUS: 1.900000
1000
TC_BEND_FACTOR: -3.787000
1000
TC_BEND_PISTON_ID: OW320-F R1/28 H100
1000
TC_BEND_DIE_ID: EV004 W12/30 R3
  0
LINE
  8
GREEN
 10
2319.048309
 20
756.000000
 30
0.000000
 11
2319.048309
 21
48.000000
 31
0.000000
  6
CONTINUOUS
1001
TC_BEND_DATA
1000
TC_MATERIAL: St37-20
1000
TC_THICKNESS: 2.000000
1000
TC_BEND_PROCESS: NORMAL
1000
TC_BEND_ANGLE: 90.000000
1000
TC_BEND_PREANGLE: 0.000000
1000
TC_BEND_RADIUS: 1.900000
1000
TC_BEND_FACTOR: -3.787000
1000
TC_BEND_PISTON_ID: OW320-F R1/28 H100
1000
TC_BEND_DIE_ID: EV004 W12/30 R3
  0
LINE
  8
GREEN
 10
2312.479177
 20
1057.680500
 30
0.000000
 11
1801.520823
 21
1057.680500
 31
0.000000
  6
CONTINUOUS
1001
TC_BEND_DATA
1000
TC_MATERIAL: St37-20
1000
TC_THICKNESS: 2.000000
1000
TC_BEND_PROCESS: NORMAL
1000
TC_BEND_ANGLE: 90.000000
1000
TC_BEND_PREANGLE: 0.000000
1000
TC_BEND_RADIUS: 1.900000
1000
TC_BEND_FACTOR: -3.787000
1000
TC_BEND_PISTON_ID: OW320-F R1/28 H100
1000
TC_BEND_DIE_ID: EV004 W12/30 R3
  0
LINE
  8
GREEN
 10
2310.434081
 20
950.041500
 30
0.000000
 11
1803.565919
 21
950.041500
 31
0.000000
  6
HIDDEN
1001
TC_BEND_DATA
1000
TC_MATERIAL: St37-20
1000
TC_THICKNESS: 2.000000
1000
TC_BEND_PROCESS: NORMAL
1000
TC_BEND_ANGLE: -90.000000
1000
TC_BEND_PREANGLE: 0.000000
1000
TC_BEND_RADIUS: 1.900000
1000
TC_BEND_FACTOR: -3.787000
1000
TC_BEND_PISTON_ID: OW320-F R1/28 H100
1000
TC_BEND_DIE_ID: EV004 W12/30 R3
  0
LINE
  8
GREEN
 10
2311.000000
 20
973.254500
 30
0.000000
 11
1803.000000
 21
973.254500
 31
0.000000
  6
CONTINUOUS
1001
TC_BEND_DATA
1000
TC_MATERIAL: St37-20
1000
TC_THICKNESS: 2.000000
1000
TC_BEND_PROCESS: NORMAL
1000
TC_BEND_ANGLE: 90.000000
1000
TC_BEND_PREANGLE: 0.000000
1000
TC_BEND_RADIUS: 1.900000
1000
TC_BEND_FACTOR: -3.787000
1000
TC_BEND_PISTON_ID: OW320-F R1/28 H100
1000
TC_BEND_DIE_ID: EV004 W12/30 R3
  0
LINE
  8
GREEN
 10
2346.000000
 20
1015.467500
 30
0.000000
 11
1768.000000
 21
1015.467500
 31
0.000000
  6
CONTINUOUS
1001
TC_BEND_DATA
1000
TC_MATERIAL: St37-20
1000
TC_THICKNESS: 2.000000
1000
TC_BEND_PROCESS: NORMAL
1000
TC_BEND_ANGLE: 90.000000
1000
TC_BEND_PREANGLE: 0.000000
1000
TC_BEND_RADIUS: 1.900000
1000
TC_BEND_FACTOR: -3.787000
1000
TC_BEND_PISTON_ID: OW320-F R1/28 H100
1000
TC_BEND_DIE_ID: EV004 W12/30 R3
  0
LINE
  8
GREEN
 10
2310.356677
 20
1080.893500
 30
0.000000
 11
1803.643323
 21
1080.893500
 31
0.000000
  6
HIDDEN
1001
TC_BEND_DATA
1000
TC_MATERIAL: St37-20
1000
TC_THICKNESS: 2.000000
1000
TC_BEND_PROCESS: NORMAL
1000
TC_BEND_ANGLE: -90.000000
1000
TC_BEND_PREANGLE: 0.000000
1000
TC_BEND_RADIUS: 1.900000
1000
TC_BEND_FACTOR: -3.787000
1000
TC_BEND_PISTON_ID: OW320-F R1/28 H100
1000
TC_BEND_DIE_ID: EV004 W12/30 R3
  0
LINE
  8
GREEN
 10
1819.000000
 20
907.393500
 30
0.000000
 11
2247.000000
 21
907.393500
 31
0.000000
  6
CONTINUOUS
1001
TC_BEND_DATA
1000
TC_MATERIAL: St37-20
1000
TC_THICKNESS: 2.000000
1000
TC_BEND_PROCESS: NORMAL
1000
TC_BEND_ANGLE: 90.000000
1000
TC_BEND_PREANGLE: 0.000000
1000
TC_BEND_RADIUS: 1.900000
1000
TC_BEND_FACTOR: -3.787000
1000
TC_BEND_PISTON_ID: OW320-F R1/28 H100
1000
TC_BEND_DIE_ID: EV004 W12/30 R3
  0
LINE
  8
GREEN
 10
1819.000000
 20
891.180500
 30
0.000000
 11
2247.000000
 21
891.180500
 31
0.000000
  6
CONTINUOUS
1001
TC_BEND_DATA
1000
TC_MATERIAL: St37-20
1000
TC_THICKNESS: 2.000000
1000
TC_BEND_PROCESS: NORMAL
1000
TC_BEND_ANGLE: 90.000000
1000
TC_BEND_PREANGLE: 0.000000
1000
TC_BEND_RADIUS: 1.900000
1000
TC_BEND_FACTOR: -3.787000
1000
TC_BEND_PISTON_ID: OW320-F R1/28 H100
1000
TC_BEND_DIE_ID: EV004 W12/30 R3
  0
LINE
  8
GREEN
 10
1819.000000
 20
844.967500
 30
0.000000
 11
2247.000000
 21
844.967500
 31
0.000000
  6
CONTINUOUS
1001
TC_BEND_DATA
1000
TC_MATERIAL: St37-20
1000
TC_THICKNESS: 2.000000
1000
TC_BEND_PROCESS: NORMAL
1000
TC_BEND_ANGLE: 90.000000
1000
TC_BEND_PREANGLE: 0.000000
1000
TC_BEND_RADIUS: 1.900000
1000
TC_BEND_FACTOR: -3.787000
1000
TC_BEND_PISTON_ID: OW320-F R1/28 H100
1000
TC_BEND_DIE_ID: EV004 W12/30 R3
  0
LINE
  8
GREEN
 10
1819.000000
 20
828.754500
 30
0.000000
 11
2247.000000
 21
828.754500
 31
0.000000
  6
CONTINUOUS
1001
TC_BEND_DATA
1000
TC_MATERIAL: St37-20
1000
TC_THICKNESS: 2.000000
1000
TC_BEND_PROCESS: NORMAL
1000
TC_BEND_ANGLE: 90.000000
1000
TC_BEND_PREANGLE: 0.000000
1000
TC_BEND_RADIUS: 1.900000
1000
TC_BEND_FACTOR: -3.787000
1000
TC_BEND_PISTON_ID: OW320-F R1/28 H100
1000
TC_BEND_DIE_ID: EV004 W12/30 R3
  0
ENDSEC
  0
EOF
